<svg id="svg" version="1.1" xmlns="http://www.w3.org/2000/svg" xmlns:xlink="http://www.w3.org/1999/xlink" width="400" height="362.4390243902439" viewBox="0, 0, 400,362.4390243902439"><g id="svgg"><path id="path0" d="M326.927 19.948 C 301.722 22.715,280.886 40.170,273.815 64.439 C 273.241 66.410,271.623 74.173,271.623 74.957 C 271.623 75.669,265.652 74.952,265.033 74.165 C 264.616 73.635,263.544 73.034,262.442 72.712 C 261.408 72.410,260.073 71.838,259.474 71.442 C 258.235 70.621,256.709 70.511,255.552 71.161 C 255.116 71.405,253.781 71.691,252.584 71.795 C 250.867 71.945,250.340 72.139,250.084 72.711 C 249.487 74.049,247.327 75.168,245.888 74.886 C 245.183 74.748,244.361 74.671,244.062 74.715 C 242.835 74.895,190.752 75.067,190.752 74.891 C 190.752 74.785,191.242 74.023,191.840 73.197 C 192.439 72.371,192.928 71.334,192.928 70.892 C 192.928 70.450,193.261 69.666,193.668 69.149 C 194.075 68.631,194.705 67.345,195.070 66.289 C 195.434 65.234,196.243 63.170,196.869 61.703 C 197.494 60.236,198.005 58.752,198.005 58.404 C 198.005 58.057,198.332 57.478,198.731 57.117 C 199.130 56.756,199.456 56.088,199.456 55.632 C 199.456 55.176,199.630 54.695,199.843 54.563 C 200.056 54.431,200.145 54.100,200.040 53.826 C 199.935 53.552,200.074 53.202,200.349 53.047 C 200.751 52.820,200.786 52.208,200.527 49.901 C 200.349 48.326,200.312 46.863,200.444 46.650 C 200.922 45.877,200.828 43.202,200.316 43.006 C 200.042 42.901,199.819 42.519,199.819 42.158 C 199.819 41.761,199.388 41.338,198.731 41.090 C 198.034 40.827,197.643 40.425,197.643 39.972 C 197.643 39.582,197.301 38.830,196.884 38.299 C 196.467 37.769,196.091 37.101,196.049 36.816 C 195.957 36.188,193.625 32.507,193.209 32.334 C 193.046 32.266,192.668 31.735,192.367 31.155 C 192.067 30.575,191.607 30.100,191.345 30.100 C 191.083 30.100,190.370 29.569,189.761 28.921 C 189.152 28.273,188.187 27.390,187.618 26.958 C 187.048 26.527,185.943 25.667,185.162 25.046 C 184.381 24.426,183.320 23.818,182.805 23.695 C 182.289 23.572,181.640 23.291,181.362 23.069 C 178.900 21.104,160.059 20.551,155.394 22.306 C 154.198 22.756,152.549 23.306,151.732 23.528 C 150.914 23.750,149.496 24.503,148.580 25.202 C 147.309 26.173,146.568 26.473,145.443 26.473 C 144.382 26.473,143.971 26.624,143.971 27.012 C 143.971 27.309,143.441 27.776,142.792 28.050 C 139.680 29.366,138.169 30.223,138.169 30.672 C 138.169 30.952,138.394 31.078,138.691 30.965 C 139.115 30.802,139.181 31.109,139.045 32.608 C 138.864 34.596,139.133 34.864,140.164 33.726 C 140.921 32.889,144.230 32.820,144.062 33.645 C 144.012 33.889,144.297 34.089,144.696 34.089 C 145.806 34.089,145.352 35.586,142.617 40.940 C 141.260 43.595,141.009 46.939,141.962 49.641 C 142.485 51.124,141.696 53.672,140.714 53.672 C 140.072 53.672,137.443 56.712,137.443 57.454 C 137.443 57.892,137.917 58.704,138.496 59.259 C 139.437 60.160,139.511 60.390,139.192 61.412 C 138.996 62.042,138.801 65.331,138.760 68.722 L 138.686 74.887 137.531 75.000 C 136.609 75.090,136.115 74.852,135.084 73.821 C 133.842 72.579,133.320 72.366,131.890 72.514 C 131.528 72.552,130.841 72.326,130.362 72.012 C 129.279 71.303,127.921 71.284,126.615 71.959 C 126.020 72.267,125.415 72.353,125.123 72.173 C 123.889 71.410,120.261 72.728,119.600 74.179 C 119.210 75.034,119.060 75.068,115.652 75.068 L 112.110 75.068 111.883 72.983 C 106.654 24.980,45.081 7.817,15.935 46.238 C -18.021 90.999,31.894 151.062,82.523 126.364 C 97.920 118.853,111.695 99.451,111.695 85.276 C 111.695 84.133,112.211 83.768,113.810 83.777 C 115.516 83.787,115.750 84.161,115.179 85.970 C 112.748 93.676,112.263 105.220,114.236 108.432 C 114.788 109.329,115.443 110.716,115.692 111.514 C 116.799 115.056,121.510 122.153,132.159 136.323 C 136.860 142.579,143.926 149.366,149.862 153.329 C 151.309 154.296,153.264 155.613,154.206 156.257 C 155.148 156.900,157.106 157.993,158.558 158.684 C 160.009 159.376,161.765 160.265,162.460 160.660 C 165.393 162.326,169.682 161.348,172.983 158.260 L 174.811 156.551 175.619 157.260 C 176.064 157.650,177.407 158.595,178.604 159.361 C 181.333 161.107,196.913 172.780,199.078 174.702 L 200.688 176.131 198.105 177.639 C 196.684 178.469,195.303 179.148,195.036 179.148 C 194.768 179.148,193.941 179.474,193.196 179.873 C 192.452 180.272,191.594 180.598,191.290 180.598 C 190.985 180.598,190.046 181.217,189.203 181.973 C 188.346 182.742,185.930 184.133,183.721 185.129 C 178.299 187.576,171.832 191.760,168.306 195.104 C 167.359 196.002,165.070 197.634,163.219 198.731 C 156.830 202.516,151.176 208.248,148.909 213.237 C 147.251 216.885,147.553 226.392,149.385 228.225 C 149.599 228.438,149.773 228.838,149.773 229.113 C 149.773 229.388,150.328 230.783,151.007 232.213 C 151.685 233.644,152.735 235.956,153.341 237.353 C 155.243 241.739,159.646 249.471,163.667 255.485 C 165.758 258.612,171.662 266.051,175.899 270.898 C 180.072 275.670,180.899 276.851,184.783 283.590 C 188.631 290.265,190.488 294.744,189.835 295.777 C 189.303 296.621,188.562 299.749,188.425 301.723 C 188.377 302.421,188.310 303.274,188.276 303.619 C 188.242 303.964,187.520 304.599,186.673 305.030 C 185.825 305.462,184.500 306.444,183.729 307.214 C 182.957 307.983,182.120 308.613,181.868 308.613 C 181.616 308.613,180.969 309.190,180.431 309.896 C 179.893 310.601,178.772 311.605,177.940 312.126 C 177.108 312.647,176.346 313.171,176.247 313.291 C 174.895 314.914,172.395 316.108,166.274 318.053 C 159.912 320.074,157.026 322.895,157.026 327.092 C 157.026 332.283,166.694 335.948,175.219 333.989 C 176.283 333.745,178.785 333.424,180.780 333.276 C 182.774 333.128,186.446 332.500,188.939 331.881 C 194.847 330.413,201.429 329.378,209.066 328.715 C 220.890 327.690,224.808 326.568,226.420 323.749 C 227.986 321.011,227.967 317.384,226.372 314.530 C 226.128 314.094,225.929 313.370,225.929 312.921 C 225.929 312.119,224.578 306.918,224.211 306.306 C 224.108 306.134,223.976 305.359,223.918 304.584 C 223.517 299.211,220.576 296.101,216.137 296.358 L 213.242 296.525 211.745 293.412 C 210.922 291.700,208.900 287.280,207.251 283.590 C 205.602 279.900,203.835 275.984,203.326 274.887 C 202.173 272.405,199.026 264.746,198.260 262.557 C 197.946 261.659,197.586 259.864,197.459 258.568 C 196.622 250.036,192.740 240.856,186.304 232.188 C 184.936 230.345,183.909 228.686,184.023 228.502 C 184.428 227.846,192.590 225.204,194.209 225.204 C 194.489 225.204,206.614 235.238,207.797 236.448 C 208.877 237.554,213.609 241.521,214.241 241.852 C 215.196 242.350,215.083 242.405,218.820 239.612 C 222.528 236.839,222.414 236.860,223.517 238.743 C 224.409 240.264,226.593 243.284,232.615 251.320 C 234.094 253.294,236.104 256.632,237.309 259.117 C 241.664 268.098,242.358 269.350,244.841 272.711 C 246.241 274.606,248.461 277.951,249.775 280.145 C 251.088 282.339,252.738 284.950,253.441 285.947 C 257.952 292.351,260.431 297.442,261.668 302.849 C 262.766 307.647,262.760 308.757,261.629 310.240 C 260.915 311.176,260.668 311.874,260.753 312.708 C 261.131 316.417,260.848 318.454,259.734 320.035 C 259.129 320.893,258.301 322.347,257.895 323.264 C 256.852 325.622,248.295 334.506,244.968 336.684 C 239.430 340.311,238.182 341.987,238.460 345.422 C 238.774 349.298,239.053 349.770,241.459 350.478 C 242.591 350.812,244.497 351.406,245.694 351.799 C 256.233 355.261,274.305 353.219,280.445 347.873 C 282.130 346.406,282.963 345.994,286.001 345.129 C 292.174 343.371,293.943 342.461,294.294 340.863 C 294.422 340.279,294.734 339.801,294.986 339.801 C 296.715 339.801,297.645 334.096,296.319 331.622 C 295.900 330.841,295.558 329.676,295.558 329.035 C 295.558 327.208,294.835 324.298,294.263 323.823 C 293.952 323.565,293.742 322.721,293.738 321.714 C 293.709 314.058,289.760 308.749,284.695 309.559 L 283.366 309.771 282.416 307.470 C 281.512 305.281,280.450 300.965,279.599 296.022 C 279.087 293.050,276.493 282.932,274.041 274.343 C 272.958 270.553,271.877 266.473,271.638 265.277 C 270.856 261.372,269.407 256.366,268.293 253.723 C 266.756 250.074,266.688 249.601,267.573 248.660 C 267.988 248.217,268.556 246.879,268.835 245.686 C 269.113 244.494,269.829 242.375,270.425 240.979 C 271.021 239.583,272.385 236.345,273.456 233.784 C 275.397 229.139,275.406 229.126,277.229 228.214 C 279.415 227.121,281.732 224.749,283.953 221.331 C 285.765 218.542,287.788 216.803,290.907 215.352 C 293.401 214.191,296.437 211.448,297.450 209.438 C 297.855 208.635,298.871 207.162,299.707 206.165 C 300.544 205.168,301.771 203.536,302.435 202.539 C 303.098 201.541,303.966 200.463,304.363 200.142 C 304.761 199.822,305.219 198.843,305.383 197.966 C 305.546 197.090,306.010 195.173,306.415 193.705 C 310.483 178.933,306.866 165.364,296.741 157.419 C 295.697 156.600,294.529 155.314,294.145 154.562 C 293.761 153.810,292.984 152.960,292.417 152.672 C 290.350 151.624,289.539 150.756,287.753 147.688 C 286.022 144.713,285.850 144.537,284.262 144.132 C 281.992 143.553,281.925 143.493,281.443 141.576 C 280.344 137.211,277.594 133.870,273.437 131.847 C 270.270 130.306,270.040 130.113,261.908 122.179 C 255.535 115.960,254.385 114.502,254.211 112.421 C 254.055 110.548,254.257 110.008,255.837 108.081 C 256.729 106.994,257.978 105.118,258.612 103.913 C 259.809 101.638,260.630 100.420,265.471 93.744 C 267.306 91.214,268.570 89.061,268.929 87.858 C 269.559 85.744,269.851 85.434,270.901 85.767 C 271.390 85.922,271.623 86.316,271.623 86.990 C 271.623 98.180,279.387 114.689,289.393 124.773 C 328.354 164.040,395.160 136.512,395.059 81.233 C 394.993 44.907,362.858 16.002,326.927 19.948 M150.461 86.341 C 152.334 88.185,154.851 91.595,154.850 92.289 C 154.850 92.491,154.073 93.326,153.123 94.143 C 152.174 94.961,151.128 96.185,150.800 96.863 C 147.334 104.031,146.838 105.766,146.838 110.705 C 146.838 112.654,146.916 114.375,147.012 114.530 C 147.109 114.686,147.444 116.274,147.758 118.059 C 148.071 119.845,148.428 121.673,148.549 122.121 C 149.535 125.762,135.762 114.711,129.930 107.182 C 128.780 105.698,128.802 102.972,129.980 100.997 C 131.064 99.180,133.817 93.642,133.817 93.279 C 133.817 93.130,134.134 92.416,134.522 91.692 C 134.910 90.968,135.495 89.343,135.823 88.080 C 136.820 84.232,136.301 84.497,142.847 84.497 L 148.587 84.497 150.461 86.341 M240.032 85.552 C 240.441 85.811,240.288 86.372,239.216 88.542 C 238.490 90.010,237.897 91.344,237.897 91.504 C 237.897 92.214,236.318 95.376,235.964 95.376 C 235.748 95.376,234.666 94.743,233.561 93.968 C 231.571 92.575,225.437 89.329,223.970 88.893 C 222.904 88.577,218.329 85.824,218.321 85.494 C 218.311 85.109,239.421 85.165,240.032 85.552 " stroke="none" fill="#040404" fill-rule="evenodd"></path><path id="path1" d="M0.000 181.324 L 0.000 362.647 200.000 362.647 L 400.000 362.647 400.000 181.324 L 400.000 0.000 200.000 0.000 L 0.000 0.000 0.000 181.324 M344.954 20.818 C 394.226 30.532,412.183 91.369,376.012 126.041 C 344.553 156.197,292.480 145.079,275.981 104.683 C 273.922 99.644,271.623 90.308,271.623 86.990 C 271.623 86.316,271.390 85.922,270.901 85.767 C 269.851 85.434,269.559 85.744,268.929 87.858 C 268.570 89.061,267.306 91.214,265.471 93.744 C 260.630 100.420,259.809 101.638,258.612 103.913 C 257.978 105.118,256.729 106.994,255.837 108.081 C 254.257 110.008,254.055 110.548,254.211 112.421 C 254.385 114.502,255.535 115.960,261.908 122.179 C 270.040 130.113,270.270 130.306,273.437 131.847 C 277.594 133.870,280.344 137.211,281.443 141.576 C 281.925 143.493,281.992 143.553,284.262 144.132 C 285.850 144.537,286.022 144.713,287.753 147.688 C 289.539 150.756,290.350 151.624,292.417 152.672 C 292.984 152.960,293.761 153.810,294.145 154.562 C 294.529 155.314,295.697 156.600,296.741 157.419 C 306.866 165.364,310.483 178.933,306.415 193.705 C 306.010 195.173,305.546 197.090,305.383 197.966 C 305.219 198.843,304.761 199.822,304.363 200.142 C 303.966 200.463,303.098 201.541,302.435 202.539 C 301.771 203.536,300.544 205.168,299.707 206.165 C 298.871 207.162,297.855 208.635,297.450 209.438 C 296.437 211.448,293.401 214.191,290.907 215.352 C 287.788 216.803,285.765 218.542,283.953 221.331 C 281.732 224.749,279.415 227.121,277.229 228.214 C 275.406 229.126,275.397 229.139,273.456 233.784 C 272.385 236.345,271.021 239.583,270.425 240.979 C 269.829 242.375,269.113 244.494,268.835 245.686 C 268.556 246.879,267.988 248.217,267.573 248.660 C 266.688 249.601,266.756 250.074,268.293 253.723 C 269.407 256.366,270.856 261.372,271.638 265.277 C 271.877 266.473,272.958 270.553,274.041 274.343 C 276.493 282.932,279.087 293.050,279.599 296.022 C 280.450 300.965,281.512 305.281,282.416 307.470 L 283.366 309.771 284.695 309.559 C 289.760 308.749,293.709 314.058,293.738 321.714 C 293.742 322.721,293.952 323.565,294.263 323.823 C 294.835 324.298,295.558 327.208,295.558 329.035 C 295.558 329.676,295.900 330.841,296.319 331.622 C 297.645 334.096,296.715 339.801,294.986 339.801 C 294.734 339.801,294.422 340.279,294.294 340.863 C 293.943 342.461,292.174 343.371,286.001 345.129 C 282.963 345.994,282.130 346.406,280.445 347.873 C 277.156 350.737,273.087 352.007,263.934 353.027 C 255.363 353.983,251.563 353.727,245.694 351.799 C 244.497 351.406,242.591 350.812,241.459 350.478 C 239.053 349.770,238.774 349.298,238.460 345.422 C 238.182 341.987,239.430 340.311,244.968 336.684 C 248.295 334.506,256.852 325.622,257.895 323.264 C 258.301 322.347,259.129 320.893,259.734 320.035 C 260.848 318.454,261.131 316.417,260.753 312.708 C 260.668 311.874,260.915 311.176,261.629 310.240 C 262.760 308.757,262.766 307.647,261.668 302.849 C 260.431 297.442,257.952 292.351,253.441 285.947 C 252.738 284.950,251.088 282.339,249.775 280.145 C 248.461 277.951,246.241 274.606,244.841 272.711 C 242.358 269.350,241.664 268.098,237.309 259.117 C 236.104 256.632,234.094 253.294,232.615 251.320 C 226.593 243.284,224.409 240.264,223.517 238.743 C 222.414 236.860,222.528 236.839,218.820 239.612 C 215.083 242.405,215.196 242.350,214.241 241.852 C 213.609 241.521,208.877 237.554,207.797 236.448 C 206.614 235.238,194.489 225.204,194.209 225.204 C 192.590 225.204,184.428 227.846,184.023 228.502 C 183.909 228.686,184.936 230.345,186.304 232.188 C 192.740 240.856,196.622 250.036,197.459 258.568 C 197.586 259.864,197.946 261.659,198.260 262.557 C 199.026 264.746,202.173 272.405,203.326 274.887 C 203.835 275.984,205.602 279.900,207.251 283.590 C 208.900 287.280,210.922 291.700,211.745 293.412 L 213.242 296.525 216.137 296.358 C 220.576 296.101,223.517 299.211,223.918 304.584 C 223.976 305.359,224.108 306.134,224.211 306.306 C 224.578 306.918,225.929 312.119,225.929 312.921 C 225.929 313.370,226.128 314.094,226.372 314.530 C 227.967 317.384,227.986 321.011,226.420 323.749 C 224.808 326.568,220.890 327.690,209.066 328.715 C 201.429 329.378,194.847 330.413,188.939 331.881 C 186.446 332.500,182.774 333.128,180.780 333.276 C 178.785 333.424,176.283 333.745,175.219 333.989 C 166.694 335.948,157.026 332.283,157.026 327.092 C 157.026 322.895,159.912 320.074,166.274 318.053 C 172.395 316.108,174.895 314.914,176.247 313.291 C 176.346 313.171,177.108 312.647,177.940 312.126 C 178.772 311.605,179.893 310.601,180.431 309.896 C 180.969 309.190,181.616 308.613,181.868 308.613 C 182.120 308.613,182.957 307.983,183.729 307.214 C 184.500 306.444,185.825 305.462,186.673 305.030 C 187.520 304.599,188.242 303.964,188.276 303.619 C 188.310 303.274,188.377 302.421,188.425 301.723 C 188.562 299.749,189.303 296.621,189.835 295.777 C 190.488 294.744,188.631 290.265,184.783 283.590 C 180.899 276.851,180.072 275.670,175.899 270.898 C 171.662 266.051,165.758 258.612,163.667 255.485 C 159.646 249.471,155.243 241.739,153.341 237.353 C 152.735 235.956,151.685 233.644,151.007 232.213 C 150.328 230.783,149.773 229.388,149.773 229.113 C 149.773 228.838,149.599 228.438,149.385 228.225 C 147.553 226.392,147.251 216.885,148.909 213.237 C 151.176 208.248,156.830 202.516,163.219 198.731 C 165.070 197.634,167.359 196.002,168.306 195.104 C 171.832 191.760,178.299 187.576,183.721 185.129 C 185.930 184.133,188.346 182.742,189.203 181.973 C 190.046 181.217,190.985 180.598,191.290 180.598 C 191.594 180.598,192.452 180.272,193.196 179.873 C 193.941 179.474,194.768 179.148,195.036 179.148 C 195.303 179.148,196.684 178.469,198.105 177.639 L 200.688 176.131 199.078 174.702 C 196.913 172.780,181.333 161.107,178.604 159.361 C 177.407 158.595,176.064 157.650,175.619 157.260 L 174.811 156.551 172.983 158.260 C 169.682 161.348,165.393 162.326,162.460 160.660 C 161.765 160.265,160.009 159.376,158.558 158.684 C 157.106 157.993,155.148 156.900,154.206 156.257 C 153.264 155.613,151.309 154.296,149.862 153.329 C 143.926 149.366,136.860 142.579,132.159 136.323 C 121.510 122.153,116.799 115.056,115.692 111.514 C 115.443 110.716,114.788 109.329,114.236 108.432 C 112.263 105.220,112.748 93.676,115.179 85.970 C 115.750 84.161,115.516 83.787,113.810 83.777 C 112.211 83.768,111.695 84.133,111.695 85.276 C 111.695 90.452,107.403 102.002,103.157 108.250 C 78.462 144.589,22.954 137.772,8.184 96.586 C -6.731 54.996,32.885 14.141,75.068 27.611 C 94.953 33.960,109.598 52.009,111.883 72.983 L 112.110 75.068 115.652 75.068 C 119.060 75.068,119.210 75.034,119.600 74.179 C 120.261 72.728,123.889 71.410,125.123 72.173 C 125.415 72.353,126.020 72.267,126.615 71.959 C 127.921 71.284,129.279 71.303,130.362 72.012 C 130.841 72.326,131.528 72.552,131.890 72.514 C 133.320 72.366,133.842 72.579,135.084 73.821 C 136.115 74.852,136.609 75.090,137.531 75.000 L 138.686 74.887 138.760 68.722 C 138.801 65.331,138.996 62.042,139.192 61.412 C 139.511 60.390,139.437 60.160,138.496 59.259 C 137.917 58.704,137.443 57.892,137.443 57.454 C 137.443 56.712,140.072 53.672,140.714 53.672 C 141.696 53.672,142.485 51.124,141.962 49.641 C 141.009 46.939,141.260 43.595,142.617 40.940 C 145.352 35.586,145.806 34.089,144.696 34.089 C 144.297 34.089,144.012 33.889,144.062 33.645 C 144.230 32.820,140.921 32.889,140.164 33.726 C 139.133 34.864,138.864 34.596,139.045 32.608 C 139.181 31.109,139.115 30.802,138.691 30.965 C 138.394 31.078,138.169 30.952,138.169 30.672 C 138.169 30.223,139.680 29.366,142.792 28.050 C 143.441 27.776,143.971 27.309,143.971 27.012 C 143.971 26.624,144.382 26.473,145.443 26.473 C 146.568 26.473,147.309 26.173,148.580 25.202 C 149.496 24.503,150.914 23.750,151.732 23.528 C 152.549 23.306,154.198 22.756,155.394 22.306 C 160.059 20.551,178.900 21.104,181.362 23.069 C 181.640 23.291,182.289 23.572,182.805 23.695 C 183.320 23.818,184.381 24.426,185.162 25.046 C 185.943 25.667,187.048 26.527,187.618 26.958 C 188.187 27.390,189.152 28.273,189.761 28.921 C 190.370 29.569,191.083 30.100,191.345 30.100 C 191.607 30.100,192.067 30.575,192.367 31.155 C 192.668 31.735,193.046 32.266,193.209 32.334 C 193.625 32.507,195.957 36.188,196.049 36.816 C 196.091 37.101,196.467 37.769,196.884 38.299 C 197.301 38.830,197.643 39.582,197.643 39.972 C 197.643 40.425,198.034 40.827,198.731 41.090 C 199.388 41.338,199.819 41.761,199.819 42.158 C 199.819 42.519,200.042 42.901,200.316 43.006 C 200.828 43.202,200.922 45.877,200.444 46.650 C 200.312 46.863,200.349 48.326,200.527 49.901 C 200.786 52.208,200.751 52.820,200.349 53.047 C 200.074 53.202,199.935 53.552,200.040 53.826 C 200.145 54.100,200.056 54.431,199.843 54.563 C 199.630 54.695,199.456 55.176,199.456 55.632 C 199.456 56.088,199.130 56.756,198.731 57.117 C 198.332 57.478,198.005 58.057,198.005 58.404 C 198.005 58.752,197.494 60.236,196.869 61.703 C 196.243 63.170,195.434 65.234,195.070 66.289 C 194.705 67.345,194.075 68.631,193.668 69.149 C 193.261 69.666,192.928 70.450,192.928 70.892 C 192.928 71.334,192.439 72.371,191.840 73.197 C 191.242 74.023,190.752 74.785,190.752 74.891 C 190.752 75.067,242.835 74.895,244.062 74.715 C 244.361 74.671,245.183 74.748,245.888 74.886 C 247.327 75.168,249.487 74.049,250.084 72.711 C 250.340 72.139,250.867 71.945,252.584 71.795 C 253.781 71.691,255.116 71.405,255.552 71.161 C 256.709 70.511,258.235 70.621,259.474 71.442 C 260.073 71.838,261.408 72.410,262.442 72.712 C 263.544 73.034,264.616 73.635,265.033 74.165 C 265.652 74.952,271.623 75.669,271.623 74.957 C 271.623 74.173,273.241 66.410,273.815 64.439 C 282.786 33.650,313.747 14.665,344.954 20.818 M136.762 85.140 C 136.573 85.494,136.150 86.816,135.823 88.080 C 135.495 89.343,134.910 90.968,134.522 91.692 C 134.134 92.416,133.817 93.130,133.817 93.279 C 133.817 93.642,131.064 99.180,129.980 100.997 C 128.802 102.972,128.780 105.698,129.930 107.182 C 135.762 114.711,149.535 125.762,148.549 122.121 C 148.428 121.673,148.071 119.845,147.758 118.059 C 147.444 116.274,147.109 114.686,147.012 114.530 C 146.916 114.375,146.838 112.654,146.838 110.705 C 146.838 105.766,147.334 104.031,150.800 96.863 C 151.128 96.185,152.174 94.961,153.123 94.143 C 154.073 93.326,154.850 92.491,154.850 92.289 C 154.851 91.595,152.334 88.185,150.461 86.341 L 148.587 84.497 142.847 84.497 C 137.722 84.497,137.069 84.566,136.762 85.140 M218.321 85.494 C 218.329 85.824,222.904 88.577,223.970 88.893 C 225.437 89.329,231.571 92.575,233.561 93.968 C 234.666 94.743,235.748 95.376,235.964 95.376 C 236.318 95.376,237.897 92.214,237.897 91.504 C 237.897 91.344,238.490 90.010,239.216 88.542 C 240.288 86.372,240.441 85.811,240.032 85.552 C 239.421 85.165,218.311 85.109,218.321 85.494 " stroke="none" fill="#ffffff" fill-rule="evenodd"></path></g></svg>