<?xml version="1.0" standalone="no"?>
<!DOCTYPE svg PUBLIC "-//W3C//DTD SVG 20010904//EN"
 "http://www.w3.org/TR/2001/REC-SVG-20010904/DTD/svg10.dtd">
<svg version="1.0" xmlns="http://www.w3.org/2000/svg"
 width="512.000000pt" height="512.000000pt" viewBox="0 0 512.000000 512.000000"
 preserveAspectRatio="xMidYMid meet">

<g transform="translate(0.000000,512.000000) scale(0.100000,-0.100000)"
fill="#000000" stroke="none">
<path d="M2535 4448 c-58 -30 -81 -54 -106 -111 -28 -66 -37 -202 -19 -286 12
-56 11 -62 -13 -115 -28 -61 -38 -67 -129 -86 -31 -6 -79 -22 -105 -36 -29
-14 -65 -24 -91 -24 -56 0 -101 -20 -154 -68 -24 -21 -69 -56 -102 -76 -56
-36 -190 -167 -242 -237 -33 -45 -44 -90 -44 -184 0 -121 14 -191 60 -309 40
-103 41 -109 29 -152 l-13 -44 -188 0 -188 0 0 33 c-1 112 -68 282 -142 359
-78 79 -90 83 -273 83 -169 -1 -184 -4 -257 -58 -74 -55 -152 -213 -166 -335
l-7 -67 -82 -9 c-82 -9 -83 -10 -83 -37 0 -37 12 -43 95 -49 l69 -5 12 -70
c25 -147 102 -280 195 -337 40 -26 59 -29 178 -38 193 -14 247 2 331 97 56 63
99 159 117 257 8 44 17 91 19 104 4 22 5 22 189 22 l185 0 0 -48 c0 -73 26
-158 78 -252 25 -47 65 -124 88 -171 23 -47 59 -103 79 -125 45 -48 55 -71 55
-134 0 -43 -5 -54 -45 -101 -24 -28 -53 -70 -63 -93 -18 -37 -52 -204 -97
-476 -21 -125 -30 -152 -71 -205 -31 -41 -43 -79 -79 -249 -2 -11 0 -28 6 -38
17 -32 121 -25 232 16 50 19 110 40 132 48 30 10 41 21 48 45 13 42 -13 95
-58 116 -26 12 -35 24 -41 52 -3 19 -10 38 -15 41 -12 7 -11 61 2 109 6 22 44
101 84 175 47 87 84 172 105 240 18 58 64 170 104 250 l71 145 0 88 c0 48 0
87 2 87 10 0 102 -136 152 -225 35 -60 70 -118 78 -127 22 -25 66 -22 154 7
41 14 79 24 86 23 9 -2 -2 -45 -33 -138 -44 -131 -46 -138 -40 -225 5 -73 0
-127 -26 -285 -40 -250 -45 -271 -62 -264 -22 9 -34 -52 -38 -194 -2 -104 4
-116 57 -107 17 3 95 12 175 20 80 8 181 23 225 33 87 19 92 24 94 104 1 46
-26 68 -83 68 -34 0 -46 7 -83 45 -24 25 -43 49 -43 53 0 4 12 8 28 7 42 0 35
29 -8 33 -28 3 -41 12 -62 43 l-28 39 29 77 c16 43 54 137 84 208 65 153 82
228 96 426 6 80 16 159 22 177 12 36 20 18 -91 222 -107 196 -145 257 -211
332 -33 36 -59 76 -59 87 0 19 6 21 56 21 50 0 61 -4 95 -35 22 -20 61 -41 93
-50 62 -18 73 -15 142 46 l40 36 230 -4 c126 -2 248 -6 271 -9 47 -6 43 3 58
-149 14 -141 66 -274 136 -350 49 -53 81 -61 264 -70 124 -5 133 -4 175 18 79
42 150 173 185 345 8 40 15 94 15 119 l0 46 240 -5 c156 -3 243 -1 250 6 5 5
10 27 10 47 0 71 5 69 -175 69 -89 0 -196 3 -237 6 l-74 7 -18 119 c-9 66 -26
148 -36 182 -25 81 -88 177 -134 206 -36 21 -44 22 -204 18 -190 -5 -212 -11
-264 -81 -66 -90 -111 -214 -131 -368 l-13 -94 -82 0 c-45 0 -176 2 -292 3
l-210 2 0 35 c0 41 -14 50 -93 60 -54 7 -59 10 -76 44 -45 87 -73 172 -82 247
-9 74 -8 85 10 120 11 21 28 84 37 139 11 66 29 124 51 170 18 38 33 80 33 93
0 59 -52 121 -112 136 -35 8 -68 43 -61 65 3 9 21 39 40 67 41 60 63 155 63
266 0 42 5 80 10 83 6 3 10 19 10 35 0 16 -4 32 -10 35 -5 3 -10 16 -10 27 0
27 -74 98 -103 98 -12 0 -35 9 -52 20 -39 26 -99 25 -150 -2z m-591 -1123 c9
-24 -11 -188 -27 -226 -27 -64 -75 -118 -128 -145 l-52 -26 7 59 c3 32 9 107
13 167 7 129 18 147 103 169 74 19 77 19 84 2z m734 -511 l63 -89 -79 -3 c-95
-3 -172 23 -172 58 0 24 98 132 114 127 6 -2 39 -44 74 -93z"/>
</g>
</svg>
