<?xml version="1.0" standalone="no"?>
<!DOCTYPE svg PUBLIC "-//W3C//DTD SVG 20010904//EN"
 "http://www.w3.org/TR/2001/REC-SVG-20010904/DTD/svg10.dtd">
<svg version="1.0" xmlns="http://www.w3.org/2000/svg"
 width="512.000000pt" height="512.000000pt" viewBox="0 0 512.000000 512.000000"
 preserveAspectRatio="xMidYMid meet">

<g transform="translate(0.000000,512.000000) scale(0.100000,-0.100000)"
fill="#000000" stroke="none">
<path d="M2220 4741 l0 -380 -502 -3 c-484 -4 -506 -5 -583 -26 -313 -87 -559
-333 -647 -647 -22 -79 -22 -91 -26 -752 l-3 -673 300 0 300 0 3 638 c3 628 3
638 24 683 28 60 93 125 153 153 l46 21 1275 0 1275 0 46 -21 c60 -28 125 -93
153 -153 21 -45 21 -55 24 -683 l3 -638 300 0 300 0 -3 673 c-4 661 -4 673
-26 752 -88 314 -334 560 -647 647 -77 21 -100 22 -572 26 l-493 3 0 380 0
379 -350 0 -350 0 0 -379z"/>
<path d="M1565 3142 c-99 -34 -174 -117 -195 -215 -8 -35 -10 -167 -8 -397 3
-328 4 -347 24 -391 80 -173 300 -230 451 -119 49 36 100 109 109 156 3 19 10
34 14 34 4 0 11 -15 14 -34 4 -18 20 -54 37 -79 70 -105 204 -159 319 -127
l35 10 -3 62 c-14 279 197 546 477 604 62 12 147 14 499 12 l424 -3 -4 140
c-4 162 -18 205 -88 275 -134 134 -354 111 -459 -47 -17 -25 -33 -61 -37 -79
-3 -19 -10 -34 -14 -34 -4 0 -11 15 -14 34 -9 47 -60 120 -109 156 -138 101
-331 66 -426 -77 -17 -25 -33 -61 -37 -79 -8 -43 -20 -43 -28 0 -9 47 -60 120
-109 156 -138 101 -331 66 -426 -77 -17 -25 -33 -61 -37 -79 -3 -19 -10 -34
-14 -34 -4 0 -11 15 -14 34 -4 18 -20 54 -37 79 -76 115 -216 163 -344 119z"/>
<path d="M2865 2342 c-211 -73 -272 -335 -115 -492 80 -80 99 -85 398 -88
l262 -3 0 -150 0 -149 -258 0 c-225 0 -269 3 -336 20 -105 27 -185 71 -271
152 l-73 68 -48 -15 c-126 -39 -288 -27 -412 30 l-54 25 -40 -21 c-60 -31
-183 -59 -258 -59 -75 0 -198 28 -260 60 l-41 21 3 -343 3 -343 27 -58 c21
-45 64 -96 198 -231 l170 -173 0 -296 0 -297 800 0 800 0 0 297 0 297 270 271
c226 227 274 282 297 331 l28 59 0 440 c0 429 -1 441 -21 486 -28 60 -93 125
-153 153 -44 20 -60 21 -456 23 -369 3 -415 1 -460 -15z"/>
</g>
</svg>
