<?xml version="1.0" standalone="no"?>
<!DOCTYPE svg PUBLIC "-//W3C//DTD SVG 20010904//EN"
 "http://www.w3.org/TR/2001/REC-SVG-20010904/DTD/svg10.dtd">
<svg version="1.0" xmlns="http://www.w3.org/2000/svg"
 width="512.000000pt" height="512.000000pt" viewBox="0 0 512.000000 512.000000"
 preserveAspectRatio="xMidYMid meet">

<g transform="translate(0.000000,512.000000) scale(0.100000,-0.100000)"
fill="#000000" stroke="none">
<path d="M1395 4990 l-65 -130 50 -25 50 -25 -35 -63 c-25 -45 -35 -76 -35
-107 0 -38 5 -48 45 -87 l45 -43 0 -327 c0 -317 -1 -329 -20 -341 -14 -8 -20
-23 -20 -46 0 -20 8 -40 20 -51 19 -17 20 -31 20 -192 0 -95 -3 -173 -6 -173
-3 0 -36 27 -73 60 -37 33 -77 60 -87 60 -25 0 -44 -18 -44 -42 0 -26 377
-358 407 -358 12 0 27 9 33 21 16 28 1 48 -104 139 l-86 75 0 198 c0 184 1
198 20 217 11 11 20 31 20 43 0 13 -9 32 -20 42 -19 17 -20 31 -20 350 l0 333
30 12 c36 15 66 49 100 113 14 26 28 47 32 47 4 0 159 -78 343 -172 l335 -173
0 -2097 0 -2098 -230 0 -230 0 0 -75 0 -75 1010 0 1011 0 -3 73 -3 72 -182 3
-183 2 0 2090 0 2090 75 0 75 0 0 145 0 145 -617 0 -616 0 -446 229 c-245 126
-465 238 -488 250 l-43 21 -65 -130z m113 -322 c14 -14 15 -37 3 -57 -8 -12
-12 -12 -25 -2 -8 7 -24 10 -36 6 -16 -5 -20 -2 -20 17 0 30 17 48 45 48 12 0
26 -5 33 -12z m951 -144 c27 -35 26 -66 -2 -100 -17 -20 -33 -27 -57 -27 -24
0 -40 7 -57 27 -28 34 -29 65 -2 100 16 20 29 26 59 26 30 0 43 -6 59 -26z
m1041 6 c40 -40 15 -128 -37 -131 -38 -3 -59 3 -77 22 -26 24 -26 81 -1 109
25 27 88 27 115 0z m-760 -1695 l0 -1495 -65 0 -65 0 0 -35 0 -35 65 0 c63 0
65 -1 65 -25 0 -24 -2 -25 -65 -25 l-65 0 0 -35 0 -35 65 0 65 0 0 -30 0 -30
-65 0 -65 0 0 -30 0 -30 65 0 65 0 0 -30 0 -30 -65 0 -65 0 0 -35 0 -35 65 0
c63 0 65 -1 65 -25 0 -24 -2 -25 -65 -25 l-65 0 0 -35 0 -35 65 0 65 0 0 -30
0 -30 -65 0 -65 0 0 -35 c0 -32 2 -35 30 -35 23 0 33 -7 45 -30 l16 -30 -116
0 -115 0 0 1863 c0 1025 3 1867 7 1870 3 4 64 7 135 7 l128 0 0 -1495z m340 0
l0 -1495 -150 0 -150 0 0 1495 0 1495 150 0 150 0 0 -1495z m290 -375 l0
-1870 -100 0 c-76 0 -100 3 -100 13 0 20 23 45 45 49 14 2 21 12 23 36 l3 32
-61 0 c-61 0 -61 0 -58 28 3 26 6 27 61 30 l58 3 -3 32 c-3 32 -4 32 -60 35
-54 3 -58 5 -58 27 0 22 4 24 58 27 56 3 57 3 60 36 l3 32 -61 0 c-61 0 -61 0
-58 28 3 26 6 27 61 30 56 3 57 4 57 32 0 28 -1 29 -57 32 -55 3 -58 4 -61 31
-3 27 -3 27 58 27 l61 0 -3 33 c-3 32 -4 32 -60 35 -54 3 -58 5 -58 27 0 22 4
24 58 27 56 3 57 3 60 35 l3 32 -58 3 -58 3 -3 1480 c-1 814 0 1486 3 1493 3
9 38 12 125 12 l120 0 0 -1870z m-290 -1215 l0 -25 -150 0 -150 0 0 25 0 25
150 0 150 0 0 -25z m0 -125 l0 -30 -150 0 -150 0 0 30 0 30 150 0 150 0 0 -30z
m0 -120 l0 -30 -150 0 -150 0 0 30 0 30 150 0 150 0 0 -30z m0 -125 l0 -25
-150 0 -150 0 0 25 0 25 150 0 150 0 0 -25z m0 -125 l0 -30 -150 0 -150 0 0
30 0 30 150 0 150 0 0 -30z m-52 -125 c7 -14 12 -28 12 -30 0 -3 -50 -5 -110
-5 l-111 0 16 30 c15 30 16 30 99 30 79 0 83 -1 94 -25z m342 -330 l0 -145
-450 0 -450 0 0 145 0 145 450 0 450 0 0 -145z"/>
<path d="M2382 4498 c-16 -16 -15 -33 4 -48 22 -19 54 12 38 37 -14 22 -27 26
-42 11z"/>
<path d="M3422 4498 c-16 -16 -15 -33 2 -47 30 -25 67 16 40 44 -19 18 -26 19
-42 3z"/>
</g>
</svg>
