<?xml version="1.0" standalone="no"?>
<!DOCTYPE svg PUBLIC "-//W3C//DTD SVG 20010904//EN"
 "http://www.w3.org/TR/2001/REC-SVG-20010904/DTD/svg10.dtd">
<svg version="1.0" xmlns="http://www.w3.org/2000/svg"
 width="512.000000pt" height="512.000000pt" viewBox="0 0 512.000000 512.000000"
 preserveAspectRatio="xMidYMid meet">

<g transform="translate(0.000000,512.000000) scale(0.100000,-0.100000)"
fill="#000000" stroke="none">
<path d="M2443 5005 c-366 -99 -490 -547 -224 -812 303 -303 822 -90 822 337
0 98 -24 190 -69 260 -112 176 -336 267 -529 215z"/>
<path d="M442 4208 c-8 -8 -12 -66 -12 -195 l0 -183 -50 0 -49 0 -3 -62 -3
-63 -157 -3 -158 -3 0 -49 0 -50 160 0 160 0 0 -59 0 -60 48 -3 47 -3 3 -184
c1 -115 7 -189 13 -198 15 -17 140 -18 157 -1 9 9 12 80 12 260 l0 248 154 0
154 0 192 60 c198 62 222 67 264 50 23 -8 27 -5 51 37 14 26 22 50 18 54 -15
14 -116 29 -152 23 -20 -3 -115 -31 -211 -62 l-175 -55 -145 -1 -145 -1 -3
244 c-1 160 -6 249 -13 258 -15 17 -140 18 -157 1z"/>
<path d="M4521 4207 c-7 -9 -12 -98 -13 -258 l-3 -244 -145 1 -145 1 -175 57
c-187 61 -259 71 -332 47 -21 -7 -38 -14 -38 -16 0 -1 12 -23 26 -48 23 -42
27 -45 50 -37 43 17 67 12 265 -50 l191 -60 154 0 154 0 0 -248 c0 -180 3
-251 12 -260 17 -17 142 -16 157 1 6 9 12 83 13 198 l3 184 47 3 47 3 3 57 3
57 158 3 157 3 0 49 0 49 -157 3 -158 3 -3 63 -3 62 -49 0 -50 0 0 183 c0 129
-4 187 -12 195 -17 17 -142 16 -157 -1z"/>
<path d="M2065 4093 c-16 -10 -35 -17 -42 -18 -33 -1 -167 -130 -232 -223
l-23 -32 31 -35 c16 -19 33 -51 37 -70 5 -29 13 -39 43 -51 21 -9 52 -14 76
-11 22 2 148 47 280 98 236 92 242 93 325 93 84 0 89 -1 337 -97 139 -53 265
-97 281 -97 16 0 45 7 65 15 28 11 36 21 41 50 4 19 21 51 37 70 l31 35 -23
32 c-65 93 -199 222 -232 224 -7 0 -26 8 -44 17 -21 11 -55 17 -100 17 -59 0
-74 -4 -113 -30 -79 -53 -161 -75 -280 -75 -119 0 -201 22 -280 75 -39 26 -54
30 -115 30 -46 -1 -80 -7 -100 -17z"/>
<path d="M1540 3802 c-79 -42 -128 -183 -116 -336 14 -188 134 -561 201 -628
56 -56 156 -63 220 -14 59 45 64 65 69 263 4 160 13 232 41 328 6 19 0 22 -62
32 -37 7 -69 10 -71 9 -1 -2 3 -31 11 -65 14 -58 13 -62 -4 -71 -26 -14 -26
-14 -39 39 -26 111 -28 163 -8 226 16 51 17 67 8 105 -12 48 -48 93 -92 116
-38 20 -117 18 -158 -4z"/>
<path d="M3415 3801 c-45 -28 -72 -61 -85 -107 -11 -36 -10 -50 7 -105 21 -67
20 -118 -7 -230 -13 -53 -13 -53 -39 -39 -17 9 -18 13 -4 71 8 34 12 63 11 65
-2 1 -34 -2 -71 -9 -61 -10 -68 -13 -62 -32 29 -102 38 -177 41 -333 5 -193
10 -213 70 -258 51 -39 124 -44 184 -12 54 29 82 80 142 256 82 243 112 422
88 544 -16 89 -59 162 -110 188 -50 26 -125 26 -165 1z"/>
<path d="M2490 3794 c-8 -3 -127 -49 -264 -101 -220 -84 -255 -95 -295 -90
-26 3 -55 8 -66 12 -16 5 -22 0 -31 -27 -6 -18 -14 -40 -18 -49 -11 -25 47
-44 129 -43 64 0 92 9 325 98 228 88 260 98 305 93 30 -2 144 -41 290 -97 218
-85 246 -94 310 -94 82 -1 140 18 129 43 -4 9 -12 31 -18 49 -9 27 -15 32 -31
27 -11 -4 -40 -9 -65 -12 -40 -4 -75 6 -295 92 -213 82 -260 97 -320 101 -38
2 -77 1 -85 -2z"/>
<path d="M2300 3554 c-118 -47 -237 -91 -265 -98 l-50 -13 -5 -434 -6 -434
-93 -1118 c-89 -1071 -92 -1119 -77 -1171 67 -228 386 -256 491 -43 25 51 28
79 96 928 39 480 72 884 75 897 4 21 9 22 94 22 85 0 90 -1 94 -22 3 -13 36
-416 75 -897 68 -850 71 -876 96 -927 46 -94 133 -146 240 -146 116 1 219 78
251 189 15 51 12 98 -77 1170 l-93 1118 -6 435 -5 435 -25 3 c-13 2 -134 46
-268 98 -175 67 -256 94 -286 93 -26 0 -118 -31 -256 -85z"/>
</g>
</svg>
