<?xml version="1.0" standalone="no"?>
<!DOCTYPE svg PUBLIC "-//W3C//DTD SVG 20010904//EN"
 "http://www.w3.org/TR/2001/REC-SVG-20010904/DTD/svg10.dtd">
<svg version="1.0" xmlns="http://www.w3.org/2000/svg"
 width="820.000000pt" height="1843.000000pt" viewBox="0 0 820.000000 1843.000000"
 preserveAspectRatio="xMidYMid meet">

<g transform="translate(0.000000,1843.000000) scale(0.100000,-0.100000)"
fill="#000000" stroke="none">
<path d="M3025 18003 c-329 -28 -416 -65 -581 -243 -116 -126 -177 -225 -204
-335 -31 -127 -28 -638 4 -778 18 -79 36 -117 82 -173 72 -88 100 -197 109
-420 10 -253 17 -291 50 -264 26 21 54 83 71 157 14 59 15 81 4 160 -7 50 -9
96 -6 102 21 34 123 -80 199 -224 46 -85 123 -163 235 -238 203 -136 387 -207
586 -228 124 -13 169 -46 202 -148 42 -135 -19 -276 -140 -318 -69 -24 -274
-24 -366 1 -152 41 -233 105 -245 193 -9 65 -47 165 -93 242 -42 72 -157 201
-178 201 -39 0 -6 -118 114 -408 55 -134 72 -186 63 -191 -7 -5 -56 -16 -109
-25 -217 -38 -382 -91 -382 -122 0 -39 473 -65 860 -46 305 15 391 37 495 123
93 77 242 138 425 174 178 35 281 81 267 119 -13 34 -56 40 -287 41 -229 1
-283 8 -322 43 -10 8 -18 24 -18 34 0 34 43 41 215 32 266 -14 366 -12 399 9
32 22 31 43 -6 70 -42 31 -147 46 -325 47 -90 0 -163 4 -163 9 0 8 91 512 129
716 30 157 33 227 21 420 -23 379 -103 762 -198 950 -93 186 -217 277 -426
314 -54 10 -384 13 -481 4z m430 -148 c96 -25 204 -83 257 -137 211 -217 343
-864 277 -1358 -35 -267 -135 -543 -221 -613 -119 -96 -146 -93 -434 48 -275
134 -421 246 -505 388 -51 86 -132 166 -235 233 -139 90 -154 124 -128 299 17
120 12 182 -16 195 -62 29 -76 39 -94 70 -45 76 -16 314 56 453 135 266 507
456 868 442 63 -2 142 -11 175 -20z"/>
<path d="M4715 15501 c-12 -21 25 -49 182 -139 276 -156 403 -271 484 -438 62
-127 79 -212 89 -429 12 -262 38 -372 149 -628 82 -192 123 -347 136 -522 14
-191 67 -317 216 -515 88 -118 183 -266 232 -365 100 -202 361 -1084 467
-1580 61 -282 96 -394 206 -653 92 -215 91 -234 -20 -381 -126 -168 -211 -389
-263 -686 -13 -77 -17 -156 -17 -345 0 -215 3 -257 22 -343 39 -176 117 -334
243 -492 187 -236 442 -289 674 -140 337 215 545 743 522 1320 -15 365 -103
638 -257 795 -121 124 -220 160 -439 160 -170 0 -205 11 -264 80 -73 86 -166
299 -218 502 -11 44 -31 153 -45 241 -35 222 -69 397 -109 557 -42 168 -207
756 -233 830 -48 138 -178 363 -290 501 -162 201 -239 374 -341 764 -64 247
-114 397 -155 465 -46 75 -65 172 -77 379 -11 211 -28 317 -70 442 -97 293
-294 510 -541 596 -85 29 -269 45 -283 24z m2855 -5516 c95 -48 164 -133 244
-300 55 -114 99 -253 120 -375 19 -111 22 -340 6 -450 -50 -353 -251 -713
-486 -868 -145 -96 -309 -75 -459 59 -119 106 -177 195 -215 331 -43 153 -63
565 -40 786 32 290 151 528 340 675 149 117 274 170 385 164 40 -2 85 -11 105
-22z"/>
<path d="M2325 15474 c-116 -59 -312 -223 -407 -338 -132 -161 -203 -218 -409
-327 -159 -84 -297 -174 -430 -280 -178 -144 -244 -234 -283 -391 -26 -104
-30 -125 -91 -603 -24 -187 -69 -506 -101 -710 -83 -547 -81 -610 31 -930 127
-358 130 -386 129 -1160 -1 -967 -13 -1046 -185 -1241 -183 -206 -333 -519
-400 -835 -31 -146 -31 -370 0 -518 73 -343 209 -591 410 -743 179 -135 338
-154 408 -49 57 86 9 122 -179 135 -176 13 -260 78 -357 279 -66 135 -99 230
-127 357 -27 121 -27 458 -1 580 44 203 117 376 218 520 45 64 313 340 330
340 3 0 11 -118 18 -262 30 -649 67 -1008 131 -1268 51 -213 115 -332 222
-412 193 -147 518 -187 518 -64 0 38 -75 79 -219 120 -175 50 -260 113 -300
222 -107 285 -222 913 -189 1030 22 81 3 267 -76 709 -51 289 -67 468 -73 821
-8 419 22 796 78 1010 44 168 43 213 -7 194 -36 -14 -53 -3 -95 63 -71 109
-129 284 -156 467 -21 144 -23 475 -4 610 25 175 76 300 124 300 30 0 44 11
56 43 16 41 14 267 -5 547 -25 360 -13 411 130 555 127 128 275 240 489 374
114 71 196 135 363 283 161 142 430 421 482 499 63 94 48 120 -43 73z"/>
<path d="M3777 14453 c-18 -17 -3 -104 39 -235 55 -172 65 -268 40 -368 -39
-152 -135 -238 -321 -290 -113 -31 -227 -91 -296 -155 -72 -66 -152 -95 -264
-95 -167 0 -326 56 -500 177 -141 97 -216 138 -239 130 -11 -4 -16 -19 -16
-46 0 -30 9 -50 38 -88 124 -155 386 -335 553 -378 106 -28 188 -8 361 87 51
28 191 102 312 164 310 161 402 236 481 386 51 97 67 160 67 258 0 123 -46
257 -124 366 -43 60 -112 106 -131 87z"/>
<path d="M5085 14102 c-34 -21 -76 -93 -98 -168 -25 -87 -44 -114 -95 -137
-45 -21 -61 -22 -352 -23 -168 0 -337 -4 -377 -8 -117 -13 -133 -44 -47 -93
109 -62 326 -73 567 -28 82 15 150 25 153 22 9 -8 124 -542 140 -647 24 -159
22 -337 -5 -435 -23 -84 -72 -185 -126 -260 -61 -86 -250 -304 -257 -297 -4 4
-34 68 -66 142 -81 186 -122 268 -138 274 -15 6 -18 -7 -34 -156 -17 -164 -61
-245 -153 -283 -22 -9 -106 -22 -195 -30 -175 -16 -236 -32 -277 -75 -39 -41
-86 -40 -185 5 -43 19 -92 35 -109 35 -28 0 -31 -3 -31 -33 0 -52 31 -90 111
-131 87 -46 193 -50 270 -10 65 33 141 49 304 63 114 10 189 32 225 67 43 40
105 56 216 55 150 0 213 -19 249 -75 10 -15 19 -66 25 -142 5 -66 21 -207 36
-316 29 -212 27 -251 -11 -296 -28 -33 -114 -81 -210 -117 -169 -64 -509 -91
-1015 -81 -676 13 -924 58 -1056 194 -75 77 -98 161 -109 397 -8 174 -32 319
-76 460 -64 207 -160 355 -229 355 -30 0 -59 -21 -88 -66 -10 -16 -12 1 -7
101 21 484 20 507 -34 620 -32 66 -98 138 -141 153 -21 8 -33 7 -50 -5 -19
-13 -21 -22 -17 -57 3 -23 17 -67 32 -99 39 -88 49 -216 42 -542 -11 -496 -63
-869 -152 -1086 -72 -175 -110 -343 -85 -379 8 -12 19 -5 64 44 30 32 61 56
68 54 25 -8 57 -69 72 -137 54 -237 47 -698 -18 -1251 -41 -346 -35 -410 65
-702 76 -223 81 -280 36 -444 -15 -55 -34 -148 -43 -205 -21 -147 -30 -535
-14 -663 51 -419 226 -697 545 -866 52 -28 67 -31 115 -27 118 11 300 119 444
265 130 131 217 259 289 422 49 114 117 163 222 163 49 -1 62 -5 77 -23 24
-30 23 -60 -12 -229 -62 -306 -126 -490 -270 -791 -120 -249 -177 -390 -286
-713 -99 -292 -166 -464 -281 -722 -105 -233 -144 -339 -187 -509 -49 -189
-69 -316 -70 -441 -1 -156 28 -216 80 -163 30 30 50 111 58 233 18 259 51 393
154 625 l47 104 7 -84 c10 -135 9 -399 -2 -511 -17 -168 -39 -266 -80 -358
-97 -218 -147 -479 -157 -821 -6 -214 5 -381 33 -520 37 -178 145 -454 295
-750 153 -304 272 -490 406 -633 95 -102 267 -354 308 -454 26 -61 20 -81 -24
-93 -83 -22 -213 26 -269 101 -44 58 -104 85 -222 100 -154 19 -509 0 -608
-32 -25 -8 -32 -16 -30 -31 12 -79 269 -128 503 -95 146 21 229 6 256 -44 17
-32 3 -64 -47 -108 -150 -132 -529 -104 -694 51 -182 171 -386 781 -465 1393
-8 66 -24 260 -35 430 -31 496 -64 752 -149 1142 -81 377 -86 415 -85 698 0
233 2 259 28 380 15 72 41 171 58 220 44 130 160 397 168 388 4 -4 33 -69 64
-143 109 -253 186 -383 217 -364 23 14 8 104 -55 336 -61 223 -86 466 -86 843
0 281 11 424 49 605 33 161 36 202 14 228 -11 14 -24 21 -33 17 -44 -16 -125
-225 -174 -445 -32 -143 -42 -217 -56 -395 -16 -202 -70 -452 -185 -860 -204
-725 -216 -903 -90 -1390 85 -327 129 -709 165 -1420 22 -435 39 -622 70 -776
20 -99 36 -146 104 -309 45 -109 63 -179 81 -313 19 -141 51 -203 159 -310
127 -125 259 -203 411 -243 104 -27 298 -25 435 5 268 58 595 203 668 296 27
34 28 66 2 140 -51 147 -193 380 -321 526 -125 142 -330 447 -437 650 -106
199 -190 461 -228 709 -25 158 -25 509 -1 670 24 161 59 309 117 495 107 347
135 523 155 980 8 182 19 369 25 416 29 247 84 491 165 734 66 200 104 292
215 526 144 301 209 520 249 834 29 221 74 375 116 392 80 30 277 -209 429
-521 85 -175 114 -270 131 -421 17 -151 47 -264 109 -409 87 -205 98 -331 53
-601 -42 -255 -50 -354 -44 -540 8 -235 29 -320 161 -623 148 -343 190 -564
190 -997 -1 -274 -7 -365 -54 -802 -30 -272 -38 -458 -25 -544 11 -70 53 -139
106 -172 76 -47 135 -57 389 -67 416 -17 565 -40 723 -110 108 -49 210 -82
327 -106 116 -25 409 -25 528 -1 338 69 543 221 530 395 -10 134 -121 256
-285 313 -31 10 -68 19 -83 19 -56 0 -134 33 -233 99 -158 106 -320 251 -769
686 l-176 172 -21 319 c-88 1344 -93 1456 -96 2279 -4 766 -8 945 -30 1215
-58 702 -66 886 -44 991 9 40 23 64 65 110 84 92 85 90 -33 342 -148 317 -255
619 -344 971 -78 309 -101 520 -79 724 18 164 7 206 -71 287 -66 69 -100 130
-128 235 -71 259 -86 729 -35 1050 19 122 24 142 89 341 62 187 80 291 70 394
-3 39 -26 178 -50 310 -72 389 -79 517 -31 588 40 60 85 68 223 42 43 -8 79
-15 81 -15 1 0 2 6 2 13 0 6 -32 41 -72 77 -85 76 -125 136 -134 199 -6 41
-27 81 -43 81 -3 0 -20 -8 -36 -18z m-2887 -2095 c33 -35 50 -85 66 -203 37
-267 45 -671 16 -804 -18 -83 -65 -162 -135 -229 -104 -100 -120 -88 -174 127
-68 269 -82 478 -40 583 32 81 57 172 80 294 11 61 29 130 40 155 41 93 102
125 147 77z m489 -1160 c145 -61 263 -92 468 -122 353 -51 838 -51 1135 1 19
4 116 26 215 51 277 69 343 65 450 -29 104 -92 124 -169 99 -390 -30 -275 -11
-392 108 -678 86 -208 125 -330 148 -470 24 -141 56 -239 130 -395 76 -161 82
-180 62 -198 -43 -37 -517 -336 -602 -379 -163 -83 -248 -93 -615 -74 -269 14
-342 -12 -242 -85 50 -37 162 -90 255 -122 53 -17 90 -22 172 -21 96 0 115 3
220 39 69 23 245 104 442 202 l328 162 0 -296 c0 -301 -12 -498 -35 -563 -11
-30 -16 -35 -42 -33 -43 4 -61 -22 -73 -104 -13 -96 -42 -170 -102 -258 -102
-154 -121 -149 -312 72 -89 102 -142 153 -161 153 -21 0 13 -101 77 -230 88
-176 150 -250 212 -250 65 0 117 36 288 197 99 94 136 115 163 93 20 -17 63
-92 81 -143 21 -59 19 -192 -6 -311 -37 -182 -44 -316 -44 -866 2 -993 62
-1843 148 -2098 117 -341 537 -844 918 -1099 122 -81 217 -121 327 -138 103
-16 142 -32 197 -79 44 -37 84 -109 84 -150 0 -83 -187 -169 -429 -198 -121
-14 -391 -4 -491 17 -41 9 -109 32 -150 50 -174 78 -396 117 -860 149 -118 9
-244 18 -279 22 l-64 6 7 176 c8 203 28 521 55 902 40 542 44 639 32 766 -14
139 -35 223 -98 377 -54 134 -55 136 -98 307 -99 397 -189 1068 -146 1094 5 3
17 -7 26 -22 43 -67 98 -108 129 -96 41 16 64 164 46 294 -13 92 -28 136 -66
191 -36 53 -80 188 -129 398 -24 103 -62 238 -85 300 -158 429 -453 908 -585
948 -87 26 -113 272 -41 383 13 19 38 50 57 68 40 40 203 120 309 153 69 21
81 30 155 104 67 66 90 98 134 185 43 86 54 118 58 172 5 58 3 67 -14 77 -41
22 -102 -33 -185 -169 -88 -142 -182 -215 -354 -276 -55 -19 -132 -46 -173
-61 -91 -32 -146 -79 -162 -135 -6 -22 -14 -99 -19 -172 -5 -72 -13 -145 -18
-161 -29 -95 -103 -177 -223 -248 -86 -50 -133 -64 -155 -46 -17 14 -16 48 4
209 19 146 -24 457 -89 651 -159 476 -481 697 -806 553 -92 -40 -165 -95 -298
-225 -71 -69 -140 -131 -151 -137 -21 -11 -22 -9 -27 81 -2 51 -17 166 -32
257 -25 150 -27 181 -22 345 8 256 44 435 87 435 36 0 50 -150 50 -561 0 -331
4 -392 24 -386 19 6 94 159 118 242 21 75 23 97 22 335 0 154 -7 336 -18 460
-20 235 -23 463 -7 533 19 82 52 137 123 207 84 83 137 113 195 107 22 -2 90
-25 150 -50z m129 -1758 c128 -75 252 -226 323 -394 137 -324 135 -810 -4
-1154 -61 -150 -112 -228 -220 -337 -158 -160 -293 -229 -445 -228 -108 1
-163 25 -246 108 -164 164 -250 544 -223 989 31 527 214 846 589 1027 85 41
143 38 226 -11z"/>
<path d="M4715 10719 c-22 -5 -103 -29 -180 -54 -290 -91 -455 -123 -690 -134
-266 -13 -422 5 -799 94 -274 64 -370 85 -397 85 -32 0 -102 -153 -176 -385
-28 -91 -34 -122 -31 -177 4 -82 17 -99 56 -78 39 22 84 103 126 230 21 61 46
126 57 145 41 70 101 85 235 60 179 -33 205 -49 185 -114 -27 -93 -170 -241
-371 -386 -163 -119 -250 -194 -272 -237 -26 -49 -17 -61 41 -56 147 14 554
307 664 478 91 141 119 150 532 170 406 18 815 100 1022 203 71 35 156 117
151 145 -2 13 -15 17 -58 19 -30 1 -73 -3 -95 -8z"/>
<path d="M4615 10183 c-11 -2 -162 -31 -335 -64 -463 -89 -650 -139 -800 -214
-61 -31 -140 -95 -140 -114 0 -32 113 -13 460 74 476 120 609 138 587 81 -9
-24 -112 -86 -292 -178 -180 -91 -345 -188 -420 -245 -43 -33 -50 -44 -50 -73
0 -27 4 -36 20 -38 11 -1 78 25 149 58 203 97 556 256 736 332 91 39 177 82
192 96 34 31 66 98 69 143 9 120 -11 150 -98 148 -32 -1 -67 -3 -78 -6z"/>
<path d="M4898 9535 c-11 -11 -173 -46 -323 -69 -88 -14 -342 -48 -565 -75
-557 -69 -832 -118 -869 -155 -23 -24 -6 -44 46 -52 165 -25 1036 60 1358 131
189 43 266 76 336 147 33 33 59 64 59 69 0 9 -33 13 -42 4z"/>
<path d="M5130 3161 c-40 -80 -51 -277 -19 -371 23 -70 96 -123 138 -100 30
15 27 57 -9 142 -38 89 -46 158 -30 252 14 85 5 116 -35 116 -19 0 -30 -10
-45 -39z"/>
<path d="M5473 13451 c6 -75 17 -118 83 -326 84 -261 100 -448 68 -757 -9 -83
-13 -166 -9 -185 8 -44 35 -43 73 3 124 150 103 671 -43 1057 -52 139 -133
277 -162 277 -14 0 -15 -10 -10 -69z"/>
<path d="M4419 13420 c-106 -32 -245 -126 -273 -184 -20 -42 -12 -64 23 -72
71 -14 98 -47 107 -131 7 -59 -12 -120 -46 -145 -16 -11 -54 -22 -100 -27 -96
-11 -144 -31 -200 -85 -54 -53 -124 -98 -245 -158 -235 -118 -294 -124 -411
-46 -81 54 -124 67 -148 43 -73 -74 107 -251 290 -284 77 -14 114 -3 173 52
138 129 645 362 864 397 99 15 206 -7 379 -81 90 -38 108 -33 108 33 0 108
-103 177 -297 199 -115 12 -158 32 -225 101 -89 92 -125 201 -75 232 32 20
109 34 233 42 60 4 115 10 123 14 10 5 0 17 -34 40 -89 61 -175 82 -246 60z"/>
<path d="M3824 13348 c-75 -49 -240 -220 -342 -356 -104 -137 -138 -190 -128
-199 11 -12 99 17 156 50 136 80 400 396 410 492 6 56 -23 60 -96 13z"/>
<path d="M1523 13249 c-61 -23 -153 -103 -177 -153 -20 -42 -21 -100 -2 -115
42 -35 292 145 312 225 6 21 2 31 -16 46 -28 23 -52 22 -117 -3z"/>
<path d="M2325 13051 c-64 -39 -94 -99 -95 -188 -1 -138 72 -188 307 -214 103
-11 248 -8 286 6 28 11 21 53 -16 90 -59 59 -162 77 -308 54 -39 -6 -81 -8
-95 -5 -31 8 -31 32 -3 152 12 50 19 99 16 108 -9 22 -54 21 -92 -3z"/>
<path d="M814 12469 c-39 -43 -16 -323 36 -444 56 -130 152 40 129 229 -10 78
-40 146 -89 197 -43 45 -50 47 -76 18z"/>
<path d="M2328 12460 c-110 -19 -137 -63 -76 -124 45 -45 119 -60 248 -53 158
9 282 60 254 105 -17 26 -70 54 -133 68 -60 15 -217 17 -293 4z"/>
<path d="M3131 12189 c-72 -12 -139 -52 -147 -86 -20 -77 189 -135 301 -84 23
10 53 33 68 51 36 42 33 78 -8 101 -37 22 -142 31 -214 18z"/>
<path d="M2577 11998 c-34 -12 -44 -46 -23 -86 28 -54 176 -162 276 -202 85
-34 185 -23 214 22 16 26 -10 64 -89 125 -138 108 -298 168 -378 141z"/>
<path d="M5213 11815 c-18 -49 50 -226 167 -431 90 -159 145 -240 276 -415
178 -237 240 -356 280 -544 38 -178 29 -350 -37 -671 -21 -105 -41 -222 -45
-260 -19 -205 104 -533 274 -732 37 -43 65 -63 148 -104 167 -81 214 -77 214
21 0 39 -5 49 -43 85 -26 25 -68 51 -107 65 -232 88 -289 337 -245 1087 15
257 17 333 7 445 -22 264 -95 430 -292 659 -179 210 -260 324 -375 530 -69
123 -121 203 -163 248 -33 35 -50 40 -59 17z"/>
<path d="M3400 11674 c0 -5 21 -39 46 -76 57 -82 62 -123 21 -183 -34 -50 -34
-76 2 -150 75 -155 255 -318 352 -318 84 0 76 25 -55 181 -112 134 -170 242
-186 347 -12 80 -44 149 -80 177 -27 20 -100 36 -100 22z"/>
<path d="M4323 11505 c-17 -14 -34 -39 -38 -56 -10 -43 3 -119 21 -126 17 -6
108 77 151 139 36 53 27 68 -44 68 -47 0 -64 -5 -90 -25z"/>
<path d="M1342 11255 c-16 -34 -15 -68 2 -110 19 -45 49 -60 88 -44 56 23 57
87 3 145 -40 42 -77 45 -93 9z"/>
<path d="M5494 10535 c-117 -59 -254 -204 -254 -270 0 -67 51 -73 139 -14 153
102 270 307 175 309 -5 0 -32 -11 -60 -25z"/>
<path d="M6229 10259 c-18 -18 -20 -28 -15 -63 7 -45 48 -113 72 -123 19 -7
30 8 45 61 28 100 -42 185 -102 125z"/>
<path d="M1582 9445 c-56 -72 -24 -304 64 -451 19 -33 46 -70 61 -82 24 -22
27 -23 36 -6 34 61 -52 491 -109 549 -21 21 -29 19 -52 -10z"/>
<path d="M1232 9094 c-31 -21 -29 -92 4 -186 28 -80 50 -112 58 -87 27 78 34
186 17 232 -10 25 -37 57 -49 57 -4 0 -18 -7 -30 -16z"/>
<path d="M2847 6759 c-246 -40 -456 -195 -457 -337 0 -36 25 -88 47 -96 18 -7
48 28 62 74 24 80 141 147 277 157 104 8 154 -2 224 -47 69 -46 86 -49 95 -19
11 35 -5 145 -28 191 -35 69 -110 95 -220 77z"/>
<path d="M2634 5981 c-45 -20 -59 -43 -44 -70 35 -67 244 -68 280 -2 37 70
-128 121 -236 72z"/>
<path d="M2399 2582 c-64 -43 -176 -199 -235 -330 -82 -178 -40 -264 72 -148
103 106 243 394 235 484 -1 18 -42 15 -72 -6z"/>
</g>
</svg>
