<svg id="svg" version="1.1" xmlns="http://www.w3.org/2000/svg" xmlns:xlink="http://www.w3.org/1999/xlink" width="400" height="289.39393939393943" viewBox="0, 0, 400,289.39393939393943"><g id="svgg"><path id="path0" d="M256.151 0.415 C 256.151 0.887,255.733 1.042,253.690 1.327 C 252.894 1.438,251.310 1.901,250.169 2.356 C 249.028 2.811,247.969 3.184,247.816 3.184 C 247.663 3.184,247.370 3.387,247.164 3.635 C 246.958 3.883,246.347 4.271,245.806 4.497 C 245.265 4.723,244.040 5.529,243.084 6.289 C 238.716 9.759,235.571 13.470,233.694 17.366 C 232.288 20.286,231.851 21.378,231.665 22.431 C 231.553 23.068,231.289 23.853,231.079 24.177 C 230.030 25.790,229.873 35.935,230.856 38.591 C 231.102 39.254,231.470 40.533,231.673 41.432 C 231.877 42.331,232.323 43.518,232.664 44.071 C 233.006 44.623,233.287 45.321,233.290 45.620 C 233.298 46.390,235.396 49.579,237.807 52.483 C 239.285 54.265,242.580 57.355,243.222 57.562 C 243.408 57.622,243.821 57.902,244.139 58.184 C 244.701 58.683,245.970 59.391,248.046 60.366 C 248.603 60.628,249.723 61.154,250.534 61.535 C 251.346 61.917,252.273 62.229,252.595 62.229 C 252.917 62.229,254.012 62.510,255.027 62.853 C 260.115 64.572,271.576 63.121,276.122 60.182 C 276.360 60.028,276.983 59.706,277.504 59.466 C 282.022 57.392,290.883 47.441,290.883 44.442 C 290.883 44.243,291.188 43.506,291.561 42.804 C 291.935 42.102,292.452 40.357,292.712 38.926 C 292.971 37.495,293.311 35.738,293.468 35.022 C 293.891 33.083,293.834 30.152,293.336 28.241 C 293.094 27.310,292.767 25.645,292.611 24.540 C 292.454 23.435,292.001 21.845,291.604 21.006 C 291.207 20.167,290.883 19.273,290.883 19.020 C 290.883 18.766,290.742 18.471,290.569 18.364 C 290.397 18.258,290.024 17.630,289.741 16.968 C 288.459 13.978,283.362 8.053,280.538 6.270 C 279.935 5.889,279.265 5.365,279.049 5.104 C 278.832 4.844,278.494 4.631,278.297 4.631 C 278.100 4.631,277.483 4.321,276.925 3.943 C 276.367 3.564,275.408 3.089,274.793 2.886 C 274.178 2.683,273.281 2.277,272.800 1.983 C 272.319 1.690,271.469 1.448,270.912 1.447 C 269.403 1.443,267.728 0.903,267.728 0.421 C 267.728 0.067,266.809 0.000,261.939 0.000 C 257.108 0.000,256.151 0.069,256.151 0.415 M42.949 21.414 C 42.135 21.535,40.832 21.837,40.054 22.085 C 39.276 22.332,37.988 22.668,37.192 22.832 C 36.397 22.996,35.229 23.396,34.599 23.721 C 33.968 24.046,33.252 24.315,33.007 24.318 C 32.596 24.323,31.424 25.017,29.001 26.691 C 25.967 28.787,22.421 32.387,20.652 35.166 C 18.568 38.439,18.271 38.971,18.067 39.799 C 17.949 40.276,17.615 41.125,17.325 41.686 C 17.035 42.246,16.665 43.354,16.503 44.146 C 16.341 44.938,16.018 46.433,15.785 47.467 C 15.416 49.100,15.359 62.745,15.350 150.804 C 15.341 242.150,15.295 252.323,14.890 252.902 C 14.448 253.532,14.314 253.546,8.338 253.546 C 4.553 253.546,1.813 253.673,1.119 253.881 L -0.000 254.216 -0.000 260.467 L -0.000 266.719 1.153 267.079 C 2.057 267.361,15.570 267.438,63.709 267.438 C 133.497 267.438,126.637 267.697,127.304 265.046 C 128.295 261.111,134.990 258.171,138.649 260.063 C 139.091 260.291,140.409 260.626,141.579 260.806 C 142.748 260.987,144.050 261.313,144.473 261.530 C 144.895 261.747,146.198 262.073,147.367 262.254 C 148.537 262.435,149.949 262.812,150.507 263.092 C 151.064 263.372,152.301 263.696,153.256 263.811 C 154.211 263.927,155.538 264.268,156.204 264.571 C 156.870 264.873,158.237 265.237,159.243 265.381 C 160.248 265.525,161.881 265.916,162.871 266.251 C 163.861 266.586,164.999 266.860,165.401 266.860 C 165.802 266.860,167.076 267.175,168.232 267.561 C 169.387 267.947,170.982 268.351,171.776 268.458 C 172.570 268.565,173.578 268.837,174.015 269.064 C 174.453 269.290,175.847 269.672,177.115 269.912 C 178.382 270.152,179.877 270.541,180.438 270.775 C 182.177 271.502,182.670 271.344,184.040 269.628 C 185.795 267.428,185.738 267.438,196.404 267.438 L 205.747 267.438 206.347 268.201 C 206.868 268.864,206.946 269.366,206.946 272.051 C 206.946 274.066,207.067 275.258,207.294 275.485 C 207.799 275.990,316.079 275.990,316.585 275.485 C 316.814 275.255,316.933 274.003,316.936 271.795 C 316.939 269.956,317.064 268.256,317.215 268.017 C 317.968 266.825,338.929 267.380,338.929 268.592 C 338.929 269.076,341.214 271.201,341.734 271.201 C 342.052 271.201,343.023 270.956,343.893 270.657 C 344.762 270.358,346.052 270.022,346.760 269.910 C 347.467 269.799,348.980 269.392,350.121 269.007 C 351.262 268.622,352.630 268.304,353.160 268.300 C 353.690 268.297,354.709 268.029,355.423 267.705 C 356.137 267.381,357.580 267.008,358.629 266.876 C 359.678 266.745,360.957 266.419,361.471 266.154 C 361.985 265.888,363.355 265.564,364.514 265.434 C 365.673 265.304,366.959 264.976,367.372 264.706 C 367.784 264.436,369.140 264.036,370.385 263.818 C 371.630 263.600,373.365 263.157,374.240 262.834 C 375.116 262.512,376.264 262.243,376.791 262.238 C 377.319 262.233,378.361 261.981,379.107 261.678 C 379.853 261.375,381.440 260.934,382.634 260.698 C 383.828 260.461,385.391 260.045,386.107 259.772 C 387.843 259.112,390.097 259.351,392.246 260.425 C 393.723 261.162,394.322 261.675,396.241 263.837 C 396.531 264.164,396.858 264.908,396.968 265.491 C 397.229 266.884,397.689 267.229,398.965 266.989 L 400.000 266.795 400.000 260.494 C 400.000 254.221,399.997 254.191,399.349 253.957 C 398.991 253.828,393.385 253.650,386.892 253.561 C 373.817 253.384,374.721 253.541,374.368 251.381 C 374.264 250.741,373.933 249.631,373.633 248.915 C 373.333 248.198,372.965 246.724,372.815 245.639 C 372.665 244.553,372.394 243.487,372.213 243.269 C 372.032 243.051,371.701 241.822,371.476 240.536 C 371.252 239.251,370.869 237.814,370.625 237.342 C 370.381 236.871,369.991 235.489,369.758 234.272 C 369.525 233.056,369.202 231.900,369.041 231.705 C 368.879 231.510,368.540 230.263,368.288 228.933 C 368.035 227.603,367.659 226.182,367.451 225.775 C 367.243 225.369,366.915 224.059,366.721 222.865 C 366.528 221.671,366.205 220.434,366.005 220.116 C 365.804 219.797,365.486 218.649,365.298 217.564 C 365.109 216.479,364.699 214.944,364.388 214.152 C 364.076 213.361,363.821 212.454,363.821 212.136 C 363.821 211.819,363.542 210.749,363.202 209.759 C 362.862 208.769,362.422 207.243,362.225 206.368 C 361.593 203.562,360.654 199.909,360.068 197.974 C 359.463 195.979,358.539 192.505,357.913 189.870 C 357.705 188.994,357.265 187.366,356.936 186.252 C 356.606 185.137,356.208 183.575,356.050 182.779 C 355.567 180.334,354.536 177.058,353.806 175.645 C 353.424 174.905,353.111 174.117,353.111 173.893 C 353.111 173.385,348.268 168.162,347.797 168.162 C 347.607 168.162,347.131 167.934,346.739 167.656 C 346.076 167.184,343.716 166.262,341.179 165.483 C 340.445 165.258,339.843 165.242,339.297 165.434 L 338.495 165.716 338.350 195.810 C 338.222 222.557,338.154 226.017,337.743 226.918 C 337.260 227.977,335.120 230.101,334.537 230.101 C 333.126 230.101,333.092 231.267,334.384 235.311 C 334.914 236.967,335.695 239.957,336.085 241.823 C 336.252 242.619,336.580 243.857,336.815 244.573 C 337.049 245.289,337.494 246.963,337.803 248.293 C 338.113 249.622,338.560 251.085,338.797 251.544 C 339.198 252.319,339.184 252.422,338.611 252.996 C 337.433 254.173,335.894 253.672,332.640 251.052 C 329.542 248.557,327.213 246.889,326.830 246.889 C 326.695 246.889,326.278 246.563,325.904 246.165 C 325.531 245.767,324.995 245.441,324.713 245.441 C 324.432 245.441,324.120 245.309,324.020 245.146 C 323.919 244.984,323.108 244.482,322.216 244.031 L 320.595 243.212 321.977 242.684 C 325.285 241.421,325.985 239.757,325.855 233.476 C 325.745 228.158,325.705 228.081,322.784 227.487 C 321.874 227.302,320.412 226.909,319.537 226.614 C 314.606 224.955,313.749 225.165,313.746 228.038 C 313.746 229.093,313.660 231.039,313.557 232.362 L 313.370 234.767 311.977 235.473 C 311.211 235.862,310.415 236.179,310.209 236.179 C 309.844 236.179,306.483 237.811,304.517 238.942 C 302.582 240.056,299.242 243.053,297.097 245.600 C 294.400 248.802,294.511 248.659,294.068 249.512 C 293.097 251.379,291.833 253.060,291.227 253.290 C 289.808 253.830,269.888 253.603,269.199 253.039 L 268.579 252.533 268.660 233.243 C 268.738 214.742,268.763 213.929,269.292 213.344 C 269.839 212.740,269.969 212.735,284.632 212.731 C 293.444 212.728,299.597 212.615,299.855 212.452 C 300.236 212.211,300.307 208.030,300.434 178.637 C 300.540 154.035,300.667 144.988,300.911 144.690 C 301.093 144.466,301.405 143.737,301.603 143.069 C 302.611 139.673,308.304 138.206,312.395 140.287 C 312.845 140.516,314.147 140.879,315.290 141.095 C 316.432 141.310,317.887 141.687,318.524 141.932 C 319.949 142.480,320.821 142.515,321.210 142.041 C 321.571 141.600,321.164 131.293,320.709 129.359 C 320.543 128.653,320.207 125.991,319.963 123.444 C 319.718 120.897,319.277 117.967,318.983 116.932 C 318.689 115.897,318.315 113.876,318.152 112.441 C 317.989 111.006,317.660 109.378,317.422 108.823 C 317.183 108.269,316.827 106.903,316.632 105.789 C 316.436 104.674,316.116 103.437,315.921 103.039 C 315.725 102.641,315.479 101.750,315.373 101.059 C 315.267 100.368,314.942 99.326,314.652 98.743 C 314.361 98.161,313.965 97.033,313.772 96.237 C 313.579 95.441,313.254 94.530,313.050 94.211 C 312.845 93.893,312.510 93.111,312.305 92.475 C 312.099 91.838,311.712 90.991,311.443 90.593 C 311.175 90.195,310.777 89.414,310.559 88.857 C 310.341 88.300,309.954 87.518,309.700 87.120 C 309.156 86.268,308.706 85.543,308.024 84.419 C 305.732 80.648,299.571 74.751,297.357 74.210 C 296.901 74.099,296.159 73.702,295.709 73.328 C 295.191 72.898,294.516 72.648,293.869 72.648 C 293.307 72.648,292.089 72.452,291.161 72.211 C 288.486 71.518,234.417 71.708,231.221 72.421 C 228.882 72.944,223.859 75.358,222.576 76.576 C 219.470 79.525,218.321 80.677,217.945 81.218 C 215.568 84.641,213.963 87.188,213.250 88.670 C 210.819 93.718,209.492 96.940,209.118 98.698 C 208.999 99.255,208.668 100.174,208.381 100.740 C 208.095 101.306,207.733 102.686,207.578 103.808 C 207.422 104.930,207.098 106.229,206.856 106.696 C 206.615 107.163,206.258 108.647,206.063 109.995 C 205.869 111.343,205.478 113.177,205.195 114.070 C 204.912 114.963,204.591 116.917,204.482 118.411 C 204.372 119.906,204.033 122.106,203.728 123.300 C 203.354 124.766,203.075 127.396,202.869 131.404 C 202.701 134.667,202.388 138.312,202.172 139.505 C 201.623 142.540,202.516 143.163,205.535 141.852 C 206.232 141.549,207.518 141.208,208.394 141.094 C 209.269 140.980,210.449 140.652,211.015 140.365 C 214.785 138.454,219.371 139.250,221.768 142.231 L 222.721 143.415 222.865 177.713 C 222.945 196.577,223.116 212.174,223.244 212.373 C 223.427 212.655,226.855 212.735,238.773 212.735 L 254.068 212.735 254.386 213.647 C 254.815 214.879,254.833 252.184,254.404 252.986 C 254.116 253.524,253.686 253.546,243.311 253.546 L 232.518 253.546 231.828 252.812 C 231.449 252.408,230.808 251.505,230.403 250.805 C 228.000 246.649,223.468 241.629,220.581 239.925 C 219.689 239.398,218.698 238.746,218.379 238.475 C 218.061 238.204,217.475 237.885,217.077 237.765 C 216.679 237.645,216.061 237.319,215.704 237.041 C 215.348 236.762,214.571 236.443,213.978 236.332 C 212.785 236.108,211.413 235.478,210.637 234.797 C 210.201 234.415,210.130 233.803,210.130 230.404 C 210.130 225.230,209.692 224.911,204.721 226.468 C 203.478 226.857,201.708 227.323,200.788 227.503 C 198.247 228.000,198.210 228.107,198.318 234.695 L 198.408 240.205 199.527 241.350 C 200.205 242.045,201.027 242.567,201.615 242.677 C 203.116 242.959,203.072 243.374,201.469 244.040 C 200.661 244.376,200.000 244.753,200.000 244.879 C 200.000 245.004,199.560 245.252,199.022 245.430 C 198.484 245.607,197.813 246.008,197.530 246.321 C 197.247 246.633,196.841 246.889,196.627 246.889 C 196.413 246.889,196.004 247.116,195.719 247.395 C 195.434 247.674,194.053 248.748,192.649 249.783 C 191.245 250.818,189.883 251.902,189.622 252.191 C 189.010 252.870,187.411 253.546,186.419 253.546 C 184.826 253.546,184.562 252.353,185.532 249.549 C 185.852 248.623,186.304 247.027,186.535 246.002 C 187.540 241.548,188.233 238.859,188.620 237.904 C 188.848 237.341,189.293 235.778,189.609 234.431 C 189.924 233.084,190.253 231.715,190.339 231.388 C 190.455 230.945,190.299 230.705,189.727 230.444 C 188.226 229.760,186.795 228.342,185.951 226.701 L 185.094 225.036 185.054 195.415 C 185.010 163.429,185.107 165.108,183.310 165.355 C 178.538 166.010,173.517 169.132,171.433 172.740 C 171.002 173.485,170.549 174.166,170.426 174.253 C 170.087 174.492,168.774 178.434,168.167 181.042 C 167.870 182.315,167.422 183.842,167.171 184.434 C 166.920 185.025,166.715 185.908,166.715 186.394 C 166.715 186.881,166.449 188.025,166.124 188.936 C 165.799 189.848,165.351 191.375,165.128 192.330 C 164.904 193.285,164.463 194.978,164.148 196.093 C 163.574 198.118,163.387 198.824,162.346 202.894 C 162.041 204.088,161.600 205.716,161.367 206.512 C 160.885 208.154,159.994 211.560,159.207 214.761 C 158.914 215.955,158.480 217.388,158.243 217.945 C 158.006 218.502,157.659 219.858,157.471 220.958 C 157.284 222.058,156.950 223.308,156.729 223.735 C 156.508 224.162,156.240 225.216,156.133 226.076 C 156.026 226.937,155.694 228.208,155.397 228.900 C 155.099 229.593,154.716 231.026,154.547 232.084 C 154.377 233.143,154.038 234.375,153.793 234.822 C 153.548 235.269,153.167 236.669,152.947 237.934 C 152.726 239.198,152.358 240.525,152.128 240.883 C 151.899 241.241,151.621 242.315,151.511 243.271 C 151.402 244.226,151.061 245.587,150.755 246.295 C 150.449 247.004,150.084 248.391,149.944 249.377 C 149.685 251.207,149.329 252.138,148.543 253.039 C 147.913 253.761,135.674 253.811,134.652 253.095 L 134.009 252.644 134.006 152.010 C 134.004 43.936,134.039 46.618,132.584 43.410 C 132.260 42.697,131.992 41.918,131.988 41.679 C 131.984 41.440,131.591 40.463,131.114 39.508 C 130.638 38.553,130.248 37.629,130.247 37.454 C 130.247 37.280,129.986 36.902,129.667 36.614 C 129.349 36.325,129.088 35.959,129.088 35.800 C 129.088 35.549,127.562 33.423,126.194 31.768 C 122.946 27.839,115.697 23.397,111.205 22.583 C 110.204 22.401,108.836 22.033,108.165 21.763 C 106.849 21.234,46.328 20.910,42.949 21.414 M55.803 42.894 C 56.342 43.433,56.287 167.814,55.748 168.524 C 55.410 168.968,54.807 169.030,50.822 169.030 C 44.614 169.030,44.573 169.053,44.573 172.483 L 44.573 175.052 45.485 175.370 C 45.996 175.548,48.383 175.687,50.926 175.687 C 56.165 175.687,56.151 175.681,56.151 178.080 C 56.151 180.975,56.301 180.897,50.705 180.897 C 44.442 180.897,44.573 180.821,44.573 184.485 C 44.573 187.917,44.437 187.844,50.752 187.844 C 56.211 187.844,56.151 187.816,56.151 190.326 C 56.151 192.736,56.212 192.710,50.405 192.817 C 44.439 192.926,44.573 192.849,44.573 196.198 C 44.573 199.458,44.508 199.421,50.312 199.421 C 56.126 199.421,56.151 199.433,56.151 202.302 C 56.151 204.967,56.247 204.920,50.757 204.920 C 44.424 204.920,44.573 204.846,44.573 208.002 C 44.573 211.243,44.831 211.577,47.332 211.577 C 49.668 211.577,51.160 212.188,51.403 213.243 C 51.504 213.680,51.907 214.515,52.298 215.098 C 52.746 215.764,52.975 216.462,52.916 216.979 L 52.822 217.800 44.929 217.877 L 37.037 217.954 36.751 217.202 C 36.564 216.711,36.491 187.464,36.539 133.044 L 36.614 49.638 37.613 47.902 C 38.603 46.182,40.655 43.994,41.278 43.994 C 41.455 43.994,41.916 43.746,42.301 43.444 C 43.445 42.544,54.983 42.074,55.803 42.894 M89.088 42.894 C 89.583 43.389,89.594 167.207,89.100 168.293 L 88.764 169.030 74.929 169.030 L 61.093 169.030 60.503 168.397 C 59.642 167.472,59.559 43.361,60.420 42.860 C 61.195 42.408,88.635 42.442,89.088 42.894 M106.837 43.360 C 110.030 44.950,111.779 47.043,112.601 50.260 C 113.384 53.319,113.509 215.291,112.730 216.797 C 112.138 217.943,111.895 217.976,104.920 217.882 L 98.842 217.800 98.751 216.686 C 98.683 215.859,98.851 215.295,99.402 214.499 C 99.810 213.910,100.145 213.223,100.145 212.972 C 100.145 212.227,100.871 211.843,102.494 211.731 C 104.510 211.592,104.776 211.195,104.776 208.319 C 104.776 204.768,105.021 204.921,99.339 204.916 C 93.441 204.911,93.092 204.793,92.963 202.762 C 92.761 199.591,93.090 199.421,99.425 199.421 C 104.999 199.421,104.776 199.560,104.776 196.093 C 104.776 192.611,105.033 192.764,99.186 192.764 C 93.057 192.764,92.909 192.702,92.909 190.136 C 92.909 187.888,93.031 187.844,99.237 187.844 C 102.619 187.844,104.186 187.739,104.428 187.496 C 104.852 187.073,104.901 182.711,104.493 181.640 L 104.211 180.897 99.409 180.897 C 93.279 180.897,92.921 180.743,92.913 178.092 C 92.906 175.783,93.157 175.687,99.186 175.687 C 105.042 175.687,104.781 175.846,104.766 172.306 C 104.753 168.939,104.908 169.030,99.211 169.030 C 94.817 169.030,94.373 168.982,93.671 168.431 L 92.909 167.831 92.909 105.469 L 92.909 43.107 93.560 42.845 C 95.343 42.129,105.126 42.508,106.837 43.360 M214.569 142.672 C 213.906 142.780,213.183 143.019,212.962 143.202 C 212.741 143.386,211.590 143.688,210.405 143.875 C 209.219 144.061,207.949 144.400,207.583 144.627 C 207.217 144.854,205.864 145.225,204.575 145.451 C 203.287 145.678,201.945 146.052,201.593 146.283 C 201.241 146.513,200.041 146.828,198.927 146.983 C 197.814 147.137,196.520 147.461,196.053 147.702 C 195.586 147.944,194.688 148.233,194.057 148.344 C 192.388 148.638,189.712 151.299,189.136 153.236 C 188.429 155.616,188.507 223.478,189.219 224.864 C 190.454 227.268,192.949 227.639,196.610 225.961 L 197.996 225.326 198.058 194.839 C 198.125 161.172,197.994 163.531,199.795 163.531 C 200.098 163.531,200.757 163.345,201.259 163.117 C 201.760 162.889,203.182 162.501,204.417 162.255 C 205.653 162.008,207.062 161.600,207.550 161.348 C 208.858 160.671,210.017 161.011,210.242 162.136 C 210.340 162.625,210.420 176.138,210.420 192.166 C 210.420 224.913,210.269 222.737,212.481 221.933 C 213.178 221.680,214.084 221.399,214.495 221.308 C 215.838 221.010,217.707 219.244,218.717 217.319 L 219.679 215.485 219.680 180.806 C 219.681 155.735,219.592 145.952,219.357 145.495 C 218.725 144.265,216.385 142.220,215.861 142.439 C 215.813 142.458,215.232 142.563,214.569 142.672 M307.525 142.651 C 306.529 142.989,304.838 144.144,304.584 144.659 C 304.241 145.357,304.110 213.322,304.449 215.504 C 304.747 217.428,305.818 219.302,306.967 219.908 C 307.354 220.112,307.670 220.389,307.670 220.524 C 307.670 221.092,312.764 222.518,313.208 222.074 C 313.407 221.876,313.521 211.799,313.554 191.631 C 313.608 158.501,313.478 160.724,315.340 161.105 C 315.818 161.203,316.351 161.397,316.525 161.536 C 316.699 161.676,318.001 162.043,319.419 162.352 C 320.837 162.661,322.648 163.130,323.444 163.395 C 324.240 163.660,325.054 163.925,325.253 163.984 C 325.540 164.069,325.615 170.442,325.615 194.591 C 325.615 229.191,325.318 225.547,328.220 226.494 C 331.258 227.485,334.089 226.629,334.759 224.518 C 334.871 224.166,334.965 208.028,334.970 188.656 L 334.978 153.432 334.151 152.187 C 332.913 150.318,331.153 148.799,329.830 148.455 C 329.183 148.287,328.284 147.963,327.832 147.735 C 327.380 147.507,326.078 147.176,324.938 146.999 C 323.798 146.823,322.410 146.450,321.852 146.170 C 321.295 145.890,320.080 145.568,319.153 145.455 C 318.225 145.342,316.793 144.936,315.969 144.552 C 315.146 144.169,313.951 143.851,313.314 143.846 C 312.677 143.841,311.620 143.593,310.965 143.296 C 309.479 142.621,308.277 142.396,307.525 142.651 M202.826 172.957 C 201.189 173.845,200.435 177.014,201.564 178.262 C 203.604 180.516,208.478 176.771,207.346 173.819 C 206.891 172.634,204.323 172.144,202.826 172.957 M317.182 172.781 C 315.945 173.547,316.352 176.742,317.849 178.023 C 321.200 180.890,324.889 176.853,321.770 173.733 C 320.664 172.628,318.241 172.125,317.182 172.781 M89.088 176.035 C 89.514 176.460,89.548 179.567,89.136 180.337 C 88.658 181.230,61.544 181.208,60.408 180.314 C 59.538 179.630,59.558 176.747,60.437 176.049 C 61.082 175.536,88.576 175.522,89.088 176.035 M89.088 188.191 C 89.283 188.385,89.436 189.317,89.436 190.304 C 89.436 191.291,89.283 192.223,89.088 192.417 C 88.475 193.030,61.126 192.904,60.442 192.285 C 59.699 191.613,59.683 188.586,60.420 188.156 C 61.195 187.705,88.635 187.738,89.088 188.191 M88.857 200.000 C 89.506 200.649,89.679 203.346,89.136 204.361 C 88.718 205.141,61.662 205.245,60.556 204.470 C 59.633 203.823,59.625 201.068,60.542 200.091 L 61.172 199.421 74.725 199.421 C 87.892 199.421,88.294 199.438,88.857 200.000 M202.700 204.049 C 200.792 205.453,200.408 207.652,201.770 209.383 C 202.852 210.759,205.507 209.854,206.784 207.673 C 208.702 204.401,205.765 201.795,202.700 204.049 M317.612 203.471 C 316.066 204.095,316.163 207.406,317.767 208.756 C 319.323 210.064,320.342 210.313,321.532 209.676 C 324.954 207.844,321.262 201.999,317.612 203.471 M83.492 212.065 C 84.055 212.333,84.515 212.697,84.515 212.872 C 84.515 213.048,84.790 213.708,85.125 214.338 C 85.991 215.966,86.285 217.581,85.752 217.785 C 85.220 217.990,66.172 217.996,65.640 217.792 C 65.089 217.581,65.331 215.705,66.039 214.702 C 66.343 214.271,66.729 213.522,66.898 213.038 C 67.343 211.762,68.141 211.633,75.750 211.604 C 81.490 211.581,82.619 211.649,83.492 212.065 M55.842 229.355 C 56.394 230.020,56.145 241.613,55.572 241.975 C 54.597 242.590,37.689 242.320,37.048 241.679 C 36.213 240.844,36.148 229.738,36.975 229.256 C 37.836 228.755,55.421 228.847,55.842 229.355 M88.964 229.314 C 89.771 229.904,89.558 241.242,88.729 241.847 C 87.894 242.457,61.455 242.457,60.620 241.847 C 60.101 241.468,60.051 240.987,59.969 235.531 L 59.881 229.625 60.548 229.304 C 61.576 228.809,88.286 228.819,88.964 229.314 M112.113 229.266 C 113.863 230.063,113.634 241.395,111.854 242.078 C 110.983 242.412,94.722 242.280,93.960 241.933 C 92.981 241.487,92.917 241.084,92.913 235.294 C 92.909 230.125,93.023 229.517,94.067 229.144 C 94.957 228.826,111.391 228.937,112.113 229.266 M218.983 249.537 C 223.050 253.480,222.944 253.546,212.468 253.546 C 201.069 253.546,200.801 253.235,209.117 249.669 C 215.393 246.978,216.332 246.966,218.983 249.537 M309.758 248.023 C 310.599 248.329,311.725 248.668,312.259 248.776 C 312.793 248.885,313.835 249.272,314.575 249.636 C 315.314 250.000,316.863 250.735,318.017 251.270 C 320.127 252.249,320.409 252.558,319.768 253.198 C 319.316 253.650,303.569 253.694,302.731 253.246 C 301.810 252.753,302.059 252.272,304.508 249.814 C 307.100 247.212,307.318 247.137,309.758 248.023 M133.207 263.459 C 132.128 263.805,130.244 265.742,130.250 266.499 C 130.253 266.777,129.975 267.862,129.634 268.911 L 129.014 270.818 129.797 272.564 C 130.993 275.228,132.389 275.968,138.929 277.404 C 139.964 277.632,141.352 278.017,142.014 278.261 C 142.676 278.506,143.978 278.830,144.908 278.983 C 145.838 279.136,147.065 279.459,147.634 279.700 C 148.203 279.942,149.570 280.294,150.673 280.483 C 151.775 280.672,153.003 280.984,153.401 281.177 C 153.799 281.371,155.101 281.695,156.295 281.899 C 157.489 282.103,158.799 282.440,159.205 282.647 C 159.612 282.854,160.979 283.221,162.244 283.462 C 163.509 283.704,165.000 284.088,165.557 284.318 C 166.114 284.547,167.436 284.882,168.495 285.063 C 169.553 285.243,170.986 285.634,171.679 285.933 C 172.371 286.231,173.769 286.563,174.786 286.672 C 175.802 286.780,176.909 287.049,177.246 287.269 C 177.583 287.489,178.444 287.750,179.161 287.848 C 181.791 288.208,183.213 288.623,183.213 289.030 C 183.213 289.348,183.778 289.436,185.818 289.436 C 187.778 289.436,188.423 289.341,188.423 289.055 C 188.423 288.845,188.917 288.396,189.520 288.057 C 190.429 287.546,190.753 287.094,191.402 285.434 C 193.432 280.237,191.582 276.793,186.228 275.803 C 185.303 275.632,184.083 275.310,183.517 275.088 C 182.952 274.866,181.536 274.486,180.372 274.245 C 179.207 274.004,177.986 273.662,177.658 273.487 C 177.329 273.311,176.034 272.988,174.779 272.769 C 173.525 272.550,172.108 272.169,171.631 271.923 C 171.154 271.676,169.876 271.363,168.790 271.226 C 167.704 271.090,166.415 270.771,165.925 270.518 C 165.435 270.265,164.077 269.910,162.908 269.729 C 161.738 269.548,160.402 269.205,159.939 268.967 C 159.475 268.728,158.050 268.350,156.771 268.127 C 155.493 267.904,154.146 267.524,153.778 267.283 C 153.411 267.042,152.133 266.721,150.939 266.570 C 149.745 266.419,148.385 266.097,147.917 265.855 C 147.449 265.613,146.203 265.292,145.147 265.143 C 144.092 264.993,142.554 264.614,141.730 264.301 C 138.989 263.257,135.052 262.868,133.207 263.459 M384.949 263.559 C 383.755 263.772,382.436 264.143,382.017 264.386 C 381.598 264.628,380.311 264.960,379.157 265.124 C 378.003 265.287,376.653 265.612,376.156 265.845 C 375.660 266.079,374.386 266.391,373.327 266.539 C 372.268 266.687,370.827 267.062,370.125 267.373 C 369.423 267.683,368.075 268.032,367.130 268.149 C 366.186 268.265,364.826 268.603,364.110 268.901 C 363.394 269.198,361.962 269.588,360.928 269.768 C 359.895 269.947,358.592 270.289,358.034 270.527 C 357.476 270.766,356.172 271.082,355.137 271.231 C 354.103 271.380,352.605 271.748,351.809 272.048 C 351.013 272.348,349.515 272.747,348.480 272.936 C 347.446 273.124,346.450 273.402,346.268 273.552 C 346.086 273.703,344.848 274.031,343.518 274.282 C 342.188 274.532,340.759 274.912,340.343 275.127 C 339.926 275.342,338.799 275.644,337.839 275.799 C 335.527 276.171,333.997 276.989,332.812 278.488 C 330.891 280.915,331.835 286.488,334.427 288.017 C 334.993 288.351,335.456 288.807,335.456 289.030 C 335.456 289.745,340.844 289.603,341.032 288.883 C 341.149 288.435,341.550 288.293,343.164 288.129 C 344.257 288.018,345.689 287.695,346.345 287.411 C 347.001 287.128,348.369 286.802,349.384 286.687 C 350.399 286.571,351.946 286.183,352.822 285.823 C 353.698 285.463,355.129 285.079,356.002 284.968 C 356.876 284.857,358.002 284.571,358.504 284.333 C 359.006 284.095,360.506 283.660,361.836 283.366 C 363.166 283.073,364.971 282.632,365.847 282.387 C 368.118 281.751,370.807 281.092,373.778 280.444 C 375.196 280.134,376.498 279.763,376.673 279.619 C 376.847 279.474,377.830 279.204,378.858 279.018 C 379.885 278.832,381.318 278.476,382.041 278.228 C 382.765 277.980,384.334 277.546,385.528 277.265 C 393.726 275.333,394.975 274.100,394.221 268.681 C 394.057 267.497,393.922 266.491,393.922 266.445 C 393.922 266.400,393.475 265.798,392.929 265.108 C 391.364 263.130,389.452 262.759,384.949 263.559 M209.561 278.570 C 207.805 280.686,208.977 281.854,212.941 281.939 C 217.109 282.028,217.882 281.413,216.635 279.002 L 216.194 278.148 213.053 278.148 C 210.651 278.148,209.829 278.247,209.561 278.570 M307.381 278.520 C 306.538 278.945,306.158 281.218,306.855 281.660 C 307.403 282.008,313.392 281.966,314.057 281.611 C 315.021 281.094,314.831 279.142,313.763 278.589 C 312.701 278.040,308.426 277.994,307.381 278.520 " stroke="none" fill="#070707" fill-rule="evenodd"></path><path id="path1" d="M-0.000 127.096 L -0.000 254.192 0.651 253.959 C 1.009 253.832,4.233 253.683,7.815 253.629 C 13.999 253.536,14.353 253.501,14.834 252.927 C 15.314 252.355,15.341 247.060,15.350 150.836 C 15.359 62.749,15.416 49.100,15.785 47.467 C 16.018 46.433,16.341 44.938,16.503 44.146 C 16.665 43.354,17.035 42.246,17.325 41.686 C 17.615 41.125,17.949 40.276,18.067 39.799 C 18.271 38.971,18.568 38.439,20.652 35.166 C 22.421 32.387,25.967 28.787,29.001 26.691 C 31.424 25.017,32.596 24.323,33.007 24.318 C 33.252 24.315,33.968 24.046,34.599 23.721 C 35.229 23.396,36.397 22.993,37.192 22.826 C 37.988 22.659,39.551 22.241,40.666 21.898 C 43.837 20.921,105.558 20.913,108.538 21.890 C 109.573 22.229,111.006 22.594,111.722 22.702 C 114.889 23.177,121.674 27.126,124.891 30.368 C 126.423 31.910,129.088 35.360,129.088 35.800 C 129.088 35.959,129.349 36.325,129.667 36.614 C 129.986 36.902,130.247 37.280,130.247 37.454 C 130.248 37.629,130.638 38.553,131.114 39.508 C 131.591 40.463,131.984 41.440,131.988 41.679 C 131.992 41.918,132.260 42.697,132.584 43.410 C 134.039 46.618,134.004 43.936,134.006 152.010 L 134.009 252.644 134.652 253.095 C 135.674 253.811,147.913 253.761,148.543 253.039 C 149.329 252.138,149.685 251.207,149.944 249.377 C 150.084 248.391,150.449 247.004,150.755 246.295 C 151.061 245.587,151.402 244.226,151.511 243.271 C 151.621 242.315,151.899 241.241,152.128 240.883 C 152.358 240.525,152.726 239.198,152.947 237.934 C 153.167 236.669,153.548 235.269,153.793 234.822 C 154.038 234.375,154.377 233.143,154.547 232.084 C 154.716 231.026,155.099 229.593,155.397 228.900 C 155.694 228.208,156.026 226.937,156.133 226.076 C 156.240 225.216,156.508 224.162,156.729 223.735 C 156.950 223.308,157.284 222.058,157.471 220.958 C 157.659 219.858,158.006 218.502,158.243 217.945 C 158.480 217.388,158.914 215.955,159.207 214.761 C 159.994 211.560,160.885 208.154,161.367 206.512 C 161.600 205.716,162.041 204.088,162.346 202.894 C 163.387 198.824,163.574 198.118,164.148 196.093 C 164.463 194.978,164.904 193.285,165.128 192.330 C 165.351 191.375,165.799 189.848,166.124 188.936 C 166.449 188.025,166.715 186.881,166.715 186.394 C 166.715 185.908,166.920 185.025,167.171 184.434 C 167.422 183.842,167.870 182.315,168.167 181.042 C 168.774 178.434,170.087 174.492,170.426 174.253 C 170.549 174.166,171.002 173.485,171.433 172.740 C 173.517 169.132,178.538 166.010,183.310 165.355 C 185.107 165.108,185.010 163.429,185.054 195.415 L 185.094 225.036 185.951 226.701 C 186.795 228.342,188.226 229.760,189.727 230.444 C 190.299 230.705,190.455 230.945,190.339 231.388 C 190.253 231.715,189.924 233.084,189.609 234.431 C 189.293 235.778,188.848 237.341,188.620 237.904 C 188.233 238.859,187.540 241.548,186.535 246.002 C 186.304 247.027,185.852 248.623,185.532 249.549 C 184.562 252.353,184.826 253.546,186.419 253.546 C 187.411 253.546,189.010 252.870,189.622 252.191 C 189.883 251.902,191.245 250.818,192.649 249.783 C 194.053 248.748,195.434 247.674,195.719 247.395 C 196.004 247.116,196.413 246.889,196.627 246.889 C 196.841 246.889,197.247 246.633,197.530 246.321 C 197.813 246.008,198.484 245.607,199.022 245.430 C 199.560 245.252,200.000 245.004,200.000 244.879 C 200.000 244.753,200.661 244.376,201.469 244.040 C 203.072 243.374,203.116 242.959,201.615 242.677 C 201.027 242.567,200.205 242.045,199.527 241.350 L 198.408 240.205 198.318 234.695 C 198.210 228.107,198.247 228.000,200.788 227.503 C 201.708 227.323,203.478 226.857,204.721 226.468 C 209.692 224.911,210.130 225.230,210.130 230.404 C 210.130 233.803,210.201 234.415,210.637 234.797 C 211.413 235.478,212.785 236.108,213.978 236.332 C 214.571 236.443,215.348 236.762,215.704 237.041 C 216.061 237.319,216.679 237.645,217.077 237.765 C 217.475 237.885,218.061 238.204,218.379 238.475 C 218.698 238.746,219.689 239.398,220.581 239.925 C 223.468 241.629,228.000 246.649,230.403 250.805 C 230.808 251.505,231.449 252.408,231.828 252.812 L 232.518 253.546 243.311 253.546 C 253.686 253.546,254.116 253.524,254.404 252.986 C 254.833 252.184,254.815 214.879,254.386 213.647 L 254.068 212.735 238.773 212.735 C 226.855 212.735,223.427 212.655,223.244 212.373 C 223.116 212.174,222.945 196.577,222.865 177.713 L 222.721 143.415 221.768 142.231 C 219.371 139.250,214.785 138.454,211.015 140.365 C 210.449 140.652,209.269 140.980,208.394 141.094 C 207.518 141.208,206.232 141.549,205.535 141.852 C 202.516 143.163,201.623 142.540,202.172 139.505 C 202.388 138.312,202.701 134.667,202.869 131.404 C 203.075 127.396,203.354 124.766,203.728 123.300 C 204.033 122.106,204.372 119.906,204.482 118.411 C 204.591 116.917,204.912 114.963,205.195 114.070 C 205.478 113.177,205.869 111.343,206.063 109.995 C 206.258 108.647,206.615 107.163,206.856 106.696 C 207.098 106.229,207.422 104.930,207.578 103.808 C 207.733 102.686,208.095 101.306,208.381 100.740 C 208.668 100.174,208.999 99.255,209.118 98.698 C 209.492 96.940,210.819 93.718,213.250 88.670 C 213.963 87.188,215.568 84.641,217.945 81.218 C 218.321 80.677,219.470 79.525,222.576 76.576 C 223.859 75.358,228.882 72.944,231.221 72.421 C 234.417 71.708,288.486 71.518,291.161 72.211 C 292.089 72.452,293.307 72.648,293.869 72.648 C 294.516 72.648,295.191 72.898,295.709 73.328 C 296.159 73.702,296.901 74.099,297.357 74.210 C 299.571 74.751,305.732 80.648,308.024 84.419 C 308.706 85.543,309.156 86.268,309.700 87.120 C 309.954 87.518,310.341 88.300,310.559 88.857 C 310.777 89.414,311.175 90.195,311.443 90.593 C 311.712 90.991,312.099 91.838,312.305 92.475 C 312.510 93.111,312.845 93.893,313.050 94.211 C 313.254 94.530,313.579 95.441,313.772 96.237 C 313.965 97.033,314.361 98.161,314.652 98.743 C 314.942 99.326,315.267 100.368,315.373 101.059 C 315.479 101.750,315.725 102.641,315.921 103.039 C 316.116 103.437,316.436 104.674,316.632 105.789 C 316.827 106.903,317.183 108.269,317.422 108.823 C 317.660 109.378,317.989 111.006,318.152 112.441 C 318.315 113.876,318.689 115.897,318.983 116.932 C 319.277 117.967,319.718 120.897,319.963 123.444 C 320.207 125.991,320.543 128.653,320.709 129.359 C 321.164 131.293,321.571 141.600,321.210 142.041 C 320.821 142.515,319.949 142.480,318.524 141.932 C 317.887 141.687,316.432 141.310,315.290 141.095 C 314.147 140.879,312.845 140.516,312.395 140.287 C 308.304 138.206,302.611 139.673,301.603 143.069 C 301.405 143.737,301.093 144.466,300.911 144.690 C 300.667 144.988,300.540 154.035,300.434 178.637 C 300.307 208.030,300.236 212.211,299.855 212.452 C 299.597 212.615,293.444 212.728,284.632 212.731 C 269.969 212.735,269.839 212.740,269.292 213.344 C 268.763 213.929,268.738 214.742,268.660 233.243 L 268.579 252.533 269.199 253.039 C 269.888 253.603,289.808 253.830,291.227 253.290 C 291.833 253.060,293.097 251.379,294.068 249.512 C 294.511 248.659,294.400 248.802,297.097 245.600 C 299.242 243.053,302.582 240.056,304.517 238.942 C 306.483 237.811,309.844 236.179,310.209 236.179 C 310.415 236.179,311.211 235.862,311.977 235.473 L 313.370 234.767 313.557 232.362 C 313.660 231.039,313.746 229.093,313.746 228.038 C 313.749 225.165,314.606 224.955,319.537 226.614 C 320.412 226.909,321.874 227.302,322.784 227.487 C 325.705 228.081,325.745 228.158,325.855 233.476 C 325.985 239.757,325.285 241.421,321.977 242.684 L 320.595 243.212 322.216 244.031 C 323.108 244.482,323.919 244.984,324.020 245.146 C 324.120 245.309,324.432 245.441,324.713 245.441 C 324.995 245.441,325.531 245.767,325.904 246.165 C 326.278 246.563,326.695 246.889,326.830 246.889 C 327.213 246.889,329.542 248.557,332.640 251.052 C 335.894 253.672,337.433 254.173,338.611 252.996 C 339.184 252.422,339.198 252.319,338.797 251.544 C 338.560 251.085,338.113 249.622,337.803 248.293 C 337.494 246.963,337.049 245.289,336.815 244.573 C 336.580 243.857,336.252 242.619,336.085 241.823 C 335.695 239.957,334.914 236.967,334.384 235.311 C 333.092 231.267,333.126 230.101,334.537 230.101 C 335.120 230.101,337.260 227.977,337.743 226.918 C 338.154 226.017,338.222 222.557,338.350 195.810 L 338.495 165.716 339.297 165.434 C 339.843 165.242,340.445 165.258,341.179 165.483 C 343.716 166.262,346.076 167.184,346.739 167.656 C 347.131 167.934,347.607 168.162,347.797 168.162 C 348.268 168.162,353.111 173.385,353.111 173.893 C 353.111 174.117,353.424 174.905,353.806 175.645 C 354.536 177.058,355.567 180.334,356.050 182.779 C 356.208 183.575,356.606 185.137,356.936 186.252 C 357.265 187.366,357.705 188.994,357.913 189.870 C 358.539 192.505,359.463 195.979,360.068 197.974 C 360.654 199.909,361.593 203.562,362.225 206.368 C 362.422 207.243,362.862 208.769,363.202 209.759 C 363.542 210.749,363.821 211.819,363.821 212.136 C 363.821 212.454,364.076 213.361,364.388 214.152 C 364.699 214.944,365.109 216.479,365.298 217.564 C 365.486 218.649,365.804 219.797,366.005 220.116 C 366.205 220.434,366.528 221.671,366.721 222.865 C 366.915 224.059,367.243 225.369,367.451 225.775 C 367.659 226.182,368.035 227.603,368.288 228.933 C 368.540 230.263,368.879 231.510,369.041 231.705 C 369.202 231.900,369.525 233.056,369.758 234.272 C 369.991 235.489,370.381 236.871,370.625 237.342 C 370.869 237.814,371.252 239.251,371.476 240.536 C 371.701 241.822,372.032 243.051,372.213 243.269 C 372.394 243.487,372.665 244.553,372.815 245.639 C 372.965 246.724,373.333 248.198,373.633 248.915 C 373.933 249.631,374.264 250.741,374.368 251.381 C 374.721 253.541,373.817 253.384,386.892 253.561 C 393.385 253.650,398.991 253.828,399.349 253.957 L 400.000 254.192 400.000 127.096 L 400.000 0.000 333.864 0.000 C 276.220 0.000,267.728 0.054,267.728 0.421 C 267.728 0.903,269.403 1.443,270.912 1.447 C 271.469 1.448,272.319 1.690,272.800 1.983 C 273.281 2.277,274.178 2.683,274.793 2.886 C 275.408 3.089,276.367 3.564,276.925 3.943 C 277.483 4.321,278.100 4.631,278.297 4.631 C 278.494 4.631,278.832 4.844,279.049 5.104 C 279.265 5.365,279.935 5.889,280.538 6.270 C 283.362 8.053,288.459 13.978,289.741 16.968 C 290.024 17.630,290.397 18.258,290.569 18.364 C 290.742 18.471,290.883 18.766,290.883 19.020 C 290.883 19.273,291.207 20.167,291.604 21.006 C 292.001 21.845,292.454 23.435,292.611 24.540 C 292.767 25.645,293.094 27.310,293.336 28.241 C 293.834 30.152,293.891 33.083,293.468 35.022 C 293.311 35.738,292.971 37.495,292.712 38.926 C 292.452 40.357,291.935 42.102,291.561 42.804 C 291.188 43.506,290.883 44.243,290.883 44.442 C 290.883 47.441,282.022 57.392,277.504 59.466 C 276.983 59.706,276.360 60.028,276.122 60.182 C 271.576 63.121,260.115 64.572,255.027 62.853 C 254.012 62.510,252.917 62.229,252.595 62.229 C 252.273 62.229,251.346 61.917,250.534 61.535 C 249.723 61.154,248.603 60.628,248.046 60.366 C 245.970 59.391,244.701 58.683,244.139 58.184 C 243.821 57.902,243.408 57.622,243.222 57.562 C 242.580 57.355,239.285 54.265,237.807 52.483 C 235.396 49.579,233.298 46.390,233.290 45.620 C 233.287 45.321,233.006 44.623,232.664 44.071 C 232.323 43.518,231.877 42.331,231.673 41.432 C 231.470 40.533,231.102 39.254,230.856 38.591 C 229.873 35.935,230.030 25.790,231.079 24.177 C 231.289 23.853,231.553 23.068,231.665 22.431 C 231.851 21.378,232.288 20.286,233.694 17.366 C 235.571 13.470,238.716 9.759,243.084 6.289 C 244.040 5.529,245.265 4.723,245.806 4.497 C 246.347 4.271,246.958 3.883,247.164 3.635 C 247.370 3.387,247.663 3.184,247.816 3.184 C 247.969 3.184,249.028 2.811,250.169 2.356 C 251.310 1.901,252.894 1.438,253.690 1.327 C 255.733 1.042,256.151 0.887,256.151 0.415 C 256.151 0.055,239.049 0.000,128.075 0.000 L 0.000 0.000 -0.000 127.096 M43.714 42.760 C 43.322 42.833,42.685 43.141,42.301 43.444 C 41.916 43.746,41.455 43.994,41.278 43.994 C 40.655 43.994,38.603 46.182,37.613 47.902 L 36.614 49.638 36.539 133.044 C 36.491 187.464,36.564 216.711,36.751 217.202 L 37.037 217.954 44.929 217.877 L 52.822 217.800 52.916 216.979 C 52.975 216.462,52.746 215.764,52.298 215.098 C 51.907 214.515,51.504 213.680,51.403 213.243 C 51.160 212.188,49.668 211.577,47.332 211.577 C 44.831 211.577,44.573 211.243,44.573 208.002 C 44.573 204.846,44.424 204.920,50.757 204.920 C 56.247 204.920,56.151 204.967,56.151 202.302 C 56.151 199.433,56.126 199.421,50.312 199.421 C 44.508 199.421,44.573 199.458,44.573 196.198 C 44.573 192.849,44.439 192.926,50.405 192.817 C 56.212 192.710,56.151 192.736,56.151 190.326 C 56.151 187.816,56.211 187.844,50.752 187.844 C 44.437 187.844,44.573 187.917,44.573 184.485 C 44.573 180.821,44.442 180.897,50.705 180.897 C 56.301 180.897,56.151 180.975,56.151 178.080 C 56.151 175.681,56.165 175.687,50.926 175.687 C 48.383 175.687,45.996 175.548,45.485 175.370 L 44.573 175.052 44.573 172.483 C 44.573 169.053,44.614 169.030,50.822 169.030 C 54.807 169.030,55.410 168.968,55.748 168.524 C 56.287 167.814,56.342 43.433,55.803 42.894 C 55.461 42.553,45.419 42.440,43.714 42.760 M60.420 42.860 C 59.559 43.361,59.642 167.472,60.503 168.397 L 61.093 169.030 74.929 169.030 L 88.764 169.030 89.100 168.293 C 89.594 167.207,89.583 43.389,89.088 42.894 C 88.635 42.442,61.195 42.408,60.420 42.860 M93.560 42.845 L 92.909 43.107 92.909 105.469 L 92.909 167.831 93.671 168.431 C 94.373 168.982,94.817 169.030,99.211 169.030 C 104.908 169.030,104.753 168.939,104.766 172.306 C 104.781 175.846,105.042 175.687,99.186 175.687 C 93.157 175.687,92.906 175.783,92.913 178.092 C 92.921 180.743,93.279 180.897,99.409 180.897 L 104.211 180.897 104.493 181.640 C 104.901 182.711,104.852 187.073,104.428 187.496 C 104.186 187.739,102.619 187.844,99.237 187.844 C 93.031 187.844,92.909 187.888,92.909 190.136 C 92.909 192.702,93.057 192.764,99.186 192.764 C 105.033 192.764,104.776 192.611,104.776 196.093 C 104.776 199.560,104.999 199.421,99.425 199.421 C 93.090 199.421,92.761 199.591,92.963 202.762 C 93.092 204.793,93.441 204.911,99.339 204.916 C 105.021 204.921,104.776 204.768,104.776 208.319 C 104.776 211.195,104.510 211.592,102.494 211.731 C 100.871 211.843,100.145 212.227,100.145 212.972 C 100.145 213.223,99.810 213.910,99.402 214.499 C 98.851 215.295,98.683 215.859,98.751 216.686 L 98.842 217.800 104.920 217.882 C 111.895 217.976,112.138 217.943,112.730 216.797 C 113.509 215.291,113.384 53.319,112.601 50.260 C 111.779 47.043,110.030 44.950,106.837 43.360 C 105.126 42.508,95.343 42.129,93.560 42.845 M216.729 142.811 C 217.619 143.275,218.877 144.560,219.357 145.495 C 219.592 145.952,219.681 155.735,219.680 180.806 L 219.679 215.485 218.717 217.319 C 217.707 219.244,215.838 221.010,214.495 221.308 C 214.084 221.399,213.178 221.680,212.481 221.933 C 210.269 222.737,210.420 224.913,210.420 192.166 C 210.420 176.138,210.340 162.625,210.242 162.136 C 210.017 161.011,208.858 160.671,207.550 161.348 C 207.062 161.600,205.653 162.008,204.417 162.255 C 203.182 162.501,201.760 162.889,201.259 163.117 C 200.757 163.345,200.098 163.531,199.795 163.531 C 197.994 163.531,198.125 161.172,198.058 194.839 L 197.996 225.326 196.610 225.961 C 192.949 227.639,190.454 227.268,189.219 224.864 C 188.507 223.478,188.429 155.616,189.136 153.236 C 189.712 151.299,192.388 148.638,194.057 148.344 C 194.688 148.233,195.586 147.944,196.053 147.702 C 196.520 147.461,197.814 147.137,198.927 146.983 C 200.041 146.828,201.241 146.513,201.593 146.283 C 201.945 146.052,203.287 145.678,204.575 145.451 C 205.864 145.225,207.217 144.854,207.583 144.627 C 207.949 144.400,209.219 144.061,210.405 143.875 C 211.590 143.688,212.741 143.386,212.962 143.202 C 213.183 143.019,213.906 142.780,214.569 142.672 C 215.232 142.563,215.813 142.458,215.861 142.439 C 215.909 142.419,216.299 142.586,216.729 142.811 M310.965 143.296 C 311.620 143.593,312.677 143.841,313.314 143.846 C 313.951 143.851,315.146 144.169,315.969 144.552 C 316.793 144.936,318.225 145.342,319.153 145.455 C 320.080 145.568,321.295 145.890,321.852 146.170 C 322.410 146.450,323.798 146.823,324.938 146.999 C 326.078 147.176,327.380 147.507,327.832 147.735 C 328.284 147.963,329.183 148.287,329.830 148.455 C 331.153 148.799,332.913 150.318,334.151 152.187 L 334.978 153.432 334.970 188.656 C 334.965 208.028,334.871 224.166,334.759 224.518 C 334.089 226.629,331.258 227.485,328.220 226.494 C 325.318 225.547,325.615 229.191,325.615 194.591 C 325.615 170.442,325.540 164.069,325.253 163.984 C 325.054 163.925,324.240 163.660,323.444 163.395 C 322.648 163.130,320.837 162.661,319.419 162.352 C 318.001 162.043,316.699 161.676,316.525 161.536 C 316.351 161.397,315.818 161.203,315.340 161.105 C 313.478 160.724,313.608 158.501,313.554 191.631 C 313.521 211.799,313.407 221.876,313.208 222.074 C 312.764 222.518,307.670 221.092,307.670 220.524 C 307.670 220.389,307.354 220.112,306.967 219.908 C 305.818 219.302,304.747 217.428,304.449 215.504 C 304.110 213.322,304.241 145.357,304.584 144.659 C 304.838 144.144,306.529 142.989,307.525 142.651 C 308.277 142.396,309.479 142.621,310.965 143.296 M206.347 172.927 C 207.827 173.693,207.914 175.002,206.614 176.964 C 204.676 179.890,200.971 179.551,201.040 176.453 C 201.108 173.385,203.788 171.604,206.347 172.927 M321.770 173.733 C 323.013 174.976,323.304 177.729,322.273 178.483 C 319.742 180.334,315.934 177.370,316.538 174.019 C 316.887 172.086,319.955 171.918,321.770 173.733 M60.437 176.049 C 59.558 176.747,59.538 179.630,60.408 180.314 C 61.544 181.208,88.658 181.230,89.136 180.337 C 89.548 179.567,89.514 176.460,89.088 176.035 C 88.576 175.522,61.082 175.536,60.437 176.049 M60.420 188.156 C 59.683 188.586,59.699 191.613,60.442 192.285 C 61.126 192.904,88.475 193.030,89.088 192.417 C 89.283 192.223,89.436 191.291,89.436 190.304 C 89.436 189.317,89.283 188.385,89.088 188.191 C 88.635 187.738,61.195 187.705,60.420 188.156 M60.542 200.091 C 60.050 200.615,59.913 201.116,59.913 202.390 C 59.913 205.069,59.025 204.920,75.018 204.920 C 90.800 204.920,89.436 205.179,89.436 202.190 C 89.436 199.237,90.412 199.421,74.725 199.421 L 61.172 199.421 60.542 200.091 M206.679 204.030 C 207.731 205.081,207.758 206.012,206.784 207.673 C 205.507 209.854,202.852 210.759,201.770 209.383 C 199.224 206.147,203.803 201.154,206.679 204.030 M320.963 204.070 C 323.341 205.793,323.622 208.557,321.532 209.676 C 319.018 211.022,315.693 207.654,316.655 204.737 C 317.232 202.990,319.078 202.705,320.963 204.070 M68.118 211.894 C 67.477 212.079,67.113 212.421,66.898 213.038 C 66.729 213.522,66.343 214.271,66.039 214.702 C 65.331 215.705,65.089 217.581,65.640 217.792 C 66.172 217.996,85.220 217.990,85.752 217.785 C 86.285 217.581,85.991 215.966,85.125 214.338 C 84.790 213.708,84.515 213.048,84.515 212.872 C 84.515 211.702,71.468 210.923,68.118 211.894 M36.975 229.256 C 36.148 229.738,36.213 240.844,37.048 241.679 C 37.689 242.320,54.597 242.590,55.572 241.975 C 56.145 241.613,56.394 230.020,55.842 229.355 C 55.421 228.847,37.836 228.755,36.975 229.256 M60.548 229.304 L 59.881 229.625 59.969 235.531 C 60.051 240.987,60.101 241.468,60.620 241.847 C 61.455 242.457,87.894 242.457,88.729 241.847 C 89.558 241.242,89.771 229.904,88.964 229.314 C 88.286 228.819,61.576 228.809,60.548 229.304 M94.067 229.144 C 93.023 229.517,92.909 230.125,92.913 235.294 C 92.917 241.084,92.981 241.487,93.960 241.933 C 94.722 242.280,110.983 242.412,111.854 242.078 C 113.634 241.395,113.863 230.063,112.113 229.266 C 111.391 228.937,94.957 228.826,94.067 229.144 M213.025 248.225 C 209.319 249.420,203.473 252.065,203.473 252.547 C 203.473 253.466,204.188 253.546,212.468 253.546 C 222.944 253.546,223.050 253.480,218.983 249.537 C 216.533 247.161,216.408 247.134,213.025 248.225 M304.508 249.814 C 302.059 252.272,301.810 252.753,302.731 253.246 C 303.569 253.694,319.316 253.650,319.768 253.198 C 320.409 252.558,320.127 252.249,318.017 251.270 C 316.863 250.735,315.314 250.000,314.575 249.636 C 313.835 249.272,312.793 248.885,312.259 248.776 C 311.725 248.668,310.599 248.329,309.758 248.023 C 307.318 247.137,307.100 247.212,304.508 249.814 M132.127 260.289 C 129.600 261.528,127.724 263.379,127.304 265.046 C 126.635 267.703,133.567 267.453,63.350 267.354 C 29.383 267.307,1.234 267.161,0.796 267.030 L -0.000 266.792 -0.000 278.114 L 0.000 289.436 91.606 289.436 C 169.941 289.436,183.213 289.377,183.213 289.030 C 183.213 288.623,181.791 288.208,179.161 287.848 C 178.444 287.750,177.583 287.489,177.246 287.269 C 176.909 287.049,175.802 286.780,174.786 286.672 C 173.769 286.563,172.371 286.231,171.679 285.933 C 170.986 285.634,169.553 285.243,168.495 285.063 C 167.436 284.882,166.114 284.547,165.557 284.318 C 165.000 284.088,163.509 283.704,162.244 283.462 C 160.979 283.221,159.612 282.854,159.205 282.647 C 158.799 282.440,157.489 282.103,156.295 281.899 C 155.101 281.695,153.799 281.371,153.401 281.177 C 153.003 280.984,151.775 280.672,150.673 280.483 C 149.570 280.294,148.203 279.942,147.634 279.700 C 147.065 279.459,145.838 279.136,144.908 278.983 C 143.978 278.830,142.676 278.506,142.014 278.261 C 141.352 278.017,139.964 277.632,138.929 277.404 C 132.389 275.968,130.993 275.228,129.797 272.564 L 129.014 270.818 129.609 268.911 C 129.936 267.862,130.273 266.677,130.358 266.276 C 131.006 263.217,136.468 262.265,141.730 264.294 C 142.554 264.611,144.092 264.993,145.147 265.143 C 146.203 265.292,147.449 265.613,147.917 265.855 C 148.385 266.097,149.745 266.419,150.939 266.570 C 152.133 266.721,153.411 267.042,153.778 267.283 C 154.146 267.524,155.493 267.904,156.771 268.127 C 158.050 268.350,159.475 268.728,159.939 268.967 C 160.402 269.205,161.738 269.548,162.908 269.729 C 164.077 269.910,165.435 270.265,165.925 270.518 C 166.415 270.771,167.704 271.090,168.790 271.226 C 169.876 271.363,171.154 271.676,171.631 271.923 C 172.108 272.169,173.525 272.550,174.779 272.769 C 176.034 272.988,177.329 273.311,177.658 273.487 C 177.986 273.662,179.207 274.004,180.372 274.245 C 181.536 274.486,182.952 274.866,183.517 275.088 C 184.083 275.310,185.303 275.632,186.228 275.803 C 191.582 276.793,193.432 280.237,191.402 285.434 C 190.753 287.094,190.429 287.546,189.520 288.057 C 186.941 289.506,183.228 289.436,261.939 289.436 C 341.140 289.436,336.969 289.517,334.427 288.017 C 331.835 286.488,330.891 280.915,332.812 278.488 C 333.997 276.989,335.527 276.171,337.839 275.799 C 338.799 275.644,339.926 275.342,340.343 275.127 C 340.759 274.912,342.188 274.532,343.518 274.282 C 344.848 274.031,346.086 273.703,346.268 273.552 C 346.450 273.402,347.446 273.124,348.480 272.936 C 349.515 272.747,351.013 272.348,351.809 272.048 C 352.605 271.748,354.103 271.380,355.137 271.231 C 356.172 271.082,357.476 270.766,358.034 270.527 C 358.592 270.289,359.895 269.947,360.928 269.768 C 361.962 269.588,363.394 269.198,364.110 268.901 C 364.826 268.603,366.186 268.265,367.130 268.149 C 368.075 268.032,369.423 267.683,370.125 267.373 C 370.827 267.062,372.268 266.687,373.327 266.539 C 374.386 266.391,375.660 266.079,376.156 265.845 C 376.653 265.612,378.016 265.285,379.186 265.119 C 380.355 264.954,381.599 264.630,381.949 264.401 C 384.586 262.673,391.200 262.921,392.696 264.804 C 393.892 266.309,393.891 266.306,394.220 268.672 C 394.975 274.101,393.730 275.332,385.528 277.265 C 384.334 277.546,382.765 277.980,382.041 278.228 C 381.318 278.476,379.885 278.832,378.858 279.018 C 377.830 279.204,376.847 279.474,376.673 279.619 C 376.498 279.763,375.196 280.134,373.778 280.444 C 370.807 281.092,368.118 281.751,365.847 282.387 C 364.971 282.632,363.166 283.073,361.836 283.366 C 360.506 283.660,359.006 284.095,358.504 284.333 C 358.002 284.571,356.876 284.857,356.002 284.968 C 355.129 285.079,353.698 285.463,352.822 285.823 C 351.946 286.183,350.384 286.572,349.349 286.688 C 348.314 286.803,347.091 287.091,346.630 287.327 C 346.170 287.563,344.738 287.906,343.449 288.090 C 341.609 288.351,341.085 288.531,341.009 288.929 C 340.918 289.409,342.476 289.436,370.456 289.436 L 400.000 289.436 400.000 278.122 L 400.000 266.809 398.892 266.996 C 397.615 267.212,397.283 266.940,396.956 265.413 C 396.836 264.856,396.508 264.140,396.226 263.821 C 394.338 261.688,393.720 261.161,392.246 260.425 C 390.097 259.351,387.843 259.112,386.107 259.772 C 385.391 260.045,383.828 260.461,382.634 260.698 C 381.440 260.934,379.853 261.375,379.107 261.678 C 378.361 261.981,377.319 262.233,376.791 262.238 C 376.264 262.243,375.116 262.512,374.240 262.834 C 373.365 263.157,371.630 263.600,370.385 263.818 C 369.140 264.036,367.784 264.436,367.372 264.706 C 366.959 264.976,365.673 265.304,364.514 265.434 C 363.355 265.564,361.985 265.888,361.471 266.154 C 360.957 266.419,359.678 266.745,358.629 266.876 C 357.580 267.008,356.137 267.381,355.423 267.705 C 354.709 268.029,353.690 268.297,353.160 268.300 C 352.630 268.304,351.262 268.622,350.121 269.007 C 348.980 269.392,347.467 269.799,346.760 269.910 C 346.052 270.022,344.762 270.358,343.893 270.657 C 343.023 270.956,342.052 271.201,341.734 271.201 C 341.214 271.201,338.929 269.076,338.929 268.592 C 338.929 267.380,317.968 266.825,317.215 268.017 C 317.064 268.256,316.939 269.956,316.936 271.795 C 316.933 274.003,316.814 275.255,316.585 275.485 C 316.079 275.990,207.799 275.990,207.294 275.485 C 207.067 275.258,206.946 274.066,206.946 272.051 C 206.946 269.366,206.868 268.864,206.347 268.201 L 205.747 267.438 196.404 267.438 C 185.738 267.438,185.795 267.428,184.040 269.628 C 182.670 271.344,182.177 271.502,180.438 270.775 C 179.877 270.541,178.382 270.152,177.115 269.912 C 175.847 269.672,174.453 269.290,174.015 269.064 C 173.578 268.837,172.570 268.565,171.776 268.458 C 170.982 268.351,169.387 267.947,168.232 267.561 C 167.076 267.175,165.802 266.860,165.401 266.860 C 164.999 266.860,163.861 266.586,162.871 266.251 C 161.881 265.916,160.248 265.525,159.243 265.381 C 158.237 265.237,156.870 264.873,156.204 264.571 C 155.538 264.268,154.211 263.927,153.256 263.811 C 152.301 263.696,151.064 263.372,150.507 263.092 C 149.949 262.812,148.537 262.435,147.367 262.254 C 146.198 262.073,144.895 261.747,144.473 261.530 C 144.050 261.313,142.748 260.987,141.579 260.806 C 140.409 260.626,139.091 260.291,138.649 260.063 C 136.819 259.117,134.342 259.202,132.127 260.289 M216.635 279.002 C 217.882 281.413,217.109 282.028,212.941 281.939 C 209.210 281.859,208.848 281.688,209.061 280.102 C 209.309 278.257,209.532 278.148,213.053 278.148 L 216.194 278.148 216.635 279.002 M313.763 278.589 C 314.831 279.142,315.021 281.094,314.057 281.611 C 313.392 281.966,307.403 282.008,306.855 281.660 C 306.158 281.218,306.538 278.945,307.381 278.520 C 308.426 277.994,312.701 278.040,313.763 278.589 " stroke="none" fill="#ffffff" fill-rule="evenodd"></path></g></svg>