<?xml version="1.0" standalone="no"?>
<!DOCTYPE svg PUBLIC "-//W3C//DTD SVG 20010904//EN"
 "http://www.w3.org/TR/2001/REC-SVG-20010904/DTD/svg10.dtd">
<svg version="1.0" xmlns="http://www.w3.org/2000/svg"
 width="512.000000pt" height="512.000000pt" viewBox="0 0 512.000000 512.000000"
 preserveAspectRatio="xMidYMid meet">
<metadata>
Created by potrace 1.16, written by Peter Selinger 2001-2019
</metadata>
<g transform="translate(0.000000,512.000000) scale(0.100000,-0.100000)"
fill="#000000" stroke="none">
<path d="M2222 4057 c-30 -32 -29 -87 1 -115 21 -20 34 -22 140 -22 l117 0 0
-325 0 -325 -157 -315 -158 -315 -390 0 -389 0 -471 -281 c-258 -155 -485
-293 -504 -307 -47 -35 -81 -112 -81 -188 0 -165 151 -279 310 -234 19 5 177
95 350 198 347 207 369 226 390 325 14 69 -1 142 -41 197 -17 23 -29 43 -27
44 2 2 35 22 74 45 l70 41 1074 0 1074 0 70 -41 c39 -23 73 -43 75 -45 2 -2
-7 -16 -19 -31 -36 -45 -50 -91 -50 -160 0 -76 32 -148 82 -186 63 -47 623
-374 662 -387 112 -36 252 32 296 145 32 82 5 209 -57 267 -16 14 -244 154
-509 312 l-480 286 -360 0 -359 0 -158 315 -157 315 0 325 0 325 118 0 c111 0
120 1 140 23 30 32 29 87 -1 115 -23 22 -29 22 -338 22 l-316 0 -21 -23z m431
-1192 l87 -175 -180 0 -180 0 87 175 c48 96 90 175 93 175 3 0 45 -79 93 -175z"/>
</g>
</svg>
