<svg id="svg" version="1.1" xmlns="http://www.w3.org/2000/svg" xmlns:xlink="http://www.w3.org/1999/xlink" width="400" height="380.95238095238096" viewBox="0, 0, 400,380.95238095238096"><g id="svgg"><path id="path0" d="M334.344 0.808 C 329.143 2.864,326.857 5.726,324.339 13.333 C 324.027 14.276,323.618 15.390,323.430 15.810 C 323.243 16.229,322.472 18.286,321.717 20.381 C 320.962 22.476,320.010 25.090,319.601 26.190 C 319.192 27.290,318.523 29.090,318.114 30.190 C 317.705 31.290,316.762 33.862,316.018 35.905 C 312.440 45.739,311.894 47.216,310.991 49.524 C 310.458 50.886,309.773 52.771,309.468 53.714 C 309.163 54.657,308.764 55.771,308.581 56.190 C 308.199 57.065,306.423 61.844,303.628 69.524 C 299.175 81.757,298.155 84.548,296.947 87.810 C 296.249 89.695,294.709 93.895,293.526 97.143 C 292.342 100.390,291.224 103.390,291.041 103.810 C 290.858 104.229,290.091 106.286,289.336 108.381 C 288.581 110.476,287.629 113.090,287.220 114.190 C 286.811 115.290,286.147 117.090,285.745 118.190 C 285.343 119.290,284.384 121.905,283.614 124.000 C 282.844 126.095,281.905 128.667,281.526 129.714 C 281.147 130.762,280.314 132.990,279.674 134.667 C 279.034 136.343,277.543 140.371,276.361 143.619 C 275.178 146.867,273.384 151.752,272.374 154.476 C 271.364 157.200,269.828 161.400,268.961 163.810 C 268.095 166.219,267.236 168.533,267.054 168.952 C 266.871 169.371,265.927 171.943,264.956 174.667 C 263.985 177.390,263.047 179.962,262.872 180.381 C 261.696 183.189,261.526 184.098,261.549 187.429 C 261.585 192.483,263.631 196.060,268.592 199.738 L 269.524 200.429 268.571 200.126 C 267.021 199.632,133.173 199.510,130.476 200.000 C 120.838 201.750,114.241 208.212,112.343 217.762 L 111.851 220.238 105.277 220.119 C 101.172 220.045,98.546 219.843,98.286 219.582 C 97.984 219.280,98.724 217.074,100.970 211.582 C 105.981 199.328,106.127 199.036,108.198 197.099 C 118.301 187.649,109.487 173.439,95.217 176.170 C 72.016 180.610,59.805 206.099,71.065 226.584 C 71.997 228.280,72.330 229.279,72.152 229.847 C 71.902 230.646,65.621 245.910,63.036 252.000 L 61.742 255.048 56.043 255.153 C 49.757 255.268,50.275 255.468,49.723 252.715 C 48.915 248.688,42.933 247.962,40.548 251.601 L 39.912 252.571 23.835 252.571 C 5.850 252.571,5.002 252.669,2.575 255.027 C -1.041 258.539,-0.920 263.485,2.865 266.889 C 5.086 268.887,5.741 268.952,23.546 268.952 L 39.957 268.952 40.602 270.044 C 42.928 273.982,48.881 272.907,49.806 268.381 L 50.117 266.857 53.440 266.747 C 55.267 266.687,56.762 266.728,56.762 266.840 C 56.762 266.951,56.147 268.578,55.396 270.455 L 54.030 273.868 52.253 274.126 C 34.171 276.758,27.638 300.406,41.766 312.082 C 59.664 326.872,84.754 307.245,74.985 286.095 C 74.356 284.733,73.479 283.229,73.035 282.752 C 72.021 281.660,72.631 279.555,76.540 270.667 C 77.535 268.403,78.224 266.750,80.194 261.905 C 81.386 258.971,82.594 256.057,82.878 255.429 C 83.162 254.800,83.758 253.343,84.203 252.190 C 84.648 251.038,85.276 249.495,85.599 248.762 C 86.734 246.183,87.181 245.128,87.798 243.577 L 88.421 242.011 90.782 242.750 C 92.080 243.157,93.657 243.685,94.286 243.925 C 95.110 244.238,109.076 244.415,144.367 244.561 L 193.305 244.762 193.626 246.095 C 195.840 255.279,202.242 264.956,208.764 268.979 C 210.530 270.068,210.580 270.429,209.541 274.561 C 209.131 276.191,208.350 279.410,207.805 281.714 C 205.787 290.256,205.242 292.535,203.617 299.238 C 202.703 303.010,201.250 309.095,200.388 312.762 C 197.489 325.097,192.351 331.007,180.762 335.337 C 169.536 339.532,172.099 339.410,94.770 339.420 C 21.888 339.429,27.697 339.228,24.111 341.868 C 20.792 344.310,20.521 348.040,23.097 355.810 C 24.527 360.119,27.347 364.753,29.118 365.701 C 31.084 366.753,29.818 366.857,15.048 366.857 L 0.000 366.857 0.000 373.905 L 0.000 380.952 200.000 380.952 L 400.000 380.952 400.000 373.905 L 400.000 366.857 395.619 366.857 C 390.562 366.857,390.713 366.973,393.015 364.865 C 397.236 361.000,401.271 348.397,399.488 344.646 C 398.745 343.081,397.205 341.649,395.048 340.518 L 393.333 339.619 316.015 339.520 C 273.491 339.466,238.552 339.275,238.373 339.097 C 238.195 338.918,238.412 337.250,238.856 335.386 C 239.300 333.524,240.175 329.857,240.800 327.238 C 241.425 324.619,242.107 321.833,242.316 321.048 L 242.696 319.619 247.850 319.619 C 252.805 319.619,253.053 319.657,254.294 320.604 C 256.296 322.131,258.878 322.778,260.971 322.279 C 262.143 321.999,263.027 321.988,263.701 322.244 C 267.112 323.541,270.435 319.060,268.190 316.190 C 267.781 315.667,267.442 314.788,267.437 314.237 C 267.409 310.968,263.524 306.667,260.598 306.667 C 260.014 306.667,259.706 306.238,259.297 304.857 C 258.660 302.707,258.748 302.476,260.205 302.476 C 260.856 302.476,265.215 300.561,270.717 297.857 L 280.116 293.238 281.868 294.101 C 289.869 298.043,292.653 297.309,302.095 288.774 C 304.714 286.406,307.544 283.849,308.383 283.092 C 311.141 280.601,310.921 280.667,312.988 281.715 C 316.139 283.314,316.392 283.189,322.566 277.014 C 340.022 259.555,348.194 233.351,343.792 208.952 C 342.798 203.440,342.500 202.250,340.941 197.577 C 336.960 185.640,330.017 174.723,320.643 165.665 C 316.272 161.441,316.427 162.330,318.920 155.810 C 322.155 147.346,324.824 140.279,329.134 128.762 C 329.723 127.190,331.150 123.419,332.307 120.381 C 334.281 115.196,341.537 95.904,343.412 90.857 C 346.303 83.075,349.427 74.747,349.701 74.095 C 350.170 72.981,353.730 63.519,360.450 45.524 C 362.888 38.997,365.292 32.609,367.619 26.476 C 375.432 5.882,375.057 7.028,374.346 5.943 C 373.479 4.620,372.480 4.508,362.728 4.644 L 354.218 4.762 353.348 5.775 L 352.477 6.788 350.483 4.769 C 348.604 2.866,345.124 0.762,343.856 0.762 C 343.541 0.762,343.177 0.590,343.048 0.381 C 342.626 -0.302,336.376 0.005,334.344 0.808 M312.039 181.048 C 323.509 192.943,330.349 214.434,327.600 229.936 C 326.329 237.106,325.067 241.952,323.663 245.054 C 323.356 245.732,322.521 247.575,321.808 249.151 C 311.174 272.641,282.870 287.227,256.745 282.680 C 251.348 281.741,251.586 282.112,252.923 276.735 C 253.544 274.235,254.564 270.048,255.191 267.429 C 255.817 264.810,256.932 260.181,257.669 257.143 C 258.406 254.105,259.388 250.033,259.850 248.095 L 260.692 244.571 272.346 244.566 C 280.831 244.562,284.252 244.432,284.928 244.090 C 285.961 243.565,286.073 243.304,291.432 228.952 C 294.741 220.090,297.775 212.033,300.180 205.714 C 300.779 204.143,302.041 200.800,302.985 198.286 C 303.929 195.771,305.658 191.200,306.827 188.127 C 307.996 185.055,308.952 182.461,308.952 182.364 C 308.952 181.982,310.117 179.429,310.292 179.429 C 310.394 179.429,311.180 180.157,312.039 181.048 M276.476 201.786 C 279.083 201.977,280.008 202.527,278.886 203.220 C 278.693 203.340,278.423 203.948,278.286 204.571 C 277.898 206.336,277.444 206.298,275.415 204.330 C 274.377 203.323,273.098 202.275,272.573 202.000 C 271.311 201.338,271.359 200.988,272.667 201.319 C 273.243 201.465,274.957 201.675,276.476 201.786 M250.325 298.308 C 250.032 299.372,250.310 303.034,250.866 305.432 C 251.175 306.765,251.429 307.932,251.429 308.024 C 251.429 308.115,250.143 308.190,248.571 308.190 C 245.171 308.190,245.266 308.461,246.668 302.745 C 247.336 300.020,247.867 298.653,248.444 298.174 C 249.378 297.399,250.552 297.483,250.325 298.308 M175.619 373.356 C 175.619 375.560,175.481 376.722,175.238 376.571 C 175.029 376.442,174.857 374.889,174.857 373.120 C 174.857 371.231,175.014 369.905,175.238 369.905 C 175.464 369.905,175.619 371.309,175.619 373.356 M211.714 371.043 C 214.384 372.671,212.843 376.762,209.560 376.762 L 208.381 376.762 208.381 373.778 C 208.381 369.928,209.022 369.402,211.714 371.043 M223.401 370.884 C 223.731 371.214,223.995 371.685,223.988 371.932 C 223.982 372.179,223.802 372.081,223.589 371.714 C 223.096 370.868,221.872 370.850,221.552 371.684 C 221.259 372.446,222.024 373.016,222.952 372.728 C 223.394 372.590,223.619 372.724,223.619 373.122 C 223.619 373.454,223.826 374.056,224.078 374.460 C 224.457 375.066,224.413 375.334,223.829 375.979 C 222.542 377.400,220.713 376.609,221.062 374.783 C 221.211 374.004,221.235 374.023,221.281 374.952 C 221.326 375.856,221.494 376.000,222.501 376.000 C 223.551 376.000,223.657 375.894,223.549 374.952 C 223.457 374.151,223.222 373.902,222.551 373.895 C 221.008 373.877,220.304 371.463,221.619 370.697 C 222.522 370.171,222.707 370.190,223.401 370.884 M201.905 373.683 C 201.905 377.273,201.707 377.919,200.626 377.861 C 199.982 377.826,199.950 377.780,200.476 377.642 C 201.048 377.493,201.143 376.986,201.143 374.067 C 201.143 372.054,201.298 370.667,201.524 370.667 C 201.746 370.667,201.905 371.926,201.905 373.683 M205.137 372.453 C 205.350 372.386,205.693 371.957,205.900 371.499 C 206.107 371.041,206.407 370.667,206.567 370.667 C 206.728 370.667,206.526 371.287,206.120 372.044 C 205.349 373.483,205.449 374.006,206.821 375.714 C 207.120 376.087,207.181 376.381,206.960 376.381 C 206.742 376.381,206.274 375.939,205.920 375.399 C 205.562 374.852,205.047 374.504,204.760 374.615 C 204.392 374.756,204.252 374.485,204.275 373.675 C 204.293 373.048,204.110 372.338,203.868 372.097 C 203.626 371.855,203.433 371.391,203.439 371.067 C 203.445 370.705,203.701 370.882,204.100 371.526 C 204.457 372.103,204.924 372.520,205.137 372.453 M216.499 372.381 C 216.958 373.219,217.462 373.962,217.619 374.032 C 217.776 374.102,217.905 374.402,217.905 374.698 C 217.905 374.995,218.076 375.238,218.286 375.238 C 218.497 375.238,218.667 374.222,218.667 372.952 C 218.667 371.683,218.836 370.667,219.048 370.667 C 219.542 370.667,219.552 376.260,219.059 376.565 C 218.855 376.690,218.041 375.758,217.250 374.492 C 215.480 371.660,215.238 371.635,215.238 374.286 C 215.238 375.438,215.067 376.381,214.857 376.381 C 214.637 376.381,214.476 375.165,214.476 373.496 C 214.476 370.129,215.082 369.795,216.499 372.381 M228.571 372.017 C 228.571 372.950,228.277 373.663,227.619 374.320 C 226.369 375.571,226.417 376.000,227.810 376.000 C 228.438 376.000,228.952 376.171,228.952 376.381 C 228.952 376.791,226.187 376.917,225.795 376.526 C 225.665 376.396,226.159 375.504,226.891 374.544 C 228.402 372.566,228.454 371.395,227.048 371.006 C 226.170 370.763,226.192 370.740,227.333 370.705 C 228.504 370.669,228.571 370.740,228.571 372.017 M209.016 371.302 C 208.876 371.441,208.762 372.556,208.762 373.778 L 208.762 376.000 210.082 376.000 C 212.029 376.000,212.971 373.442,211.660 371.714 C 211.163 371.060,209.515 370.802,209.016 371.302 M172.876 372.267 C 173.443 372.834,173.488 376.381,172.928 376.381 C 172.706 376.381,172.577 375.995,172.643 375.524 C 172.738 374.836,172.555 374.643,171.714 374.546 C 170.871 374.449,170.667 374.579,170.667 375.213 C 170.667 375.754,170.912 376.000,171.451 376.000 C 171.882 376.000,172.129 376.171,172.000 376.381 C 171.587 377.049,170.346 376.790,170.089 375.982 C 169.778 374.999,170.503 374.095,171.602 374.095 C 172.065 374.095,172.547 373.993,172.672 373.868 C 173.099 373.441,172.492 372.571,171.769 372.571 C 171.372 372.571,171.048 372.400,171.048 372.190 C 171.048 371.660,172.323 371.713,172.876 372.267 M180.129 372.780 C 180.737 374.114,180.714 376.495,180.095 376.275 C 179.833 376.183,179.660 375.740,179.710 375.291 C 179.782 374.646,179.583 374.464,178.757 374.419 L 177.714 374.362 178.785 374.201 C 180.085 374.006,180.065 372.827,178.758 372.640 C 177.628 372.479,177.658 371.810,178.796 371.810 C 179.381 371.810,179.839 372.143,180.129 372.780 M182.892 372.286 C 183.004 373.794,182.749 376.242,182.447 376.552 C 182.231 376.775,182.095 375.929,182.095 374.362 C 182.095 372.275,182.763 370.537,182.892 372.286 M185.206 372.286 C 185.667 372.657,185.746 373.221,185.565 374.857 C 185.303 377.227,184.677 376.917,184.820 374.488 C 184.888 373.344,184.723 372.812,184.170 372.394 C 183.578 371.947,183.548 371.831,184.022 371.822 C 184.349 371.815,184.882 372.024,185.206 372.286 M187.588 372.041 C 188.051 372.219,188.174 372.768,188.120 374.422 L 188.050 376.571 187.910 374.571 C 187.813 373.186,187.607 372.571,187.241 372.571 C 186.950 372.571,186.606 372.400,186.476 372.190 C 186.211 371.761,186.690 371.696,187.588 372.041 M192.161 374.931 C 190.915 378.188,190.598 378.677,189.763 378.637 C 189.243 378.611,189.235 378.571,189.714 378.389 C 190.632 378.040,190.888 377.417,190.657 376.095 C 190.472 375.032,190.551 374.857,191.221 374.857 C 191.748 374.857,192.000 374.609,192.000 374.090 C 192.000 373.668,192.208 372.990,192.462 372.584 C 193.348 371.165,193.219 372.168,192.161 374.931 M190.403 373.955 C 190.294 374.483,190.134 374.322,189.782 373.334 C 189.343 372.101,189.354 372.048,189.928 372.622 C 190.270 372.964,190.483 373.564,190.403 373.955 M178.464 376.000 C 178.785 376.000,179.048 376.183,179.048 376.407 C 179.048 377.466,177.330 376.534,177.244 375.429 C 177.163 374.385,177.186 374.360,177.518 375.143 C 177.717 375.614,178.143 376.000,178.464 376.000 " stroke="none" fill="#000000" fill-rule="evenodd"></path><path id="path1" d="M0.000 129.165 C 0.000 215.179,0.127 258.252,0.381 258.095 C 0.590 257.966,0.762 257.633,0.762 257.356 C 0.762 257.078,1.467 256.147,2.328 255.285 C 4.978 252.636,5.487 252.571,23.835 252.571 L 39.912 252.571 40.548 251.601 C 42.933 247.962,48.915 248.688,49.723 252.715 C 50.275 255.468,49.757 255.268,56.043 255.153 L 61.742 255.048 63.036 252.000 C 65.621 245.910,71.902 230.646,72.152 229.847 C 72.330 229.279,71.997 228.280,71.065 226.584 C 64.990 215.532,65.569 202.020,72.589 191.047 C 80.143 179.237,97.831 172.181,106.480 177.526 C 113.371 181.785,114.221 191.465,108.198 197.099 C 106.127 199.036,105.981 199.328,100.970 211.582 C 98.724 217.074,97.984 219.280,98.286 219.582 C 98.546 219.843,101.172 220.045,105.277 220.119 L 111.851 220.238 112.343 217.762 C 114.241 208.212,120.838 201.750,130.476 200.000 C 133.173 199.510,267.021 199.632,268.571 200.126 L 269.524 200.429 268.592 199.738 C 263.631 196.060,261.585 192.483,261.549 187.429 C 261.526 184.098,261.696 183.189,262.872 180.381 C 263.047 179.962,263.985 177.390,264.956 174.667 C 265.927 171.943,266.871 169.371,267.054 168.952 C 267.236 168.533,268.095 166.219,268.961 163.810 C 269.828 161.400,271.364 157.200,272.374 154.476 C 273.384 151.752,275.178 146.867,276.361 143.619 C 277.543 140.371,279.034 136.343,279.674 134.667 C 280.314 132.990,281.147 130.762,281.526 129.714 C 282.326 127.500,284.696 121.046,285.722 118.286 C 286.111 117.238,287.048 114.667,287.805 112.571 C 289.433 108.061,290.620 104.862,291.057 103.810 C 291.231 103.390,292.342 100.390,293.526 97.143 C 294.709 93.895,296.249 89.695,296.947 87.810 C 298.155 84.548,299.175 81.757,303.628 69.524 C 306.423 61.844,308.199 57.065,308.581 56.190 C 308.764 55.771,309.163 54.657,309.468 53.714 C 309.773 52.771,310.458 50.886,310.991 49.524 C 311.895 47.215,312.687 45.068,316.054 35.810 C 316.778 33.819,317.705 31.290,318.114 30.190 C 318.523 29.090,319.192 27.290,319.601 26.190 C 320.010 25.090,320.962 22.476,321.717 20.381 C 322.472 18.286,323.234 16.229,323.411 15.810 C 323.588 15.390,323.909 14.533,324.124 13.905 C 325.992 8.446,327.090 6.272,328.927 4.400 C 330.643 2.652,331.686 2.001,335.238 0.464 C 335.923 0.167,289.014 0.044,168.095 0.026 L 0.000 0.000 0.000 129.165 M343.048 0.381 C 343.177 0.590,343.541 0.762,343.856 0.762 C 345.124 0.762,348.604 2.866,350.483 4.769 L 352.477 6.788 353.348 5.775 L 354.218 4.762 362.728 4.644 C 372.480 4.508,373.479 4.620,374.346 5.943 C 375.057 7.028,375.432 5.882,367.619 26.476 C 365.292 32.609,362.888 38.997,360.450 45.524 C 353.730 63.519,350.170 72.981,349.701 74.095 C 349.427 74.747,346.303 83.075,343.412 90.857 C 341.537 95.904,334.281 115.196,332.307 120.381 C 331.150 123.419,329.723 127.190,329.134 128.762 C 324.824 140.279,322.155 147.346,318.920 155.810 C 316.427 162.330,316.272 161.441,320.643 165.665 C 331.455 176.113,340.251 191.309,342.863 204.053 C 345.484 216.842,345.666 224.261,343.660 236.571 C 341.380 250.562,333.055 266.524,322.566 277.014 C 316.392 283.189,316.139 283.314,312.988 281.715 C 310.921 280.667,311.141 280.601,308.383 283.092 C 307.544 283.849,304.714 286.406,302.095 288.774 C 292.653 297.309,289.869 298.043,281.868 294.101 L 280.116 293.238 270.717 297.857 C 265.215 300.561,260.856 302.476,260.205 302.476 C 258.748 302.476,258.660 302.707,259.297 304.857 C 259.706 306.238,260.014 306.667,260.598 306.667 C 263.524 306.667,267.409 310.968,267.437 314.237 C 267.442 314.788,267.781 315.667,268.190 316.190 C 270.435 319.060,267.112 323.541,263.701 322.244 C 263.027 321.988,262.143 321.999,260.971 322.279 C 258.878 322.778,256.296 322.131,254.294 320.604 C 253.053 319.657,252.805 319.619,247.850 319.619 L 242.696 319.619 242.316 321.048 C 242.107 321.833,241.425 324.619,240.800 327.238 C 240.175 329.857,239.300 333.524,238.856 335.386 C 238.412 337.250,238.195 338.918,238.373 339.097 C 238.552 339.275,273.491 339.466,316.015 339.520 L 393.333 339.619 395.048 340.517 C 396.991 341.536,399.238 343.533,399.238 344.243 C 399.238 344.504,399.410 344.823,399.619 344.952 C 399.873 345.109,400.000 287.560,400.000 172.594 L 400.000 0.000 371.406 0.000 C 352.440 0.000,342.891 0.128,343.048 0.381 M309.529 180.808 C 309.212 181.567,308.952 182.268,308.952 182.364 C 308.952 182.461,307.996 185.055,306.827 188.127 C 305.658 191.200,303.929 195.771,302.985 198.286 C 302.041 200.800,300.779 204.143,300.180 205.714 C 297.775 212.033,294.741 220.090,291.432 228.952 C 286.073 243.304,285.961 243.565,284.928 244.090 C 284.252 244.432,280.831 244.562,272.346 244.566 L 260.692 244.571 259.850 248.095 C 259.388 250.033,258.406 254.105,257.669 257.143 C 256.932 260.181,255.817 264.810,255.191 267.429 C 254.564 270.048,253.544 274.235,252.923 276.735 C 251.586 282.112,251.348 281.741,256.745 282.680 C 282.870 287.227,311.174 272.641,321.808 249.151 C 322.521 247.575,323.356 245.732,323.663 245.054 C 325.067 241.952,326.329 237.106,327.600 229.936 C 330.349 214.434,323.509 192.943,312.039 181.048 C 310.154 179.092,310.242 179.101,309.529 180.808 M271.619 201.277 C 271.619 201.399,272.049 201.725,272.573 202.000 C 273.098 202.275,274.377 203.323,275.415 204.330 C 277.444 206.298,277.898 206.336,278.286 204.571 C 278.423 203.948,278.693 203.340,278.886 203.220 C 280.008 202.527,279.083 201.977,276.476 201.786 C 274.957 201.675,273.243 201.465,272.667 201.319 C 272.090 201.173,271.619 201.154,271.619 201.277 M87.798 243.577 C 87.456 244.438,86.912 245.743,86.590 246.476 C 85.276 249.470,84.977 250.185,84.203 252.190 C 83.758 253.343,83.162 254.800,82.878 255.429 C 82.594 256.057,81.386 258.971,80.194 261.905 C 78.224 266.750,77.535 268.403,76.540 270.667 C 72.631 279.555,72.021 281.660,73.035 282.752 C 80.714 291.013,77.334 307.653,66.672 314.083 C 54.033 321.704,37.884 314.634,34.488 299.993 C 31.768 288.265,40.282 275.869,52.253 274.126 L 54.030 273.868 55.396 270.455 C 56.147 268.578,56.762 266.951,56.762 266.840 C 56.762 266.728,55.267 266.687,53.440 266.747 L 50.117 266.857 49.806 268.381 C 48.881 272.907,42.928 273.982,40.602 270.044 L 39.957 268.952 23.546 268.952 C 11.666 268.952,6.703 268.823,5.568 268.484 C 3.912 267.989,0.762 265.196,0.762 264.223 C 0.762 263.916,0.590 263.558,0.381 263.429 C 0.128 263.272,0.000 280.567,0.000 315.025 L 0.000 366.857 15.048 366.857 C 29.818 366.857,31.084 366.753,29.118 365.701 C 27.347 364.753,24.527 360.119,23.097 355.810 C 20.521 348.040,20.792 344.310,24.111 341.868 C 27.697 339.228,21.888 339.429,94.770 339.420 C 172.099 339.410,169.536 339.532,180.762 335.337 C 192.351 331.007,197.489 325.097,200.388 312.762 C 201.250 309.095,202.703 303.010,203.617 299.238 C 205.242 292.535,205.787 290.256,207.805 281.714 C 208.350 279.410,209.131 276.191,209.541 274.561 C 210.580 270.429,210.530 270.068,208.764 268.979 C 202.242 264.956,195.840 255.279,193.626 246.095 L 193.305 244.762 144.367 244.561 C 109.076 244.415,95.110 244.238,94.286 243.925 C 93.657 243.685,92.080 243.157,90.782 242.750 L 88.421 242.011 87.798 243.577 M248.444 298.174 C 247.867 298.653,247.336 300.020,246.668 302.745 C 245.266 308.461,245.171 308.190,248.571 308.190 C 250.143 308.190,251.429 308.115,251.429 308.024 C 251.429 307.932,251.175 306.765,250.866 305.432 C 250.310 303.034,250.032 299.372,250.325 298.308 C 250.552 297.483,249.378 297.399,248.444 298.174 M399.240 352.095 C 397.854 357.591,395.358 362.694,392.989 364.878 C 390.718 366.972,390.566 366.857,395.619 366.857 L 400.000 366.857 400.000 358.667 C 400.000 350.131,399.917 349.412,399.240 352.095 M174.857 373.120 C 174.857 374.889,175.029 376.442,175.238 376.571 C 175.481 376.722,175.619 375.560,175.619 373.356 C 175.619 371.309,175.464 369.905,175.238 369.905 C 175.014 369.905,174.857 371.231,174.857 373.120 M208.635 370.540 C 208.495 370.679,208.381 372.137,208.381 373.778 L 208.381 376.762 209.560 376.762 C 212.843 376.762,214.384 372.671,211.714 371.043 C 210.473 370.287,209.111 370.064,208.635 370.540 M221.619 370.697 C 220.304 371.463,221.008 373.877,222.551 373.895 C 223.222 373.902,223.457 374.151,223.549 374.952 C 223.657 375.894,223.551 376.000,222.501 376.000 C 221.494 376.000,221.326 375.856,221.281 374.952 C 221.235 374.023,221.211 374.004,221.062 374.783 C 220.713 376.609,222.542 377.400,223.829 375.979 C 224.413 375.334,224.457 375.066,224.078 374.460 C 223.826 374.056,223.619 373.454,223.619 373.122 C 223.619 372.724,223.394 372.590,222.952 372.728 C 222.024 373.016,221.259 372.446,221.552 371.684 C 221.872 370.850,223.096 370.868,223.589 371.714 C 223.802 372.081,223.982 372.179,223.988 371.932 C 224.018 370.786,222.671 370.084,221.619 370.697 M201.143 374.067 C 201.143 376.986,201.048 377.493,200.476 377.642 C 199.950 377.780,199.982 377.826,200.626 377.861 C 201.075 377.885,201.546 377.634,201.674 377.302 C 202.063 376.287,201.936 370.667,201.524 370.667 C 201.298 370.667,201.143 372.054,201.143 374.067 M203.439 371.067 C 203.433 371.391,203.626 371.855,203.868 372.097 C 204.110 372.338,204.293 373.048,204.275 373.675 C 204.252 374.485,204.392 374.756,204.760 374.615 C 205.047 374.504,205.562 374.852,205.920 375.399 C 206.274 375.939,206.742 376.381,206.960 376.381 C 207.181 376.381,207.120 376.087,206.821 375.714 C 205.449 374.006,205.349 373.483,206.120 372.044 C 206.526 371.287,206.728 370.667,206.567 370.667 C 206.407 370.667,206.107 371.041,205.900 371.499 C 205.354 372.708,204.837 372.715,204.100 371.526 C 203.701 370.882,203.445 370.705,203.439 371.067 M214.476 373.496 C 214.476 375.165,214.637 376.381,214.857 376.381 C 215.067 376.381,215.238 375.438,215.238 374.286 C 215.238 371.635,215.480 371.660,217.250 374.492 C 218.041 375.758,218.855 376.690,219.059 376.565 C 219.552 376.260,219.542 370.667,219.048 370.667 C 218.836 370.667,218.667 371.683,218.667 372.952 C 218.667 374.222,218.497 375.238,218.286 375.238 C 218.076 375.238,217.905 374.995,217.905 374.698 C 217.905 374.402,217.776 374.102,217.619 374.032 C 217.462 373.962,216.958 373.219,216.499 372.381 C 215.082 369.795,214.476 370.129,214.476 373.496 M227.048 371.006 C 228.454 371.395,228.402 372.566,226.891 374.544 C 226.159 375.504,225.665 376.396,225.795 376.526 C 226.187 376.917,228.952 376.791,228.952 376.381 C 228.952 376.171,228.438 376.000,227.810 376.000 C 226.417 376.000,226.369 375.571,227.619 374.320 C 229.150 372.790,228.981 370.654,227.333 370.705 C 226.192 370.740,226.170 370.763,227.048 371.006 M211.660 371.714 C 212.971 373.442,212.029 376.000,210.082 376.000 L 208.762 376.000 208.762 373.778 C 208.762 372.556,208.876 371.441,209.016 371.302 C 209.515 370.802,211.163 371.060,211.660 371.714 M171.048 372.190 C 171.048 372.400,171.372 372.571,171.769 372.571 C 172.492 372.571,173.099 373.441,172.672 373.868 C 172.547 373.993,172.065 374.095,171.602 374.095 C 170.503 374.095,169.778 374.999,170.089 375.982 C 170.346 376.790,171.587 377.049,172.000 376.381 C 172.129 376.171,171.882 376.000,171.451 376.000 C 170.912 376.000,170.667 375.754,170.667 375.213 C 170.667 374.579,170.871 374.449,171.714 374.546 C 172.555 374.643,172.738 374.836,172.643 375.524 C 172.577 375.995,172.706 376.381,172.928 376.381 C 173.488 376.381,173.443 372.834,172.876 372.267 C 172.323 371.713,171.048 371.660,171.048 372.190 M177.905 372.164 C 177.905 372.359,178.289 372.573,178.758 372.640 C 180.065 372.827,180.085 374.006,178.785 374.201 L 177.714 374.362 178.757 374.419 C 179.583 374.464,179.782 374.646,179.710 375.291 C 179.660 375.740,179.833 376.183,180.095 376.275 C 180.714 376.495,180.737 374.114,180.129 372.780 C 179.701 371.840,177.905 371.343,177.905 372.164 M182.095 374.362 C 182.095 377.208,182.756 377.306,182.863 374.476 C 182.953 372.098,182.911 371.810,182.476 371.810 C 182.260 371.810,182.095 372.914,182.095 374.362 M184.170 372.394 C 184.723 372.812,184.888 373.344,184.820 374.488 C 184.677 376.917,185.303 377.227,185.565 374.857 C 185.807 372.666,185.364 371.794,184.022 371.822 C 183.548 371.831,183.578 371.947,184.170 372.394 M186.476 372.190 C 186.606 372.400,186.950 372.571,187.241 372.571 C 187.607 372.571,187.813 373.186,187.910 374.571 L 188.050 376.571 188.120 374.422 C 188.174 372.768,188.051 372.219,187.588 372.041 C 186.690 371.696,186.211 371.761,186.476 372.190 M192.462 372.584 C 192.208 372.990,192.000 373.668,192.000 374.090 C 192.000 374.609,191.748 374.857,191.221 374.857 C 190.551 374.857,190.472 375.032,190.657 376.095 C 190.888 377.417,190.632 378.040,189.714 378.389 C 189.235 378.571,189.243 378.611,189.763 378.637 C 190.598 378.677,190.915 378.188,192.161 374.931 C 193.219 372.168,193.348 371.165,192.462 372.584 M189.782 373.334 C 190.134 374.322,190.294 374.483,190.403 373.955 C 190.483 373.564,190.270 372.964,189.928 372.622 C 189.354 372.048,189.343 372.101,189.782 373.334 M177.244 375.429 C 177.330 376.534,179.048 377.466,179.048 376.407 C 179.048 376.183,178.785 376.000,178.464 376.000 C 178.143 376.000,177.717 375.614,177.518 375.143 C 177.186 374.360,177.163 374.385,177.244 375.429 " stroke="none" fill="#fbfbfb" fill-rule="evenodd"></path></g></svg>