<svg id="svg" version="1.1" xmlns="http://www.w3.org/2000/svg" xmlns:xlink="http://www.w3.org/1999/xlink" width="400" height="400" viewBox="0, 0, 400,400"><g id="svgg"><path id="path0" d="M346.468 83.997 C 344.852 84.379,342.898 86.140,342.151 87.887 C 341.711 88.916,341.597 92.852,341.586 107.487 L 341.571 125.800 336.991 129.800 C 334.472 132.000,332.408 133.940,332.405 134.112 C 332.402 134.284,332.831 135.454,333.357 136.712 C 334.353 139.095,335.745 143.916,336.182 146.500 C 336.503 148.397,337.007 148.382,339.000 146.417 C 339.880 145.549,340.825 144.830,341.100 144.820 C 341.974 144.785,341.816 292.039,340.940 294.752 C 340.131 297.255,338.148 299.644,335.666 301.103 L 333.800 302.200 268.400 302.304 C 232.430 302.362,193.931 302.362,182.847 302.304 L 162.694 302.200 172.426 293.600 C 177.779 288.870,184.615 282.840,187.617 280.200 C 190.619 277.560,194.409 274.217,196.038 272.771 C 197.667 271.325,203.050 266.568,208.000 262.200 C 212.950 257.832,218.260 253.144,219.800 251.783 C 221.340 250.422,227.640 244.858,233.800 239.418 C 239.960 233.977,246.350 228.318,248.000 226.842 C 249.650 225.365,253.340 222.112,256.200 219.612 C 259.060 217.112,263.020 213.596,265.000 211.799 C 266.980 210.002,269.755 207.557,271.167 206.366 C 274.525 203.533,274.524 203.476,271.113 202.406 C 269.511 201.903,266.462 200.587,264.337 199.482 L 260.473 197.472 254.342 202.836 C 250.970 205.786,247.488 208.856,246.605 209.657 C 245.722 210.458,243.189 212.708,240.976 214.657 C 235.774 219.237,213.115 239.254,201.400 249.619 C 188.630 260.918,174.223 273.653,171.400 276.138 C 169.640 277.687,163.816 282.835,158.458 287.577 C 147.462 297.310,148.005 296.892,147.182 296.266 C 146.846 296.010,135.777 284.102,122.585 269.804 C 109.393 255.506,97.509 242.636,96.176 241.204 C 94.843 239.772,85.187 229.314,74.717 217.965 C 63.123 205.397,55.235 197.159,54.541 196.892 C 52.328 196.041,51.623 195.963,50.038 196.390 C 45.407 197.637,43.323 202.824,45.900 206.689 C 46.505 207.597,50.150 211.733,54.000 215.881 C 57.850 220.030,67.469 230.438,75.376 239.012 C 83.283 247.585,90.843 255.772,92.176 257.205 C 93.509 258.638,103.223 269.168,113.761 280.605 C 124.300 292.042,133.816 302.327,134.908 303.460 L 136.894 305.521 136.377 307.538 C 135.430 311.233,137.496 314.978,141.019 315.957 C 143.615 316.677,330.834 316.544,334.903 315.819 C 344.339 314.136,352.383 306.497,354.595 297.117 C 355.456 293.464,355.509 89.897,354.649 87.887 C 353.886 86.102,352.097 84.555,350.200 84.039 C 348.417 83.555,348.342 83.554,346.468 83.997 M280.200 113.435 C 251.421 118.501,235.800 151.253,250.265 176.200 C 269.930 210.116,320.972 202.011,328.773 163.734 C 334.682 134.734,309.187 108.333,280.200 113.435 M87.447 128.420 C 72.770 132.100,67.304 150.476,77.637 161.401 C 90.000 174.473,111.888 165.620,111.757 147.600 C 111.666 135.062,99.437 125.414,87.447 128.420 M296.309 129.526 C 325.212 140.226,317.593 182.691,286.800 182.528 C 262.706 182.400,250.918 153.223,268.000 135.995 C 275.390 128.541,286.681 125.961,296.309 129.526 M283.671 138.403 C 273.898 140.469,267.672 151.100,270.789 160.400 C 276.408 177.163,300.345 176.016,304.036 158.807 C 306.582 146.934,295.559 135.890,283.671 138.403 M98.800 171.436 C 85.807 174.878,79.634 189.498,88.005 197.000 L 88.898 197.800 88.583 196.000 C 85.912 180.704,102.612 171.335,112.915 182.350 C 116.489 186.171,116.632 186.865,118.197 208.000 C 118.997 218.813,118.820 218.109,122.141 223.707 C 123.738 226.398,126.114 230.444,127.422 232.697 C 128.730 234.951,130.006 236.751,130.257 236.697 C 130.929 236.554,153.605 216.490,153.594 216.048 C 153.591 215.912,152.286 214.349,150.694 212.575 C 147.062 208.528,143.787 204.810,139.793 200.200 C 138.078 198.220,136.187 196.060,135.591 195.400 C 114.528 172.065,109.293 168.655,98.800 171.436 M235.200 180.294 C 234.870 180.421,226.320 184.300,216.200 188.915 C 206.080 193.529,196.090 198.078,194.000 199.022 C 186.143 202.573,186.330 202.428,179.114 210.526 C 174.982 215.163,164.462 226.725,161.941 229.400 C 157.630 233.975,156.409 236.489,156.404 240.800 C 156.391 252.090,169.810 258.061,178.265 250.527 C 179.540 249.392,180.517 247.927,193.189 228.151 L 200.141 217.302 214.971 210.579 C 240.714 198.908,242.765 197.934,244.232 196.689 C 251.987 190.106,244.591 176.681,235.200 180.294 M99.600 182.592 C 93.164 184.671,91.918 188.679,94.030 200.509 C 95.724 209.990,97.135 217.993,97.786 221.800 C 98.290 224.746,98.690 225.603,102.832 232.600 C 105.306 236.780,107.898 241.190,108.591 242.400 C 116.109 255.528,117.403 257.185,120.766 257.992 C 126.095 259.270,130.929 255.469,130.929 250.000 C 130.929 247.361,131.212 247.931,123.000 234.000 C 114.849 220.170,114.400 219.314,114.401 217.603 C 114.404 214.886,112.410 191.776,112.008 189.873 C 110.850 184.381,104.890 180.883,99.600 182.592 M148.378 229.455 C 143.000 234.216,137.385 239.187,135.900 240.502 C 132.342 243.655,131.324 241.682,143.192 254.639 C 159.680 272.642,161.435 273.070,171.722 261.606 C 174.987 257.968,174.984 257.951,171.116 258.247 C 154.274 259.535,145.656 240.408,157.397 227.800 C 161.085 223.840,161.083 223.845,159.743 222.233 C 159.114 221.477,158.500 220.845,158.378 220.829 C 158.256 220.813,153.756 224.695,148.378 229.455 " stroke="none" fill="#353535" fill-rule="evenodd"></path><path id="path1" d="M0.000 200.000 L 0.000 400.000 200.000 400.000 L 400.000 400.000 400.000 200.000 L 400.000 0.000 200.000 0.000 L 0.000 0.000 0.000 200.000 M350.200 84.039 C 352.097 84.555,353.886 86.102,354.649 87.887 C 355.509 89.897,355.456 293.464,354.595 297.117 C 352.383 306.497,344.339 314.136,334.903 315.819 C 330.834 316.544,143.615 316.677,141.019 315.957 C 137.496 314.978,135.430 311.233,136.377 307.538 L 136.894 305.521 134.908 303.460 C 133.816 302.327,124.300 292.042,113.761 280.605 C 103.223 269.168,93.509 258.638,92.176 257.205 C 90.843 255.772,83.283 247.585,75.376 239.012 C 67.469 230.438,57.850 220.030,54.000 215.881 C 50.150 211.733,46.505 207.597,45.900 206.689 C 43.323 202.824,45.407 197.637,50.038 196.390 C 51.623 195.963,52.328 196.041,54.541 196.892 C 55.235 197.159,63.123 205.397,74.717 217.965 C 85.187 229.314,94.843 239.772,96.176 241.204 C 97.509 242.636,109.393 255.506,122.585 269.804 C 135.777 284.102,146.846 296.010,147.182 296.266 C 148.005 296.892,147.462 297.310,158.458 287.577 C 163.816 282.835,169.640 277.687,171.400 276.138 C 174.223 273.653,188.630 260.918,201.400 249.619 C 213.115 239.254,235.774 219.237,240.976 214.657 C 243.189 212.708,245.722 210.458,246.605 209.657 C 247.488 208.856,250.970 205.786,254.342 202.836 L 260.473 197.472 264.337 199.482 C 266.462 200.587,269.511 201.903,271.113 202.406 C 274.524 203.476,274.525 203.533,271.167 206.366 C 269.755 207.557,266.980 210.002,265.000 211.799 C 263.020 213.596,259.060 217.112,256.200 219.612 C 253.340 222.112,249.650 225.365,248.000 226.842 C 246.350 228.318,239.960 233.977,233.800 239.418 C 227.640 244.858,221.340 250.422,219.800 251.783 C 218.260 253.144,212.950 257.832,208.000 262.200 C 203.050 266.568,197.667 271.325,196.038 272.771 C 194.409 274.217,190.619 277.560,187.617 280.200 C 184.615 282.840,177.779 288.870,172.426 293.600 L 162.694 302.200 182.847 302.304 C 193.931 302.362,232.430 302.362,268.400 302.304 L 333.800 302.200 335.666 301.103 C 338.148 299.644,340.131 297.255,340.940 294.752 C 341.816 292.039,341.974 144.785,341.100 144.820 C 340.825 144.830,339.880 145.549,339.000 146.417 C 337.007 148.382,336.503 148.397,336.182 146.500 C 335.745 143.916,334.353 139.095,333.357 136.712 C 332.831 135.454,332.402 134.284,332.405 134.112 C 332.408 133.940,334.472 132.000,336.991 129.800 L 341.571 125.800 341.586 107.487 C 341.597 92.852,341.711 88.916,342.151 87.887 C 343.151 85.550,345.496 83.905,348.200 83.643 C 348.420 83.622,349.320 83.800,350.200 84.039 M294.030 113.436 C 324.325 118.546,339.556 153.134,322.679 178.499 C 301.392 210.491,251.995 200.356,245.419 162.647 C 240.458 134.196,265.686 108.655,294.030 113.436 M99.716 129.584 C 114.777 135.887,116.037 157.117,101.816 164.993 C 91.536 170.687,79.021 166.718,74.174 156.226 C 66.561 139.749,83.009 122.593,99.716 129.584 M282.400 128.251 C 261.802 132.215,252.862 157.026,266.311 172.900 C 282.786 192.344,314.433 180.748,314.394 155.280 C 314.368 138.410,298.643 125.125,282.400 128.251 M293.662 139.389 C 304.980 143.920,307.985 158.624,299.381 167.367 C 291.922 174.946,279.074 173.840,273.101 165.106 C 263.477 151.034,277.848 133.058,293.662 139.389 M108.616 171.417 C 114.108 172.839,119.776 177.878,135.591 195.400 C 136.187 196.060,138.078 198.220,139.793 200.200 C 143.787 204.810,147.062 208.528,150.694 212.575 C 152.286 214.349,153.591 215.912,153.594 216.048 C 153.605 216.490,130.929 236.554,130.257 236.697 C 130.006 236.751,128.730 234.951,127.422 232.697 C 126.114 230.444,123.738 226.398,122.141 223.707 C 118.820 218.109,118.997 218.813,118.197 208.000 C 116.632 186.865,116.489 186.171,112.915 182.350 C 102.612 171.335,85.912 180.704,88.583 196.000 L 88.898 197.800 88.005 197.000 C 84.801 194.128,83.465 187.063,85.226 182.303 C 88.140 174.428,99.616 169.087,108.616 171.417 M241.913 180.620 C 248.303 183.285,249.582 192.148,244.232 196.689 C 242.765 197.934,240.714 198.908,214.971 210.579 L 200.141 217.302 193.189 228.151 C 180.517 247.927,179.540 249.392,178.265 250.527 C 169.810 258.061,156.391 252.090,156.404 240.800 C 156.409 236.489,157.630 233.975,161.941 229.400 C 164.462 226.725,174.982 215.163,179.114 210.526 C 186.330 202.428,186.143 202.573,194.000 199.022 C 196.090 198.078,206.080 193.529,216.200 188.915 C 226.320 184.300,234.870 180.421,235.200 180.294 C 236.424 179.823,240.474 180.020,241.913 180.620 M107.254 183.468 C 109.665 184.780,111.438 187.169,112.008 189.873 C 112.410 191.776,114.404 214.886,114.401 217.603 C 114.400 219.314,114.849 220.170,123.000 234.000 C 131.212 247.931,130.929 247.361,130.929 250.000 C 130.929 255.469,126.095 259.270,120.766 257.992 C 117.403 257.185,116.109 255.528,108.591 242.400 C 107.898 241.190,105.306 236.780,102.832 232.600 C 98.690 225.603,98.290 224.746,97.786 221.800 C 97.135 217.993,95.724 209.990,94.030 200.509 C 92.517 192.033,92.482 190.200,93.786 187.627 C 96.365 182.538,102.221 180.729,107.254 183.468 M159.743 222.233 C 161.083 223.845,161.085 223.840,157.397 227.800 C 151.788 233.823,150.374 241.741,153.704 248.482 C 157.045 255.246,163.442 258.834,171.116 258.247 C 174.984 257.951,174.987 257.968,171.722 261.606 C 161.435 273.070,159.680 272.642,143.192 254.639 C 131.324 241.682,132.342 243.655,135.900 240.502 C 153.591 224.829,158.190 220.804,158.378 220.829 C 158.500 220.845,159.114 221.477,159.743 222.233 " stroke="none" fill="#ffffff" fill-rule="evenodd"></path></g></svg>