<svg id="svg" version="1.1" xmlns="http://www.w3.org/2000/svg" xmlns:xlink="http://www.w3.org/1999/xlink" width="400" height="400" viewBox="0, 0, 400,400"><g id="svgg"><path id="path0" d="M121.437 106.939 C 102.223 109.547,92.432 130.863,102.949 147.188 L 104.187 149.109 124.650 149.112 L 145.113 149.114 146.464 147.060 C 158.496 128.759,143.055 104.005,121.437 106.939 M86.641 134.220 C 85.081 135.003,84.058 136.644,84.058 138.360 C 84.058 139.477,121.223 242.983,125.132 252.753 C 125.684 254.132,127.049 255.395,127.989 255.395 C 128.657 255.395,128.718 255.884,127.051 247.790 C 126.253 243.913,124.802 235.306,123.828 228.663 C 122.854 222.021,121.849 215.934,121.596 215.137 C 121.342 214.340,116.850 201.890,111.614 187.470 C 106.377 173.051,102.093 161.133,102.093 160.987 C 102.093 160.841,115.753 160.682,132.448 160.634 C 162.513 160.548,162.814 160.541,164.090 159.875 C 167.414 158.141,167.872 153.760,164.921 151.924 L 163.768 151.208 131.079 151.121 L 98.389 151.035 95.813 143.894 C 92.547 134.840,91.728 133.656,88.728 133.656 C 88.196 133.656,87.257 133.910,86.641 134.220 M124.458 163.791 C 120.462 166.192,118.519 170.463,118.519 176.845 C 118.519 182.059,125.975 233.085,128.702 246.538 C 131.104 258.383,135.302 277.031,135.970 278.823 C 139.324 287.825,152.903 288.394,156.192 279.672 C 157.156 277.117,157.144 276.982,153.683 249.597 C 150.868 227.325,150.761 226.237,150.418 216.425 C 149.832 199.636,148.937 189.637,147.507 183.897 C 146.520 179.933,146.364 178.375,146.977 178.611 C 149.944 179.749,151.708 192.995,152.506 220.129 C 152.679 225.990,153.094 229.964,155.620 249.919 C 157.224 262.585,158.606 273.913,158.691 275.095 C 158.964 278.877,157.364 278.999,195.439 272.290 C 213.213 269.158,227.864 266.720,227.999 266.872 C 228.486 267.425,241.236 313.959,242.028 318.078 C 243.902 327.810,246.240 330.938,252.348 331.878 C 259.185 332.932,266.414 326.961,266.905 319.855 C 267.050 317.762,253.137 248.603,251.652 244.038 C 250.703 241.121,247.560 237.828,243.968 235.990 C 241.923 234.943,234.424 234.583,228.180 235.232 C 225.388 235.522,216.894 235.884,208.052 236.089 C 196.022 236.368,191.378 236.601,186.312 237.179 C 182.770 237.583,179.815 237.866,179.747 237.807 C 179.678 237.749,177.623 226.718,175.179 213.295 C 172.178 196.809,170.417 187.916,169.751 185.891 C 167.107 177.841,163.258 171.427,157.425 165.351 L 154.823 162.641 140.597 162.641 L 126.371 162.641 124.458 163.791 M188.958 276.691 L 157.465 282.144 155.463 284.178 C 151.571 288.135,145.833 288.979,140.524 286.375 C 135.921 284.118,133.724 291.674,138.131 294.603 C 139.542 295.541,140.749 295.529,146.474 294.525 C 148.999 294.082,151.133 293.720,151.217 293.720 C 151.300 293.720,151.369 305.531,151.369 319.968 L 151.369 346.216 164.090 346.216 L 176.812 346.216 176.812 317.713 C 176.812 300.459,176.929 289.211,177.110 289.211 C 179.884 289.211,224.054 281.067,224.938 280.392 C 228.913 277.361,226.677 271.079,221.669 271.206 C 220.999 271.223,206.279 273.691,188.958 276.691 M265.785 273.288 C 263.930 274.400,262.802 276.380,262.802 278.527 C 262.802 280.796,267.787 301.906,268.654 303.309 C 271.786 308.377,280.515 306.021,280.515 300.107 C 280.515 298.646,275.427 277.264,274.721 275.758 C 273.272 272.668,268.857 271.447,265.785 273.288 " stroke="none" fill="#000000" fill-rule="evenodd"></path><path id="path1" d="M0.000 200.000 L 0.000 400.000 200.000 400.000 L 400.000 400.000 400.000 200.000 L 400.000 0.000 200.000 0.000 L 0.000 0.000 0.000 200.000 M131.079 107.609 C 148.287 111.955,156.201 132.249,146.464 147.060 L 145.113 149.114 124.650 149.112 L 104.187 149.109 102.949 147.188 C 90.039 127.149,108.058 101.794,131.079 107.609 M90.815 134.220 C 92.467 135.050,92.981 136.044,95.813 143.894 L 98.389 151.035 131.079 151.121 L 163.768 151.208 164.921 151.924 C 167.872 153.760,167.414 158.141,164.090 159.875 C 162.814 160.541,162.513 160.548,132.448 160.634 C 115.753 160.682,102.093 160.841,102.093 160.987 C 102.093 161.133,106.377 173.051,111.614 187.470 C 116.850 201.890,121.342 214.340,121.596 215.137 C 121.849 215.934,122.854 222.021,123.828 228.663 C 124.802 235.306,126.253 243.913,127.051 247.790 C 128.718 255.884,128.657 255.395,127.989 255.395 C 127.049 255.395,125.684 254.132,125.132 252.753 C 121.223 242.983,84.058 139.477,84.058 138.360 C 84.058 135.893,86.278 133.656,88.728 133.656 C 89.259 133.656,90.198 133.910,90.815 134.220 M157.425 165.351 C 163.258 171.427,167.107 177.841,169.751 185.891 C 170.417 187.916,172.178 196.809,175.179 213.295 C 177.623 226.718,179.678 237.749,179.747 237.807 C 179.815 237.866,182.770 237.583,186.312 237.179 C 191.378 236.601,196.022 236.368,208.052 236.089 C 216.894 235.884,225.388 235.522,228.180 235.232 C 234.424 234.583,241.923 234.943,243.968 235.990 C 247.560 237.828,250.703 241.121,251.652 244.038 C 253.137 248.603,267.050 317.762,266.905 319.855 C 266.414 326.961,259.185 332.932,252.348 331.878 C 246.240 330.938,243.902 327.810,242.028 318.078 C 241.236 313.959,228.486 267.425,227.999 266.872 C 227.864 266.720,213.213 269.158,195.439 272.290 C 157.364 278.999,158.964 278.877,158.691 275.095 C 158.606 273.913,157.224 262.585,155.620 249.919 C 153.094 229.964,152.679 225.990,152.506 220.129 C 151.708 192.995,149.944 179.749,146.977 178.611 C 146.364 178.375,146.520 179.933,147.507 183.897 C 148.937 189.637,149.832 199.636,150.418 216.425 C 150.761 226.237,150.868 227.325,153.683 249.597 C 157.144 276.982,157.156 277.117,156.192 279.672 C 152.903 288.394,139.324 287.825,135.970 278.823 C 135.302 277.031,131.104 258.383,128.702 246.538 C 125.975 233.085,118.519 182.059,118.519 176.845 C 118.519 170.463,120.462 166.192,124.458 163.791 L 126.371 162.641 140.597 162.641 L 154.823 162.641 157.425 165.351 M223.961 271.624 C 227.459 273.086,228.012 278.048,224.938 280.392 C 224.054 281.067,179.884 289.211,177.110 289.211 C 176.929 289.211,176.812 300.459,176.812 317.713 L 176.812 346.216 164.090 346.216 L 151.369 346.216 151.369 319.968 C 151.369 305.531,151.300 293.720,151.217 293.720 C 151.133 293.720,148.999 294.082,146.474 294.525 C 140.749 295.529,139.542 295.541,138.131 294.603 C 133.724 291.674,135.921 284.118,140.524 286.375 C 145.833 288.979,151.571 288.135,155.463 284.178 L 157.465 282.144 188.958 276.691 C 222.220 270.931,222.281 270.922,223.961 271.624 M272.563 273.424 C 274.706 274.783,275.014 275.628,277.941 288.168 C 280.858 300.670,280.826 300.398,279.630 302.760 C 277.441 307.082,271.179 307.395,268.654 303.309 C 267.787 301.906,262.802 280.796,262.802 278.527 C 262.802 273.636,268.335 270.742,272.563 273.424 " stroke="none" fill="#ffffff" fill-rule="evenodd"></path></g></svg>