<svg id="svg" version="1.1" xmlns="http://www.w3.org/2000/svg" xmlns:xlink="http://www.w3.org/1999/xlink" width="400" height="400" viewBox="0, 0, 400,400"><g id="svgg"><path id="path0" d="M66.823 24.884 C 63.499 26.597,62.621 28.225,62.466 32.958 L 62.332 37.044 60.336 37.991 C 58.266 38.974,54.800 42.493,54.800 43.613 C 54.800 43.958,54.575 44.465,54.300 44.740 C 53.923 45.117,53.800 48.086,53.800 56.800 C 53.800 65.515,53.923 68.483,54.300 68.860 C 54.575 69.135,54.800 69.650,54.800 70.004 C 54.800 71.015,58.412 74.711,60.400 75.734 L 62.200 76.661 62.400 80.694 C 62.795 88.668,64.175 89.400,78.800 89.400 C 91.159 89.400,91.668 89.303,93.978 86.501 L 95.200 85.018 95.200 74.942 C 95.200 62.152,94.182 63.600,103.176 63.600 C 111.599 63.600,111.356 63.664,110.510 61.667 C 109.479 59.237,109.130 57.576,108.859 53.800 L 108.600 50.200 102.000 50.000 L 95.400 49.800 95.200 39.099 L 95.000 28.398 93.911 27.034 C 91.724 24.295,91.403 24.230,79.400 24.092 C 68.807 23.970,68.566 23.986,66.823 24.884 M309.214 24.769 C 308.232 25.167,306.840 26.173,306.121 27.006 L 304.813 28.518 304.706 39.159 L 304.600 49.800 298.063 50.000 L 291.525 50.200 291.418 53.423 C 291.359 55.195,291.106 57.029,290.855 57.497 C 290.605 57.965,290.400 58.773,290.400 59.294 C 290.400 59.814,290.239 60.411,290.042 60.620 C 289.845 60.829,289.562 61.581,289.412 62.291 L 289.140 63.583 296.870 63.691 L 304.600 63.800 304.800 74.501 L 305.000 85.202 306.103 86.584 C 308.257 89.281,308.896 89.400,321.200 89.400 C 336.043 89.400,337.189 88.787,337.600 80.630 L 337.800 76.661 339.600 75.712 C 341.991 74.452,344.172 72.273,345.289 70.029 C 346.380 67.838,346.738 45.778,345.700 44.740 C 345.425 44.465,345.200 43.958,345.200 43.613 C 345.200 42.532,341.570 38.778,339.641 37.864 L 337.800 36.991 337.600 32.996 C 337.341 27.826,336.610 26.521,333.000 24.786 C 330.654 23.659,311.986 23.645,309.214 24.769 M126.314 41.032 C 119.769 43.403,116.444 50.202,118.567 56.872 C 118.940 58.042,119.699 60.260,120.254 61.800 C 121.264 64.600,121.474 65.151,122.388 67.400 C 122.656 68.060,123.141 69.410,123.465 70.400 C 123.789 71.390,124.295 72.740,124.591 73.400 C 124.886 74.060,125.578 75.952,126.129 77.605 C 126.680 79.258,127.349 81.148,127.615 81.805 C 128.560 84.136,128.747 84.632,129.800 87.600 C 130.385 89.250,131.015 90.960,131.200 91.400 C 131.385 91.840,132.013 93.550,132.596 95.200 C 133.180 96.850,133.841 98.650,134.066 99.200 C 134.292 99.750,134.738 101.010,135.058 102.000 C 135.378 102.990,135.790 104.160,135.972 104.600 C 136.155 105.040,136.614 106.210,136.993 107.200 C 137.372 108.190,137.844 109.313,138.041 109.695 C 138.238 110.077,138.400 110.741,138.400 111.171 C 138.400 111.601,138.566 112.055,138.769 112.181 C 138.972 112.306,139.265 112.986,139.420 113.691 C 139.575 114.397,139.848 115.250,140.026 115.587 C 140.204 115.924,140.826 117.550,141.407 119.200 C 141.989 120.850,142.615 122.560,142.800 123.000 C 142.985 123.440,143.616 125.150,144.203 126.800 C 144.790 128.450,145.867 131.420,146.596 133.400 C 147.325 135.380,148.238 137.900,148.627 139.000 C 149.015 140.100,149.482 141.171,149.666 141.380 C 149.850 141.589,150.000 142.144,150.000 142.613 C 150.000 143.083,150.123 143.590,150.274 143.741 C 150.569 144.036,150.943 145.025,152.867 150.600 C 153.550 152.580,154.265 154.371,154.455 154.580 C 154.645 154.789,154.800 155.338,154.800 155.800 C 154.800 156.262,154.950 156.811,155.134 157.020 C 155.318 157.229,155.782 158.300,156.165 159.400 C 156.548 160.500,157.014 161.760,157.199 162.200 C 157.384 162.640,158.011 164.350,158.593 166.000 C 159.174 167.650,159.796 169.276,159.974 169.613 C 160.152 169.950,160.425 170.803,160.580 171.509 C 160.735 172.214,161.028 172.894,161.231 173.019 C 161.434 173.145,161.600 173.599,161.600 174.029 C 161.600 174.459,161.762 175.123,161.959 175.505 C 162.156 175.887,162.625 177.010,163.000 178.000 C 163.375 178.990,163.851 180.125,164.058 180.522 C 164.967 182.267,164.945 184.915,163.615 233.200 C 163.412 240.570,163.139 247.590,163.008 248.800 C 162.779 250.912,162.382 262.088,161.624 287.800 C 161.429 294.400,161.156 300.880,161.017 302.200 C 160.879 303.520,160.580 310.180,160.353 317.000 C 159.506 342.522,159.255 349.570,158.969 355.906 C 158.676 362.413,158.838 363.918,160.144 366.800 C 161.177 369.078,164.588 373.200,165.441 373.200 C 165.571 373.200,166.168 373.550,166.769 373.978 C 170.781 376.835,177.927 376.729,182.679 373.743 C 187.643 370.624,189.697 367.074,190.400 360.400 C 190.574 358.750,190.922 355.870,191.172 354.000 C 191.746 349.718,192.267 345.318,192.805 340.200 C 193.037 338.000,193.486 334.310,193.803 332.000 C 194.120 329.690,194.479 326.810,194.600 325.600 C 195.203 319.582,195.567 316.351,195.931 313.800 C 196.150 312.260,196.529 309.200,196.773 307.000 C 197.526 300.194,197.936 296.738,198.432 293.000 C 198.695 291.020,199.020 287.930,199.155 286.133 C 199.290 284.337,199.523 282.744,199.673 282.593 C 200.329 281.937,200.800 283.021,200.800 285.188 C 200.800 286.476,201.070 288.940,201.400 290.665 C 201.730 292.389,202.000 294.589,202.000 295.554 C 202.000 296.519,202.173 298.409,202.385 299.754 C 202.597 301.099,203.050 304.720,203.392 307.800 C 203.735 310.880,204.191 314.401,204.407 315.624 C 204.623 316.847,204.800 318.636,204.800 319.600 C 204.800 320.564,204.974 322.353,205.186 323.576 C 205.606 326.002,206.273 331.176,206.812 336.200 C 207.674 344.227,208.030 347.340,208.622 352.000 C 208.971 354.750,209.406 358.440,209.590 360.200 C 210.616 370.036,216.671 376.011,225.594 375.994 C 236.299 375.973,242.037 368.345,241.156 355.303 C 240.775 349.649,240.510 342.628,239.627 314.800 C 239.407 307.870,239.126 301.570,239.001 300.800 C 238.877 300.030,238.592 293.550,238.368 286.400 C 237.755 266.860,237.303 253.580,236.619 235.000 C 235.773 212.017,235.121 184.014,235.404 182.800 C 235.532 182.250,236.093 180.540,236.651 179.000 C 237.686 176.139,237.930 175.501,238.793 173.400 C 239.064 172.740,239.607 171.210,240.000 170.000 C 240.393 168.790,240.936 167.260,241.207 166.600 C 241.478 165.940,241.848 165.040,242.030 164.600 C 242.211 164.160,242.633 162.990,242.967 162.000 C 244.104 158.630,244.651 157.215,244.926 156.941 C 245.077 156.790,245.200 156.283,245.200 155.813 C 245.200 155.344,245.360 154.789,245.556 154.580 C 245.751 154.371,246.464 152.559,247.140 150.554 C 247.815 148.549,248.577 146.389,248.834 145.754 C 249.090 145.119,249.436 144.240,249.602 143.800 C 250.791 140.654,251.329 139.310,251.641 138.705 C 251.838 138.323,252.000 137.684,252.000 137.285 C 252.000 136.886,252.160 136.389,252.356 136.180 C 252.551 135.971,253.267 134.180,253.946 132.200 C 255.856 126.632,256.231 125.636,256.526 125.341 C 256.677 125.190,256.800 124.683,256.800 124.213 C 256.800 123.744,256.955 123.189,257.144 122.980 C 257.333 122.771,257.820 121.610,258.225 120.400 C 258.630 119.190,259.105 118.029,259.281 117.820 C 259.456 117.611,259.600 117.062,259.600 116.600 C 259.600 116.138,259.755 115.589,259.945 115.380 C 260.135 115.171,260.880 113.290,261.600 111.200 C 262.320 109.110,263.065 107.229,263.255 107.020 C 263.445 106.811,263.600 106.314,263.600 105.915 C 263.600 105.516,263.769 104.877,263.975 104.495 C 264.181 104.113,264.829 102.450,265.414 100.800 C 265.999 99.150,266.714 97.260,267.002 96.600 C 267.291 95.940,267.988 94.050,268.552 92.400 C 270.188 87.607,270.634 86.433,270.926 86.141 C 271.077 85.990,271.200 85.534,271.200 85.128 C 271.200 84.722,271.383 84.077,271.607 83.695 C 272.019 82.992,273.384 79.343,275.832 72.400 C 276.569 70.310,277.358 68.287,277.586 67.905 C 277.814 67.523,278.000 66.878,278.000 66.472 C 278.000 66.066,278.123 65.610,278.274 65.459 C 279.927 63.807,282.492 53.446,281.961 50.572 C 280.172 40.894,268.623 37.161,261.468 43.947 C 260.107 45.238,257.600 49.673,257.600 50.789 C 257.600 51.021,257.431 51.523,257.225 51.905 C 257.019 52.287,256.374 53.950,255.793 55.600 C 254.729 58.620,254.509 59.203,253.607 61.400 C 253.336 62.060,252.793 63.590,252.400 64.800 C 252.007 66.010,251.464 67.540,251.193 68.200 C 250.296 70.386,250.068 70.982,249.365 73.000 C 248.982 74.100,248.518 75.171,248.334 75.380 C 248.150 75.589,248.000 76.144,248.000 76.613 C 248.000 77.083,247.877 77.590,247.726 77.741 C 247.451 78.015,246.904 79.430,245.767 82.800 C 245.433 83.790,245.010 84.960,244.828 85.400 C 243.735 88.034,241.138 95.003,239.985 98.400 C 239.499 99.830,238.944 101.171,238.751 101.380 C 238.558 101.589,238.400 102.086,238.400 102.485 C 238.400 102.884,238.238 103.523,238.041 103.905 C 237.844 104.287,237.372 105.410,236.993 106.400 C 236.614 107.390,236.160 108.560,235.984 109.000 C 235.808 109.440,235.185 111.150,234.600 112.800 C 233.543 115.780,233.348 116.296,232.412 118.600 C 232.144 119.260,231.662 120.610,231.342 121.600 C 231.022 122.590,230.610 123.760,230.428 124.200 C 229.439 126.583,228.759 128.420,228.166 130.306 C 227.802 131.464,227.346 132.510,227.152 132.630 C 226.958 132.749,226.800 133.199,226.800 133.629 C 226.800 134.059,226.633 134.723,226.429 135.105 C 226.224 135.487,225.404 137.600,224.605 139.800 C 223.807 142.000,222.894 144.391,222.577 145.114 C 222.260 145.836,222.000 146.607,222.000 146.828 C 222.000 148.199,220.710 149.192,219.656 148.633 C 209.090 143.021,191.172 143.027,180.344 148.645 C 179.189 149.245,178.000 148.154,178.000 146.494 C 178.000 146.090,177.850 145.589,177.666 145.380 C 177.482 145.171,177.018 144.100,176.635 143.000 C 176.252 141.900,175.786 140.640,175.601 140.200 C 175.416 139.760,174.782 138.050,174.193 136.400 C 173.604 134.750,172.897 132.860,172.621 132.200 C 172.346 131.540,171.928 130.460,171.693 129.800 C 171.459 129.140,170.787 127.250,170.201 125.600 C 169.615 123.950,168.984 122.240,168.799 121.800 C 168.614 121.360,168.148 120.100,167.765 119.000 C 167.382 117.900,166.918 116.829,166.734 116.620 C 166.550 116.411,166.400 115.862,166.400 115.400 C 166.400 114.938,166.248 114.389,166.063 114.180 C 165.878 113.971,165.236 112.360,164.637 110.600 C 164.038 108.840,163.310 106.860,163.020 106.200 C 162.730 105.540,162.255 104.280,161.964 103.400 C 161.674 102.520,161.293 101.629,161.118 101.420 C 160.943 101.211,160.800 100.788,160.800 100.480 C 160.800 100.173,160.545 99.354,160.233 98.660 C 159.921 97.967,159.176 95.960,158.578 94.200 C 157.980 92.440,157.335 90.829,157.145 90.620 C 156.955 90.411,156.800 89.862,156.800 89.400 C 156.800 88.938,156.650 88.389,156.466 88.180 C 156.282 87.971,155.818 86.900,155.435 85.800 C 155.052 84.700,154.586 83.440,154.401 83.000 C 154.216 82.560,153.585 80.850,153.000 79.200 C 152.415 77.550,151.792 75.840,151.616 75.400 C 151.440 74.960,150.986 73.790,150.607 72.800 C 150.228 71.810,149.756 70.687,149.559 70.305 C 149.362 69.923,149.200 69.345,149.200 69.019 C 149.200 68.693,148.905 67.746,148.545 66.914 C 147.665 64.882,147.440 64.297,146.200 60.800 C 145.615 59.150,144.992 57.440,144.816 57.000 C 144.216 55.500,143.274 53.004,142.402 50.600 C 141.182 47.235,140.502 46.025,138.845 44.267 C 135.688 40.918,130.397 39.552,126.314 41.032 M152.000 50.520 C 152.000 50.806,152.150 51.211,152.334 51.420 C 152.518 51.629,152.982 52.700,153.365 53.800 C 153.748 54.900,154.207 56.160,154.383 56.600 C 154.560 57.040,155.020 58.210,155.406 59.200 C 155.793 60.190,156.363 61.585,156.673 62.300 L 157.238 63.600 200.140 63.600 L 243.042 63.600 243.777 61.500 C 244.181 60.345,244.667 59.229,244.856 59.020 C 245.045 58.811,245.200 58.262,245.200 57.800 C 245.200 57.338,245.355 56.789,245.544 56.580 C 245.733 56.371,246.220 55.210,246.625 54.000 C 247.030 52.790,247.505 51.629,247.681 51.420 C 248.886 49.985,249.388 50.000,200.000 50.000 C 160.882 50.000,152.000 50.096,152.000 50.520 M195.000 74.722 C 187.387 76.980,181.970 81.633,178.192 89.161 C 177.427 90.687,176.800 92.132,176.800 92.373 C 176.800 92.614,176.635 93.123,176.433 93.505 C 174.337 97.470,174.321 110.616,176.406 116.200 C 185.249 139.888,210.688 142.270,221.860 120.455 C 222.597 119.016,223.200 117.602,223.200 117.314 C 223.200 117.025,223.360 116.477,223.557 116.095 C 224.750 113.769,225.200 110.677,225.200 104.800 C 225.200 98.923,224.750 95.831,223.557 93.505 C 223.360 93.123,223.200 92.575,223.200 92.286 C 223.200 90.489,218.633 83.485,215.542 80.541 C 210.017 75.278,201.378 72.831,195.000 74.722 " stroke="none" fill="#000000" fill-rule="evenodd"></path><path id="path1" d="M0.000 200.000 L 0.000 400.000 200.000 400.000 L 400.000 400.000 400.000 200.000 L 400.000 0.000 200.000 0.000 L 0.000 0.000 0.000 200.000 M91.511 24.943 C 92.231 25.342,93.311 26.283,93.911 27.034 L 95.000 28.398 95.200 39.099 L 95.400 49.800 102.000 50.000 L 108.600 50.200 108.859 53.800 C 109.130 57.576,109.479 59.237,110.510 61.667 C 111.356 63.664,111.599 63.600,103.176 63.600 C 94.182 63.600,95.200 62.152,95.200 74.942 L 95.200 85.018 93.978 86.501 C 91.668 89.303,91.159 89.400,78.800 89.400 C 64.175 89.400,62.795 88.668,62.400 80.694 L 62.200 76.661 60.400 75.734 C 58.412 74.711,54.800 71.015,54.800 70.004 C 54.800 69.650,54.575 69.135,54.300 68.860 C 53.579 68.140,53.579 45.461,54.300 44.740 C 54.575 44.465,54.800 43.958,54.800 43.613 C 54.800 42.493,58.266 38.974,60.336 37.991 L 62.332 37.044 62.466 32.958 C 62.621 28.225,63.499 26.597,66.823 24.884 C 69.261 23.627,89.223 23.674,91.511 24.943 M333.000 24.786 C 336.610 26.521,337.341 27.826,337.600 32.996 L 337.800 36.991 339.641 37.864 C 341.570 38.778,345.200 42.532,345.200 43.613 C 345.200 43.958,345.425 44.465,345.700 44.740 C 346.738 45.778,346.380 67.838,345.289 70.029 C 344.172 72.273,341.991 74.452,339.600 75.712 L 337.800 76.661 337.600 80.630 C 337.189 88.787,336.043 89.400,321.200 89.400 C 308.896 89.400,308.257 89.281,306.103 86.584 L 305.000 85.202 304.800 74.501 L 304.600 63.800 296.870 63.691 L 289.140 63.583 289.412 62.291 C 289.562 61.581,289.845 60.829,290.042 60.620 C 290.239 60.411,290.400 59.814,290.400 59.294 C 290.400 58.773,290.605 57.965,290.855 57.497 C 291.106 57.029,291.359 55.195,291.418 53.423 L 291.525 50.200 298.063 50.000 L 304.600 49.800 304.706 39.159 L 304.813 28.518 306.121 27.006 C 308.484 24.272,309.625 24.047,321.200 24.031 C 330.457 24.019,331.548 24.089,333.000 24.786 M133.548 41.020 C 138.248 42.657,140.344 44.925,142.402 50.600 C 143.274 53.004,144.216 55.500,144.816 57.000 C 144.992 57.440,145.615 59.150,146.200 60.800 C 147.440 64.297,147.665 64.882,148.545 66.914 C 148.905 67.746,149.200 68.693,149.200 69.019 C 149.200 69.345,149.362 69.923,149.559 70.305 C 149.756 70.687,150.228 71.810,150.607 72.800 C 150.986 73.790,151.440 74.960,151.616 75.400 C 151.792 75.840,152.415 77.550,153.000 79.200 C 153.585 80.850,154.216 82.560,154.401 83.000 C 154.586 83.440,155.052 84.700,155.435 85.800 C 155.818 86.900,156.282 87.971,156.466 88.180 C 156.650 88.389,156.800 88.938,156.800 89.400 C 156.800 89.862,156.955 90.411,157.145 90.620 C 157.335 90.829,157.980 92.440,158.578 94.200 C 159.176 95.960,159.921 97.967,160.233 98.660 C 160.545 99.354,160.800 100.173,160.800 100.480 C 160.800 100.788,160.943 101.211,161.118 101.420 C 161.293 101.629,161.674 102.520,161.964 103.400 C 162.255 104.280,162.730 105.540,163.020 106.200 C 163.310 106.860,164.038 108.840,164.637 110.600 C 165.236 112.360,165.878 113.971,166.063 114.180 C 166.248 114.389,166.400 114.938,166.400 115.400 C 166.400 115.862,166.550 116.411,166.734 116.620 C 166.918 116.829,167.382 117.900,167.765 119.000 C 168.148 120.100,168.614 121.360,168.799 121.800 C 168.984 122.240,169.615 123.950,170.201 125.600 C 170.787 127.250,171.459 129.140,171.693 129.800 C 171.928 130.460,172.346 131.540,172.621 132.200 C 172.897 132.860,173.604 134.750,174.193 136.400 C 174.782 138.050,175.416 139.760,175.601 140.200 C 175.786 140.640,176.252 141.900,176.635 143.000 C 177.018 144.100,177.482 145.171,177.666 145.380 C 177.850 145.589,178.000 146.090,178.000 146.494 C 178.000 148.154,179.189 149.245,180.344 148.645 C 191.172 143.027,209.090 143.021,219.656 148.633 C 220.710 149.192,222.000 148.199,222.000 146.828 C 222.000 146.607,222.260 145.836,222.577 145.114 C 222.894 144.391,223.807 142.000,224.605 139.800 C 225.404 137.600,226.224 135.487,226.429 135.105 C 226.633 134.723,226.800 134.059,226.800 133.629 C 226.800 133.199,226.958 132.749,227.152 132.630 C 227.346 132.510,227.802 131.464,228.166 130.306 C 228.759 128.420,229.439 126.583,230.428 124.200 C 230.610 123.760,231.022 122.590,231.342 121.600 C 231.662 120.610,232.144 119.260,232.412 118.600 C 233.348 116.296,233.543 115.780,234.600 112.800 C 235.185 111.150,235.808 109.440,235.984 109.000 C 236.160 108.560,236.614 107.390,236.993 106.400 C 237.372 105.410,237.844 104.287,238.041 103.905 C 238.238 103.523,238.400 102.884,238.400 102.485 C 238.400 102.086,238.558 101.589,238.751 101.380 C 238.944 101.171,239.499 99.830,239.985 98.400 C 241.138 95.003,243.735 88.034,244.828 85.400 C 245.010 84.960,245.433 83.790,245.767 82.800 C 246.904 79.430,247.451 78.015,247.726 77.741 C 247.877 77.590,248.000 77.083,248.000 76.613 C 248.000 76.144,248.150 75.589,248.334 75.380 C 248.518 75.171,248.982 74.100,249.365 73.000 C 250.068 70.982,250.296 70.386,251.193 68.200 C 251.464 67.540,252.007 66.010,252.400 64.800 C 252.793 63.590,253.336 62.060,253.607 61.400 C 254.509 59.203,254.729 58.620,255.793 55.600 C 256.374 53.950,257.019 52.287,257.225 51.905 C 257.431 51.523,257.600 51.021,257.600 50.789 C 257.600 49.673,260.107 45.238,261.468 43.947 C 268.623 37.161,280.172 40.894,281.961 50.572 C 282.451 53.222,282.299 54.273,280.768 58.800 C 279.031 63.939,278.574 65.159,278.274 65.459 C 278.123 65.610,278.000 66.066,278.000 66.472 C 278.000 66.878,277.814 67.523,277.586 67.905 C 277.358 68.287,276.569 70.310,275.832 72.400 C 273.384 79.343,272.019 82.992,271.607 83.695 C 271.383 84.077,271.200 84.722,271.200 85.128 C 271.200 85.534,271.077 85.990,270.926 86.141 C 270.634 86.433,270.188 87.607,268.552 92.400 C 267.988 94.050,267.291 95.940,267.002 96.600 C 266.714 97.260,265.999 99.150,265.414 100.800 C 264.829 102.450,264.181 104.113,263.975 104.495 C 263.769 104.877,263.600 105.516,263.600 105.915 C 263.600 106.314,263.445 106.811,263.255 107.020 C 263.065 107.229,262.320 109.110,261.600 111.200 C 260.880 113.290,260.135 115.171,259.945 115.380 C 259.755 115.589,259.600 116.138,259.600 116.600 C 259.600 117.062,259.456 117.611,259.281 117.820 C 259.105 118.029,258.630 119.190,258.225 120.400 C 257.820 121.610,257.333 122.771,257.144 122.980 C 256.955 123.189,256.800 123.744,256.800 124.213 C 256.800 124.683,256.677 125.190,256.526 125.341 C 256.231 125.636,255.856 126.632,253.946 132.200 C 253.267 134.180,252.551 135.971,252.356 136.180 C 252.160 136.389,252.000 136.886,252.000 137.285 C 252.000 137.684,251.838 138.323,251.641 138.705 C 251.329 139.310,250.791 140.654,249.602 143.800 C 249.436 144.240,249.090 145.119,248.834 145.754 C 248.577 146.389,247.815 148.549,247.140 150.554 C 246.464 152.559,245.751 154.371,245.556 154.580 C 245.360 154.789,245.200 155.344,245.200 155.813 C 245.200 156.283,245.077 156.790,244.926 156.941 C 244.651 157.215,244.104 158.630,242.967 162.000 C 242.633 162.990,242.211 164.160,242.030 164.600 C 241.848 165.040,241.478 165.940,241.207 166.600 C 240.936 167.260,240.393 168.790,240.000 170.000 C 239.607 171.210,239.064 172.740,238.793 173.400 C 237.930 175.501,237.686 176.139,236.651 179.000 C 236.093 180.540,235.532 182.250,235.404 182.800 C 235.121 184.014,235.773 212.017,236.619 235.000 C 237.303 253.580,237.755 266.860,238.368 286.400 C 238.592 293.550,238.877 300.030,239.001 300.800 C 239.126 301.570,239.407 307.870,239.627 314.800 C 240.510 342.628,240.775 349.649,241.156 355.303 C 242.037 368.345,236.299 375.973,225.594 375.994 C 216.671 376.011,210.616 370.036,209.590 360.200 C 209.406 358.440,208.971 354.750,208.622 352.000 C 208.030 347.340,207.674 344.227,206.812 336.200 C 206.273 331.176,205.606 326.002,205.186 323.576 C 204.974 322.353,204.800 320.564,204.800 319.600 C 204.800 318.636,204.623 316.847,204.407 315.624 C 204.191 314.401,203.735 310.880,203.392 307.800 C 203.050 304.720,202.597 301.099,202.385 299.754 C 202.173 298.409,202.000 296.519,202.000 295.554 C 202.000 294.589,201.730 292.389,201.400 290.665 C 201.070 288.940,200.800 286.476,200.800 285.188 C 200.800 283.021,200.329 281.937,199.673 282.593 C 199.523 282.744,199.290 284.337,199.155 286.133 C 199.020 287.930,198.695 291.020,198.432 293.000 C 197.936 296.738,197.526 300.194,196.773 307.000 C 196.529 309.200,196.150 312.260,195.931 313.800 C 195.567 316.351,195.203 319.582,194.600 325.600 C 194.479 326.810,194.120 329.690,193.803 332.000 C 193.486 334.310,193.037 338.000,192.805 340.200 C 192.267 345.318,191.746 349.718,191.172 354.000 C 190.922 355.870,190.574 358.750,190.400 360.400 C 189.697 367.074,187.643 370.624,182.679 373.743 C 177.927 376.729,170.781 376.835,166.769 373.978 C 166.168 373.550,165.571 373.200,165.441 373.200 C 164.588 373.200,161.177 369.078,160.144 366.800 C 158.838 363.918,158.676 362.413,158.969 355.906 C 159.255 349.570,159.506 342.522,160.353 317.000 C 160.580 310.180,160.879 303.520,161.017 302.200 C 161.156 300.880,161.429 294.400,161.624 287.800 C 162.382 262.088,162.779 250.912,163.008 248.800 C 163.139 247.590,163.412 240.570,163.615 233.200 C 164.945 184.915,164.967 182.267,164.058 180.522 C 163.851 180.125,163.375 178.990,163.000 178.000 C 162.625 177.010,162.156 175.887,161.959 175.505 C 161.762 175.123,161.600 174.459,161.600 174.029 C 161.600 173.599,161.434 173.145,161.231 173.019 C 161.028 172.894,160.735 172.214,160.580 171.509 C 160.425 170.803,160.152 169.950,159.974 169.613 C 159.796 169.276,159.174 167.650,158.593 166.000 C 158.011 164.350,157.384 162.640,157.199 162.200 C 157.014 161.760,156.548 160.500,156.165 159.400 C 155.782 158.300,155.318 157.229,155.134 157.020 C 154.950 156.811,154.800 156.262,154.800 155.800 C 154.800 155.338,154.645 154.789,154.455 154.580 C 154.265 154.371,153.550 152.580,152.867 150.600 C 150.943 145.025,150.569 144.036,150.274 143.741 C 150.123 143.590,150.000 143.083,150.000 142.613 C 150.000 142.144,149.850 141.589,149.666 141.380 C 149.482 141.171,149.015 140.100,148.627 139.000 C 148.238 137.900,147.325 135.380,146.596 133.400 C 145.867 131.420,144.790 128.450,144.203 126.800 C 143.616 125.150,142.985 123.440,142.800 123.000 C 142.615 122.560,141.989 120.850,141.407 119.200 C 140.826 117.550,140.204 115.924,140.026 115.587 C 139.848 115.250,139.575 114.397,139.420 113.691 C 139.265 112.986,138.972 112.306,138.769 112.181 C 138.566 112.055,138.400 111.601,138.400 111.171 C 138.400 110.741,138.238 110.077,138.041 109.695 C 137.844 109.313,137.372 108.190,136.993 107.200 C 136.614 106.210,136.155 105.040,135.972 104.600 C 135.790 104.160,135.378 102.990,135.058 102.000 C 134.738 101.010,134.292 99.750,134.066 99.200 C 133.841 98.650,133.180 96.850,132.596 95.200 C 132.013 93.550,131.385 91.840,131.200 91.400 C 131.015 90.960,130.385 89.250,129.800 87.600 C 128.747 84.632,128.560 84.136,127.615 81.805 C 127.349 81.148,126.680 79.258,126.129 77.605 C 125.578 75.952,124.886 74.060,124.591 73.400 C 124.295 72.740,123.789 71.390,123.465 70.400 C 123.141 69.410,122.656 68.060,122.388 67.400 C 118.700 58.325,117.856 55.223,118.107 51.672 C 118.663 43.844,126.376 38.523,133.548 41.020 M248.000 50.520 C 248.000 50.806,247.856 51.211,247.681 51.420 C 247.505 51.629,247.030 52.790,246.625 54.000 C 246.220 55.210,245.733 56.371,245.544 56.580 C 245.355 56.789,245.200 57.338,245.200 57.800 C 245.200 58.262,245.045 58.811,244.856 59.020 C 244.667 59.229,244.181 60.345,243.777 61.500 L 243.042 63.600 200.140 63.600 L 157.238 63.600 156.673 62.300 C 156.363 61.585,155.793 60.190,155.406 59.200 C 155.020 58.210,154.560 57.040,154.383 56.600 C 154.207 56.160,153.748 54.900,153.365 53.800 C 152.982 52.700,152.518 51.629,152.334 51.420 C 151.074 49.986,150.618 50.000,200.000 50.000 C 239.118 50.000,248.000 50.096,248.000 50.520 M206.600 75.218 C 213.600 77.536,223.200 87.407,223.200 92.286 C 223.200 92.575,223.360 93.123,223.557 93.505 C 224.750 95.831,225.200 98.923,225.200 104.800 C 225.200 110.677,224.750 113.769,223.557 116.095 C 223.360 116.477,223.200 117.025,223.200 117.314 C 223.200 117.602,222.597 119.016,221.860 120.455 C 210.688 142.270,185.249 139.888,176.406 116.200 C 174.321 110.616,174.337 97.470,176.433 93.505 C 176.635 93.123,176.800 92.614,176.800 92.373 C 176.800 92.132,177.427 90.687,178.192 89.161 C 184.166 77.258,195.686 71.604,206.600 75.218 " stroke="none" fill="#fbfbfb" fill-rule="evenodd"></path></g></svg>