<?xml version="1.0" standalone="no"?>
<!DOCTYPE svg PUBLIC "-//W3C//DTD SVG 20010904//EN"
 "http://www.w3.org/TR/2001/REC-SVG-20010904/DTD/svg10.dtd">
<svg version="1.0" xmlns="http://www.w3.org/2000/svg"
 width="512.000000pt" height="512.000000pt" viewBox="0 0 512.000000 512.000000"
 preserveAspectRatio="xMidYMid meet">

<g transform="translate(0.000000,512.000000) scale(0.100000,-0.100000)"
fill="#000000" stroke="none">
<path d="M1845 5101 c-42 -26 -62 -51 -72 -91 l-9 -35 -425 -5 -424 -5 -66
-32 c-79 -39 -140 -102 -177 -181 l-27 -57 -3 -2298 c-2 -2541 -8 -2335 61
-2378 42 -26 108 -21 144 12 56 52 53 -100 53 2365 0 2089 1 2278 16 2304 9
15 31 36 48 46 29 18 59 19 395 22 l364 3 -7 -53 c-14 -120 -19 -438 -7 -535
41 -331 171 -574 374 -700 l57 -36 0 -1643 c0 -1020 4 -1652 10 -1668 5 -14
25 -43 45 -65 98 -109 278 -81 340 52 l25 52 0 803 0 802 40 0 40 0 0 -808 0
-809 23 -44 c28 -53 98 -103 156 -113 87 -14 181 35 221 115 20 38 20 66 20
1683 l0 1645 33 16 c48 23 141 102 192 165 84 103 152 256 187 420 33 160 39
473 13 668 l-8 53 300 -3 c327 -3 330 -4 370 -65 17 -26 18 -151 23 -2314 l5
-2288 21 -27 c11 -15 31 -36 45 -46 63 -47 170 -26 215 41 l24 37 -2 2295 -3
2294 -32 66 c-39 79 -102 140 -181 177 l-57 27 -380 3 -380 3 -20 52 c-17 45
-27 55 -68 76 -44 21 -51 22 -93 11 -52 -15 -90 -55 -100 -105 l-6 -35 -556 2
-556 3 -7 32 c-19 94 -118 142 -194 94z m1359 -363 c39 -198 27 -548 -26 -718
-18 -59 -67 -152 -104 -197 l-35 -43 -439 0 -439 0 -40 53 c-79 105 -123 243
-141 449 -12 140 2 398 26 476 3 9 131 12 597 12 l595 0 6 -32z"/>
<path d="M2480 4573 c-223 -78 -329 -324 -228 -532 32 -65 117 -147 185 -179
52 -24 70 -27 163 -27 99 0 110 2 172 33 184 90 264 308 182 490 -46 104 -130
179 -238 215 -62 21 -176 21 -236 0z"/>
</g>
</svg>
