<svg id="svg" version="1.1" xmlns="http://www.w3.org/2000/svg" xmlns:xlink="http://www.w3.org/1999/xlink" width="400" height="400" viewBox="0, 0, 400,400"><g id="svgg"><path id="path0" d="M0.000 200.000 L 0.000 400.000 200.000 400.000 L 400.000 400.000 400.000 200.000 L 400.000 0.000 200.000 0.000 L 0.000 0.000 0.000 200.000 M190.755 29.495 C 193.588 30.554,197.600 33.692,197.600 34.848 C 197.600 35.073,197.870 35.527,198.200 35.857 C 198.530 36.187,198.800 36.906,198.800 37.455 C 198.800 38.004,198.992 38.812,199.228 39.252 C 199.666 40.071,199.146 41.200,198.331 41.200 C 197.834 41.200,196.800 38.672,196.800 37.459 C 196.800 36.104,195.026 35.026,193.001 35.148 C 192.120 35.202,190.320 34.959,189.000 34.608 C 184.195 33.334,180.550 34.842,179.403 38.581 C 179.069 39.670,178.301 41.076,177.698 41.705 C 175.918 43.561,175.689 49.967,177.328 52.061 C 178.172 53.140,178.439 53.873,178.348 54.861 C 177.887 59.857,180.241 64.262,183.859 65.173 C 184.921 65.441,186.038 65.865,186.341 66.117 C 187.844 67.364,193.227 68.065,195.869 67.356 C 197.310 66.969,197.418 61.743,196.009 60.535 L 195.000 59.671 195.913 58.695 C 196.722 57.832,196.757 57.662,196.213 57.211 C 195.129 56.312,195.418 54.400,196.637 54.400 C 197.338 54.400,197.743 54.659,197.884 55.200 C 198.149 56.211,198.653 56.222,199.186 55.226 C 199.741 54.188,199.724 54.126,198.802 53.885 C 197.457 53.533,197.335 52.383,198.548 51.499 C 199.257 50.983,199.504 50.557,199.268 50.257 C 199.071 50.006,198.791 49.300,198.645 48.689 C 198.393 47.634,198.277 47.584,196.332 47.689 C 193.801 47.826,193.590 47.371,195.360 45.584 C 198.849 42.059,200.145 41.366,200.595 42.783 C 201.078 44.307,200.491 45.198,199.178 44.936 C 198.170 44.734,198.000 44.822,198.000 45.550 C 198.000 46.523,198.139 46.568,199.277 45.959 C 200.608 45.247,200.706 45.919,200.584 54.941 C 200.455 64.505,200.080 66.100,197.414 68.441 C 196.141 69.559,196.000 69.888,195.996 71.741 C 195.989 74.606,195.579 76.800,195.048 76.803 C 194.801 76.804,194.293 77.344,193.919 78.003 C 192.498 80.499,191.466 79.652,191.689 76.172 C 191.952 72.070,191.586 71.641,187.600 71.389 C 182.349 71.057,178.193 68.330,175.984 63.766 C 175.532 62.834,174.902 61.971,174.582 61.848 C 173.834 61.561,173.834 60.015,174.581 58.948 C 175.205 58.057,174.816 51.456,174.097 50.737 C 173.910 50.550,172.648 50.335,171.291 50.258 C 167.944 50.068,167.600 49.706,167.600 46.375 C 167.600 44.875,167.759 43.549,167.954 43.429 C 168.148 43.308,168.431 42.388,168.581 41.384 C 168.864 39.502,170.316 37.031,172.278 35.092 C 174.005 33.388,176.450 31.600,177.055 31.600 C 177.355 31.600,177.600 31.434,177.600 31.232 C 177.600 31.030,178.520 30.559,179.645 30.185 C 180.770 29.811,182.165 29.258,182.745 28.955 C 184.444 28.069,187.493 28.274,190.755 29.495 M189.600 44.200 C 189.600 44.530,189.930 44.800,190.333 44.800 C 191.494 44.800,191.677 45.288,190.698 45.774 C 190.204 46.019,189.743 46.620,189.672 47.109 C 189.496 48.337,187.820 48.723,186.774 47.777 C 185.893 46.979,186.322 46.417,187.820 46.406 C 189.062 46.397,189.603 45.659,189.181 44.549 C 188.954 43.952,188.965 43.600,189.210 43.600 C 189.424 43.600,189.600 43.870,189.600 44.200 M197.600 50.849 C 197.600 51.743,196.321 51.869,195.635 51.042 C 195.277 50.611,195.321 50.336,195.829 49.829 C 196.607 49.050,197.600 49.623,197.600 50.849 M174.657 69.000 C 175.970 75.204,175.772 77.569,174.167 74.851 L 173.488 73.703 171.744 74.880 C 170.785 75.527,170.000 76.208,170.000 76.394 C 170.000 76.893,167.879 76.236,167.693 75.678 C 167.600 75.399,167.922 75.197,168.467 75.194 C 169.755 75.185,170.197 74.811,170.718 73.288 C 170.965 72.567,171.422 71.721,171.735 71.408 C 172.047 71.096,172.428 69.796,172.581 68.520 C 172.734 67.244,172.964 65.760,173.092 65.223 L 173.325 64.246 173.695 65.223 C 173.898 65.760,174.331 67.460,174.657 69.000 M166.800 77.413 C 166.800 77.749,166.485 78.139,166.100 78.279 C 165.715 78.418,164.927 79.085,164.348 79.761 L 163.297 80.989 164.198 81.595 C 164.694 81.928,165.617 82.548,166.250 82.973 C 166.882 83.398,167.884 84.186,168.476 84.725 C 169.105 85.297,169.812 85.604,170.176 85.465 C 171.073 85.120,170.949 83.732,170.000 83.484 C 169.422 83.333,169.200 82.938,169.200 82.061 C 169.200 80.644,169.881 80.024,170.283 81.075 C 170.436 81.474,170.975 82.410,171.481 83.156 C 172.582 84.780,172.596 84.946,171.712 85.831 C 171.062 86.481,171.135 86.508,173.056 86.323 C 174.728 86.163,175.169 86.258,175.547 86.864 C 175.800 87.269,176.436 87.600,176.961 87.600 C 177.485 87.600,178.018 87.870,178.145 88.200 C 178.271 88.530,178.822 88.800,179.369 88.800 C 179.915 88.800,180.822 89.009,181.383 89.265 C 182.627 89.832,182.856 89.631,183.169 87.704 C 183.471 85.845,184.062 85.774,184.629 87.529 C 185.198 89.286,187.054 90.767,188.713 90.786 C 190.180 90.802,190.682 91.527,190.047 92.713 C 189.719 93.326,189.838 93.767,190.616 94.822 C 191.432 95.928,191.600 96.615,191.600 98.854 C 191.600 102.376,190.982 102.713,190.669 99.361 C 190.440 96.905,188.909 94.386,187.658 94.404 C 187.516 94.406,186.917 93.821,186.327 93.104 C 185.158 91.682,181.976 91.342,179.956 92.423 C 178.333 93.292,175.552 93.038,173.841 91.865 C 170.557 89.612,166.517 89.016,165.271 90.600 C 164.254 91.893,164.151 91.869,163.600 90.200 C 163.075 88.608,162.626 88.449,161.907 89.600 C 161.230 90.684,160.477 90.606,159.925 89.394 C 159.570 88.616,159.278 88.451,158.633 88.664 C 158.175 88.815,157.384 88.908,156.875 88.872 C 156.367 88.835,155.290 89.254,154.482 89.802 C 153.675 90.351,152.855 90.800,152.660 90.800 C 152.069 90.800,149.362 93.712,148.630 95.135 C 148.252 95.869,147.411 96.769,146.761 97.135 C 145.248 97.985,145.037 98.888,145.306 103.354 C 145.427 105.359,145.375 107.360,145.191 107.800 C 144.988 108.284,144.845 106.329,144.828 102.844 C 144.805 98.128,144.910 97.008,145.409 96.643 C 145.744 96.398,146.135 95.479,146.277 94.601 C 146.583 92.715,148.329 90.158,150.006 89.138 C 150.663 88.739,151.200 88.251,151.200 88.054 C 151.200 87.858,151.740 87.473,152.400 87.200 C 153.060 86.927,153.600 86.559,153.600 86.383 C 153.600 86.207,154.185 85.940,154.900 85.790 C 156.209 85.514,158.400 83.797,158.400 83.047 C 158.400 82.449,160.468 80.400,161.071 80.400 C 161.358 80.400,161.818 80.040,162.093 79.600 C 162.368 79.160,162.787 78.800,163.024 78.800 C 163.261 78.800,163.847 78.350,164.325 77.800 C 165.291 76.690,166.800 76.453,166.800 77.413 M197.377 78.089 C 197.720 78.578,198.000 79.557,198.000 80.265 C 198.000 80.973,198.196 81.674,198.436 81.822 C 198.696 81.983,198.772 82.626,198.624 83.415 C 198.487 84.142,198.538 84.838,198.736 84.960 C 198.934 85.083,199.197 85.682,199.320 86.292 C 199.823 88.793,205.200 89.971,205.200 87.580 C 205.200 86.137,204.395 84.478,203.214 83.489 C 202.748 83.098,202.475 82.603,202.607 82.388 C 202.915 81.891,204.865 82.329,205.425 83.021 C 205.658 83.310,206.344 83.671,206.948 83.823 C 209.572 84.481,209.657 86.366,207.100 87.183 C 206.275 87.446,205.600 87.807,205.600 87.984 C 205.600 88.927,211.099 89.130,211.455 88.200 C 211.584 87.865,212.178 87.600,212.800 87.600 C 213.422 87.600,214.016 87.865,214.145 88.200 C 214.488 89.094,216.898 88.956,218.025 87.978 C 219.138 87.013,220.699 87.208,221.549 88.418 C 221.851 88.848,222.422 89.200,222.818 89.200 C 223.214 89.200,224.137 89.889,224.869 90.731 C 225.601 91.573,226.515 92.377,226.900 92.518 C 227.321 92.673,227.600 93.189,227.600 93.814 C 227.600 95.246,225.474 95.121,225.269 93.677 C 225.124 92.656,224.000 93.163,224.000 94.249 C 224.000 95.042,223.440 94.928,222.562 93.957 C 221.837 93.155,220.462 92.320,217.800 91.066 C 214.124 89.335,209.200 90.233,209.200 92.634 C 209.200 94.135,204.794 93.545,200.400 91.456 C 199.410 90.985,197.610 90.510,196.400 90.400 C 194.330 90.212,194.192 90.132,194.069 89.051 C 193.876 87.363,194.604 86.882,195.265 88.261 C 195.956 89.702,197.342 89.813,197.535 88.443 C 197.628 87.787,197.341 87.222,196.621 86.643 C 195.602 85.825,195.242 82.871,195.556 77.900 C 195.618 76.922,196.633 77.027,197.377 78.089 M177.594 80.676 C 177.602 81.851,176.922 82.214,176.602 81.206 C 176.246 80.084,176.761 78.495,177.238 79.247 C 177.430 79.551,177.591 80.194,177.594 80.676 M179.166 85.300 C 179.552 86.324,178.908 88.022,178.428 87.245 C 178.144 86.785,178.337 84.400,178.658 84.400 C 178.750 84.400,178.979 84.805,179.166 85.300 M161.267 85.646 C 160.024 86.116,160.356 86.917,161.927 87.239 C 162.625 87.381,163.495 87.746,163.863 88.049 C 164.391 88.485,164.566 88.494,164.701 88.092 C 164.795 87.812,165.417 87.302,166.082 86.958 C 166.748 86.613,167.136 86.190,166.946 86.017 C 166.403 85.522,162.302 85.254,161.267 85.646 M228.955 96.075 C 229.223 97.416,228.770 98.276,228.035 97.822 C 227.561 97.529,227.437 95.497,227.867 95.067 C 228.396 94.537,228.705 94.823,228.955 96.075 M230.646 99.842 C 230.790 100.415,230.806 101.990,230.681 103.342 C 230.540 104.862,230.670 106.716,231.021 108.200 C 231.332 109.520,231.590 111.786,231.594 113.236 C 231.597 114.686,231.971 117.296,232.424 119.036 C 233.118 121.698,233.261 123.572,233.324 130.839 C 233.376 136.702,233.549 139.658,233.864 140.039 C 234.120 140.347,234.455 141.277,234.610 142.104 C 234.764 142.932,235.058 143.712,235.262 143.838 C 235.676 144.094,237.145 146.357,238.670 149.088 C 240.274 151.960,238.939 157.001,235.145 162.400 C 234.201 163.744,233.125 168.050,232.997 171.000 C 232.789 175.798,232.172 177.373,231.273 175.400 C 230.549 173.811,230.000 174.233,230.000 176.376 C 230.000 178.413,230.474 179.167,231.318 178.470 C 231.748 178.114,234.000 178.262,234.000 178.647 C 234.000 178.731,233.640 179.160,233.200 179.600 C 232.296 180.504,232.154 182.482,232.831 184.754 C 233.138 185.786,233.138 186.522,232.832 187.324 C 232.304 188.703,231.774 188.450,231.438 186.659 C 231.298 185.917,230.844 185.002,230.428 184.625 C 230.012 184.249,229.558 183.486,229.418 182.930 C 229.279 182.375,228.783 181.403,228.316 180.772 C 227.769 180.032,227.400 178.803,227.277 177.312 C 227.172 176.041,226.796 174.558,226.443 174.018 C 225.400 172.425,225.415 155.891,226.460 154.946 C 226.867 154.577,227.200 153.799,227.200 153.216 C 227.200 152.633,227.640 151.560,228.177 150.831 C 230.675 147.446,230.517 136.400,227.971 136.400 C 227.736 136.400,227.573 135.496,227.591 134.300 C 227.608 133.145,227.239 130.850,226.771 129.200 C 226.303 127.550,225.777 125.498,225.603 124.640 C 225.428 123.782,225.017 122.929,224.688 122.745 C 224.360 122.562,223.972 121.779,223.827 121.006 C 223.306 118.227,222.417 119.600,222.318 123.335 C 222.230 126.684,221.361 126.590,221.027 123.195 C 220.851 121.411,220.485 120.107,219.978 119.463 C 219.191 118.462,218.905 115.829,219.542 115.436 C 219.940 115.190,220.800 116.910,220.800 117.952 C 220.800 119.126,221.286 119.259,222.254 118.349 L 223.168 117.491 223.648 118.546 C 223.912 119.125,224.437 119.600,224.815 119.600 C 225.193 119.600,225.724 119.868,225.996 120.196 C 226.674 121.012,227.200 120.582,227.200 119.213 C 227.200 118.587,227.650 117.202,228.200 116.137 C 229.527 113.569,230.287 106.981,229.715 103.007 C 229.192 99.368,229.913 96.919,230.646 99.842 M173.640 103.713 C 173.739 105.852,173.639 106.155,172.320 107.734 L 170.893 109.442 171.399 112.221 C 172.150 116.345,172.870 119.374,173.151 119.600 C 173.633 119.987,174.301 121.440,174.579 122.706 C 174.996 124.603,181.595 125.626,182.629 123.953 C 182.749 123.759,183.109 123.600,183.428 123.600 C 185.239 123.600,187.459 121.982,187.284 120.789 C 187.115 119.641,187.679 119.156,188.200 120.000 C 190.131 123.125,193.168 113.319,192.033 107.622 C 191.645 105.672,192.138 103.578,192.824 104.264 C 193.041 104.481,193.384 105.672,193.586 106.911 C 193.787 108.150,194.129 109.494,194.346 109.899 C 195.049 111.212,194.989 116.859,194.259 118.200 C 193.899 118.860,193.604 119.631,193.602 119.913 C 193.601 120.194,193.320 120.533,192.978 120.664 C 192.636 120.795,191.994 121.672,191.552 122.613 C 190.043 125.823,185.311 127.782,182.511 126.355 C 178.055 124.083,174.130 128.120,175.704 133.357 C 176.211 135.046,176.394 141.263,176.032 144.484 C 176.014 144.640,175.533 145.201,174.962 145.730 C 173.939 146.679,173.929 146.739,174.262 150.246 C 174.600 153.795,174.067 159.734,173.208 162.000 C 172.999 162.550,172.743 165.733,172.638 169.074 C 172.499 173.488,172.277 175.478,171.824 176.354 C 170.700 178.528,172.783 181.600,175.380 181.600 C 175.839 181.600,176.841 182.015,177.607 182.522 C 180.512 184.446,192.204 185.427,193.901 183.890 C 194.770 183.103,195.263 183.421,195.778 185.100 C 196.107 186.173,198.400 186.435,198.400 185.400 C 198.400 185.070,198.220 184.800,198.000 184.800 C 197.100 184.800,197.681 183.596,198.700 183.349 C 199.305 183.203,200.254 182.767,200.808 182.380 C 201.680 181.771,201.919 181.751,202.573 182.230 C 204.465 183.613,207.748 181.003,208.220 177.739 C 208.496 175.832,209.491 173.600,210.065 173.600 C 210.227 173.600,210.169 173.057,209.938 172.394 C 209.706 171.730,209.616 170.515,209.736 169.694 C 210.155 166.830,210.503 165.397,210.899 164.900 C 211.165 164.567,211.163 164.400,210.892 164.400 C 210.669 164.400,210.363 163.905,210.212 163.300 C 210.061 162.695,209.665 161.898,209.333 161.529 C 208.985 161.143,208.833 160.527,208.974 160.081 C 209.110 159.655,209.049 158.856,208.840 158.306 C 208.596 157.663,208.605 156.753,208.867 155.753 C 209.091 154.899,209.367 153.621,209.479 152.914 C 210.041 149.392,210.985 150.504,211.421 155.200 C 211.574 156.850,211.882 158.650,212.105 159.200 C 212.779 160.859,212.910 167.433,212.281 168.062 C 210.759 169.587,210.750 175.774,212.261 182.400 C 212.587 183.830,213.039 185.900,213.264 187.000 C 213.490 188.100,214.018 189.903,214.438 191.008 C 214.857 192.112,215.200 193.195,215.200 193.414 C 215.200 193.633,215.534 194.439,215.941 195.206 C 216.349 195.973,216.915 197.320,217.199 198.200 C 217.484 199.080,218.050 200.229,218.458 200.754 C 218.866 201.279,219.200 201.890,219.200 202.112 C 219.200 203.355,221.472 206.013,222.738 206.251 C 225.347 206.743,227.039 205.788,226.861 203.926 C 226.629 201.487,229.528 197.180,231.017 197.751 C 231.741 198.029,231.761 198.581,231.072 199.271 C 230.172 200.173,230.003 201.633,230.679 202.665 C 231.148 203.380,231.362 205.066,231.511 209.214 C 231.621 212.286,231.867 214.800,232.056 214.800 C 232.245 214.800,232.400 214.622,232.400 214.405 C 232.400 214.051,235.288 212.000,235.787 212.000 C 235.898 212.000,236.256 212.639,236.583 213.420 C 237.098 214.654,237.279 214.786,237.962 214.420 C 239.603 213.542,240.187 214.288,238.938 215.669 C 238.134 216.557,237.285 216.601,236.401 215.801 C 235.807 215.263,235.645 215.300,234.835 216.163 C 233.845 217.216,232.207 217.074,230.813 215.812 C 230.441 215.475,229.782 215.200,229.349 215.200 C 228.165 215.200,227.601 214.448,228.000 213.400 C 228.611 211.793,226.691 211.053,224.284 211.968 L 223.316 212.336 223.911 214.868 C 224.239 216.261,224.760 217.889,225.068 218.487 C 225.475 219.273,225.629 221.164,225.625 225.324 C 225.621 229.721,225.756 231.254,226.197 231.837 C 227.076 232.998,226.971 239.456,226.000 244.000 C 225.560 246.059,225.200 248.261,225.200 248.893 C 225.200 249.525,224.750 250.705,224.200 251.514 C 223.650 252.323,223.194 253.259,223.187 253.593 C 223.180 253.927,222.910 254.549,222.587 254.976 C 222.264 255.404,221.997 256.484,221.994 257.376 C 221.986 259.551,221.529 260.272,220.691 259.434 C 219.698 258.441,219.447 256.554,220.170 255.521 C 220.517 255.026,220.801 254.257,220.802 253.811 C 220.804 253.365,221.095 252.460,221.449 251.800 C 221.803 251.140,222.070 249.811,222.041 248.847 C 222.013 247.883,222.435 245.768,222.980 244.145 C 225.067 237.933,225.181 225.492,223.189 221.377 C 222.755 220.481,222.396 219.309,222.391 218.774 C 222.386 218.238,222.030 217.350,221.600 216.800 C 221.170 216.250,220.814 215.558,220.809 215.262 C 220.764 212.558,217.146 210.855,214.260 212.178 C 212.716 212.886,208.847 213.600,206.550 213.600 C 205.614 213.600,204.744 213.766,204.619 213.969 C 204.386 214.346,202.498 214.993,198.200 216.169 C 192.797 217.648,191.718 218.268,190.494 220.600 C 189.779 221.962,189.156 228.188,189.613 229.400 C 189.780 229.840,190.109 231.919,190.347 234.020 C 190.584 236.121,191.161 238.821,191.629 240.020 C 192.953 243.409,193.472 244.860,194.029 246.723 C 194.494 248.283,194.651 248.434,195.688 248.325 C 197.302 248.156,197.587 248.861,197.594 253.048 C 197.598 255.493,197.847 257.471,198.349 259.048 C 198.761 260.342,199.233 262.020,199.398 262.777 C 199.563 263.535,199.946 264.403,200.249 264.706 C 200.552 265.009,200.800 265.486,200.800 265.767 C 200.800 266.047,201.160 266.602,201.600 267.000 C 202.125 267.475,202.400 268.232,202.400 269.204 C 202.400 270.235,202.709 271.016,203.419 271.783 C 204.374 272.813,204.399 272.942,203.819 273.827 C 203.142 274.860,202.986 277.020,203.563 277.377 C 203.762 277.500,204.051 278.517,204.205 279.638 C 204.542 282.090,204.029 282.912,202.835 281.831 C 201.833 280.925,201.298 281.269,200.967 283.034 C 200.778 284.040,200.518 284.405,200.052 284.317 C 199.052 284.127,198.998 282.069,199.960 280.769 C 201.562 278.602,201.776 272.518,200.301 271.044 C 199.976 270.719,199.588 269.685,199.438 268.745 C 199.287 267.806,198.836 266.489,198.434 265.818 C 198.032 265.148,197.589 263.713,197.450 262.629 C 197.310 261.545,196.938 260.374,196.624 260.026 C 196.309 259.678,195.488 257.867,194.800 256.000 C 194.112 254.133,193.290 252.321,192.974 251.972 C 192.658 251.623,192.399 250.991,192.398 250.569 C 192.396 250.146,192.107 249.260,191.756 248.600 C 191.404 247.940,190.797 246.500,190.407 245.400 C 188.607 240.330,188.304 239.600,188.002 239.600 C 187.429 239.600,186.800 237.144,186.783 234.840 C 186.753 230.932,185.779 225.374,185.513 227.600 C 185.395 228.590,184.827 231.560,184.251 234.200 C 183.674 236.840,183.087 240.290,182.946 241.867 C 182.666 244.979,182.650 245.022,181.249 246.200 L 180.298 247.000 180.586 239.782 C 180.872 232.604,180.463 227.331,179.127 220.953 C 178.891 219.828,178.786 218.658,178.893 218.353 C 179.108 217.745,177.865 215.011,177.182 214.589 C 176.581 214.218,174.400 215.184,174.400 215.822 C 174.400 216.110,174.067 216.452,173.661 216.581 C 173.254 216.710,172.718 217.262,172.469 217.808 C 172.221 218.353,171.817 218.800,171.573 218.800 C 171.328 218.800,170.814 219.189,170.429 219.664 C 170.035 220.150,169.526 220.402,169.265 220.240 C 168.564 219.807,168.707 218.884,169.513 218.627 C 169.906 218.503,170.546 217.861,170.935 217.202 C 171.325 216.543,172.534 215.420,173.622 214.708 C 174.710 213.996,175.600 213.183,175.600 212.902 C 175.600 212.119,172.021 205.494,171.161 204.684 C 170.742 204.291,170.400 203.777,170.400 203.542 C 170.400 203.307,169.995 202.597,169.500 201.964 C 166.620 198.281,166.700 198.446,167.034 196.886 C 167.210 196.069,167.299 191.575,167.233 186.900 C 167.128 179.487,167.191 178.400,167.725 178.400 C 168.362 178.400,168.573 177.696,169.016 174.100 C 169.159 172.946,169.447 171.895,169.657 171.765 C 169.895 171.618,169.898 171.354,169.664 171.064 C 169.458 170.809,169.158 169.250,168.998 167.600 C 168.655 164.067,167.236 161.338,163.280 156.600 C 161.462 154.423,159.600 151.772,159.600 151.361 C 159.600 151.107,159.056 150.791,158.391 150.658 C 156.472 150.274,152.800 145.560,152.800 143.480 C 152.800 143.204,152.440 142.670,152.000 142.293 C 151.560 141.916,151.200 141.243,151.200 140.797 C 151.200 140.350,150.738 139.101,150.173 138.020 C 149.098 135.966,148.965 133.605,149.906 133.296 C 150.195 133.200,150.684 133.782,151.050 134.658 C 151.401 135.499,152.020 136.607,152.424 137.121 C 152.829 137.636,153.279 138.854,153.425 139.828 C 153.651 141.334,153.829 141.600,154.613 141.600 C 155.639 141.600,156.162 137.432,155.517 134.400 C 155.072 132.311,155.133 126.800,155.600 126.800 C 155.820 126.800,156.000 127.218,156.000 127.729 C 156.000 133.315,163.063 138.899,163.856 133.939 C 164.472 130.086,166.167 134.664,165.757 139.075 C 165.493 141.918,167.071 146.069,168.647 146.673 C 168.939 146.785,169.291 147.477,169.428 148.211 C 169.805 150.218,172.090 149.120,172.628 146.674 C 172.778 145.991,173.262 144.943,173.703 144.346 C 174.781 142.888,174.545 137.903,173.266 135.125 C 172.567 133.608,172.338 132.064,172.063 127.016 C 171.759 121.449,171.631 120.684,170.861 119.865 C 170.388 119.361,169.992 118.690,169.982 118.374 C 169.973 118.058,169.605 118.481,169.166 119.313 C 167.818 121.866,166.701 119.556,167.740 116.365 C 168.057 115.394,168.432 113.202,168.575 111.494 C 168.730 109.635,169.131 107.867,169.573 107.094 C 169.979 106.382,170.425 105.150,170.564 104.355 C 170.812 102.930,171.626 101.893,172.800 101.507 C 173.584 101.249,173.518 101.075,173.640 103.713 M213.127 102.975 C 213.213 104.001,213.476 104.547,213.943 104.669 C 214.697 104.866,217.436 108.993,217.798 110.476 C 217.974 111.198,217.775 111.540,216.885 112.039 C 215.838 112.627,215.741 112.879,215.678 115.181 C 215.595 118.168,215.016 120.522,214.197 121.202 C 212.731 122.419,213.789 129.799,215.700 131.687 C 216.665 132.640,216.801 133.081,216.810 135.287 C 216.822 138.505,217.442 141.180,218.415 142.216 C 219.300 143.158,218.959 145.221,217.652 146.835 C 216.875 147.794,215.600 147.681,215.600 146.653 C 215.600 146.339,215.060 145.055,214.400 143.800 C 213.740 142.545,213.200 141.182,213.200 140.770 C 213.200 140.353,212.700 139.762,212.073 139.438 C 210.341 138.542,209.636 135.907,210.191 132.400 C 210.515 130.348,209.559 126.642,208.660 126.468 C 207.257 126.198,205.904 126.777,206.210 127.517 C 207.498 130.626,208.026 138.813,207.031 140.235 C 206.628 140.810,206.476 142.120,206.512 144.711 C 206.559 148.044,206.479 148.465,205.623 149.376 C 204.700 150.359,204.694 150.408,205.341 152.102 C 206.142 154.198,206.196 157.139,205.454 158.211 C 204.729 159.259,204.390 162.350,204.350 168.280 C 204.300 175.624,203.172 176.742,202.647 169.969 C 202.535 168.523,202.068 166.387,201.609 165.223 C 200.838 163.267,200.819 161.600,201.568 161.600 C 202.217 161.600,203.292 156.451,203.007 154.707 C 202.411 151.053,202.548 149.051,203.458 148.142 C 204.520 147.080,204.953 144.654,204.410 142.803 C 204.184 142.034,204.000 140.855,204.000 140.183 C 204.000 139.510,203.803 138.763,203.563 138.523 C 203.077 138.037,203.726 136.400,204.404 136.400 C 204.965 136.400,205.868 134.426,206.188 132.500 C 206.414 131.138,206.352 130.800,205.878 130.800 C 205.148 130.800,204.800 129.954,204.800 128.181 C 204.800 126.752,203.989 126.000,202.449 126.000 C 200.743 126.000,199.508 124.345,199.508 122.060 C 199.508 119.518,199.684 119.284,200.779 120.379 C 201.244 120.844,202.169 121.334,202.835 121.467 C 203.500 121.600,204.344 122.105,204.709 122.589 C 205.800 124.036,210.124 122.465,211.720 120.043 C 213.632 117.138,214.136 106.025,212.408 104.851 C 211.879 104.492,211.600 103.859,211.600 103.018 C 211.600 100.621,212.926 100.584,213.127 102.975 M147.592 110.384 C 148.036 111.255,148.400 112.241,148.400 112.574 C 148.400 112.907,148.940 113.459,149.600 113.800 C 150.964 114.505,150.964 114.505,150.291 116.400 C 149.515 118.585,149.225 118.862,147.860 118.726 L 146.600 118.600 146.320 121.134 C 145.997 124.069,145.186 125.521,144.747 123.953 C 144.251 122.183,144.396 116.940,144.996 114.964 C 145.323 113.884,145.593 112.271,145.596 111.380 C 145.599 110.054,146.122 108.800,146.672 108.800 C 146.733 108.800,147.147 109.513,147.592 110.384 M155.244 118.082 C 155.818 118.446,157.139 119.481,158.179 120.382 C 159.219 121.282,160.670 122.269,161.404 122.576 C 163.538 123.468,164.008 124.546,163.727 127.906 C 163.513 130.459,162.400 132.369,162.400 130.184 C 162.400 127.570,158.017 123.067,155.473 123.067 L 153.712 123.067 153.308 120.433 C 152.929 117.966,153.287 116.145,153.965 117.090 C 154.094 117.271,154.670 117.717,155.244 118.082 M165.600 119.994 C 165.600 120.383,165.343 120.916,165.028 121.177 C 164.232 121.837,163.307 120.235,164.001 119.398 C 164.586 118.693,165.600 119.071,165.600 119.994 M193.529 125.328 C 193.605 125.723,193.550 126.351,193.405 126.723 C 193.075 127.576,192.000 126.330,192.000 125.094 C 192.000 124.120,193.336 124.324,193.529 125.328 M224.000 130.253 C 224.000 132.523,223.491 133.292,222.820 132.037 C 222.350 131.160,222.259 128.433,222.664 127.377 C 223.150 126.112,224.000 127.943,224.000 130.253 M147.200 129.000 C 147.200 129.770,147.020 130.400,146.800 130.400 C 146.580 130.400,146.400 129.770,146.400 129.000 C 146.400 128.230,146.580 127.600,146.800 127.600 C 147.020 127.600,147.200 128.230,147.200 129.000 M194.840 132.260 C 194.757 136.563,194.400 136.514,194.400 132.200 C 194.400 130.257,194.512 128.779,194.650 128.917 C 194.787 129.054,194.873 130.558,194.840 132.260 M170.138 135.851 C 170.041 141.805,169.916 142.102,169.015 138.518 C 168.639 137.023,168.164 135.482,167.958 135.093 C 167.687 134.579,167.888 133.746,168.692 132.055 C 170.080 129.136,170.240 129.555,170.138 135.851 M211.200 143.600 C 211.200 146.781,210.632 147.546,210.003 145.211 C 209.682 144.018,209.692 143.185,210.044 142.012 C 210.722 139.748,211.200 140.405,211.200 143.600 M195.194 148.300 C 195.197 148.589,194.699 148.800,194.014 148.800 L 192.829 148.800 193.714 147.895 C 194.577 147.013,195.180 147.178,195.194 148.300 M171.200 152.200 C 171.200 152.750,171.380 153.200,171.600 153.200 C 171.820 153.200,172.000 152.750,172.000 152.200 C 172.000 151.650,171.820 151.200,171.600 151.200 C 171.380 151.200,171.200 151.650,171.200 152.200 M231.801 152.796 C 231.505 153.730,231.830 154.400,232.578 154.400 C 232.870 154.400,233.188 153.860,233.285 153.200 C 233.493 151.782,232.232 151.439,231.801 152.796 M219.200 154.800 C 219.200 155.324,218.933 155.600,218.427 155.600 C 217.551 155.600,217.024 154.385,217.394 153.220 C 217.717 152.202,219.200 153.499,219.200 154.800 M158.031 156.400 C 158.253 157.779,158.707 159.434,159.041 160.079 C 159.597 161.155,159.581 161.388,158.847 162.925 C 158.407 163.846,157.917 165.140,157.757 165.800 C 157.598 166.460,157.199 167.198,156.871 167.441 C 156.206 167.931,156.450 172.999,157.206 174.412 C 157.720 175.371,157.715 178.682,157.200 179.000 C 156.569 179.390,156.729 181.278,157.628 184.048 C 158.795 187.646,158.982 199.901,157.900 201.880 C 157.049 203.436,156.968 207.185,157.751 208.720 C 158.054 209.314,158.432 211.745,158.591 214.122 C 158.821 217.554,158.976 218.313,159.345 217.807 C 160.145 216.714,163.369 216.785,163.528 217.899 C 163.608 218.464,164.022 218.891,164.638 219.045 C 165.179 219.181,165.803 219.631,166.025 220.046 C 166.247 220.461,166.771 220.800,167.190 220.800 C 167.610 220.800,168.064 220.980,168.200 221.200 C 168.356 221.453,167.337 221.600,165.424 221.600 C 162.668 221.600,161.749 221.250,162.800 220.600 C 163.020 220.464,163.194 220.048,163.187 219.676 C 163.176 219.053,163.133 219.054,162.643 219.700 C 162.005 220.540,159.888 220.629,159.235 219.842 C 158.980 219.535,158.148 219.167,157.386 219.024 C 156.122 218.787,156.000 218.642,156.000 217.382 C 156.000 215.791,155.333 215.531,154.969 216.980 C 154.811 217.611,155.050 218.612,155.641 219.795 C 156.469 221.454,156.511 221.805,156.079 223.421 C 155.523 225.501,155.471 232.580,155.994 235.200 C 156.191 236.190,156.480 239.520,156.637 242.600 C 156.827 246.346,157.166 248.916,157.660 250.363 C 158.067 251.552,158.400 253.017,158.400 253.619 C 158.400 254.220,158.756 255.497,159.191 256.456 C 159.984 258.203,160.212 260.182,159.757 261.367 C 159.469 262.118,158.035 262.217,157.837 261.500 C 155.331 252.397,154.382 248.006,153.579 241.800 C 153.351 240.040,152.884 236.710,152.540 234.400 C 151.722 228.898,151.354 218.881,151.911 217.282 C 152.882 214.498,147.378 214.165,127.818 215.825 C 124.088 216.141,119.286 216.400,117.147 216.400 C 112.392 216.400,112.000 216.667,112.000 219.909 C 112.000 225.210,109.355 236.354,107.527 238.754 C 107.127 239.279,106.800 239.947,106.800 240.238 C 106.800 240.814,105.568 242.103,104.040 243.127 C 102.749 243.993,99.035 244.394,96.702 243.920 C 93.693 243.309,89.501 237.776,88.580 233.200 C 88.425 232.430,88.051 231.445,87.749 231.011 C 87.447 230.577,87.200 229.792,87.200 229.267 C 87.200 228.444,86.124 223.540,85.255 220.400 C 84.920 219.188,83.659 219.153,68.800 219.935 C 47.306 221.068,41.881 221.146,41.013 220.338 C 39.702 219.115,39.599 214.281,40.866 213.451 C 42.003 212.706,57.067 211.601,66.116 211.599 C 73.307 211.597,84.463 210.897,84.943 210.417 C 85.144 210.216,85.353 208.555,85.409 206.726 C 85.521 203.067,86.847 196.724,88.038 194.156 C 88.457 193.252,88.800 192.257,88.800 191.945 C 88.800 191.633,89.114 190.933,89.499 190.389 C 89.883 189.845,90.481 188.877,90.826 188.237 C 91.777 186.479,95.218 184.800,97.870 184.800 C 102.136 184.800,105.581 187.870,107.747 193.600 C 108.371 195.250,109.148 197.222,109.473 197.982 C 109.799 198.743,110.396 201.587,110.800 204.302 C 111.642 209.963,112.295 211.369,113.926 211.028 C 115.407 210.718,128.960 210.083,141.105 209.755 C 153.276 209.425,152.348 209.890,152.606 204.000 C 152.721 201.384,153.149 198.075,153.599 196.327 C 154.502 192.824,155.189 183.636,155.316 173.361 C 155.373 168.732,155.556 166.335,155.881 165.943 C 156.190 165.571,156.390 163.571,156.439 160.381 C 156.541 153.641,157.286 151.777,158.031 156.400 M233.600 154.922 C 233.600 155.236,233.247 155.941,232.815 156.490 L 232.030 157.488 232.963 158.365 L 233.896 159.242 234.142 158.321 C 234.522 156.902,234.445 154.875,234.000 154.600 C 233.780 154.464,233.600 154.609,233.600 154.922 M220.168 160.491 C 220.318 161.651,220.791 163.330,221.219 164.222 C 221.646 165.114,222.114 167.004,222.258 168.422 C 222.402 169.840,222.749 171.136,223.029 171.302 C 223.640 171.665,224.167 173.806,223.794 174.410 C 223.371 175.095,222.400 174.050,222.400 172.909 C 222.400 172.325,221.987 171.590,221.400 171.129 C 220.814 170.668,220.400 169.932,220.400 169.351 C 220.400 168.806,220.149 167.874,219.842 167.280 C 218.754 165.174,218.523 157.535,219.567 158.180 C 219.747 158.291,220.018 159.331,220.168 160.491 M240.137 167.286 C 239.881 170.044,239.389 171.068,238.966 169.725 C 238.840 169.326,238.475 168.511,238.154 167.913 C 237.588 166.860,237.906 164.702,239.082 161.600 C 239.594 160.249,240.392 164.547,240.137 167.286 M241.160 173.300 C 241.120 175.760,241.114 175.774,240.743 174.200 C 240.398 172.730,240.548 170.800,241.008 170.800 C 241.113 170.800,241.182 171.925,241.160 173.300 M237.482 175.300 C 237.387 175.795,237.309 175.390,237.309 174.400 C 237.309 173.410,237.387 173.005,237.482 173.500 C 237.578 173.995,237.578 174.805,237.482 175.300 M225.594 175.100 C 225.586 175.483,224.814 176.691,224.806 176.333 C 224.803 176.186,224.691 175.781,224.557 175.433 C 224.398 175.018,224.535 174.800,224.957 174.800 C 225.311 174.800,225.597 174.935,225.594 175.100 M166.794 177.524 C 166.797 177.812,166.620 177.936,166.400 177.800 C 166.180 177.664,166.003 177.158,166.006 176.676 C 166.013 175.692,166.782 176.519,166.794 177.524 M203.927 178.247 C 203.857 179.101,203.620 179.800,203.400 179.800 C 202.886 179.800,202.660 178.211,202.989 176.901 C 203.373 175.372,204.080 176.386,203.927 178.247 M300.899 180.465 C 302.924 181.894,306.400 185.541,306.400 186.238 C 306.400 186.547,306.577 186.800,306.792 186.800 C 307.008 186.800,307.304 187.295,307.450 187.900 C 307.595 188.505,308.139 189.809,308.657 190.797 C 309.176 191.785,309.600 192.917,309.600 193.313 C 309.600 193.708,309.960 194.738,310.400 195.600 C 310.840 196.462,311.200 197.701,311.200 198.351 C 311.200 200.845,311.078 200.803,318.143 200.770 C 324.994 200.738,334.952 200.217,337.072 199.780 C 339.251 199.330,341.200 201.152,341.200 203.638 C 341.200 207.159,340.095 207.456,325.717 207.800 C 310.879 208.154,311.905 207.696,311.372 214.200 C 311.206 216.235,310.835 217.854,310.355 218.647 C 309.940 219.333,309.600 220.253,309.600 220.691 C 309.600 223.974,303.948 230.727,300.338 231.755 C 296.761 232.775,294.592 232.631,290.281 231.088 C 288.892 230.591,284.546 225.840,284.196 224.436 C 284.054 223.866,283.701 223.130,283.412 222.800 C 282.680 221.964,280.906 217.328,280.581 215.400 C 280.222 213.275,279.237 210.203,278.661 209.415 C 278.251 208.856,277.519 208.827,272.399 209.170 C 263.010 209.798,247.086 210.089,245.939 209.653 C 244.981 209.289,244.320 207.601,244.222 205.269 C 244.204 204.839,247.071 204.703,259.200 204.556 C 267.450 204.457,275.145 204.278,276.300 204.159 C 278.667 203.915,278.435 204.321,279.369 198.800 C 280.648 191.239,282.162 186.559,283.758 185.235 C 284.111 184.942,284.400 184.491,284.400 184.232 C 284.400 183.537,287.165 181.005,289.000 180.020 C 291.497 178.680,298.753 178.951,300.899 180.465 M241.175 182.500 C 241.154 184.561,241.080 184.826,240.755 184.011 C 240.402 183.127,240.620 180.000,241.035 180.000 C 241.126 180.000,241.189 181.125,241.175 182.500 M244.854 201.337 L 244.504 202.600 244.043 201.451 C 243.617 200.389,243.719 198.558,244.312 196.600 C 244.716 195.267,245.248 199.915,244.854 201.337 M241.076 211.100 C 240.975 211.485,240.893 211.170,240.893 210.400 C 240.893 209.630,240.975 209.315,241.076 209.700 C 241.176 210.085,241.176 210.715,241.076 211.100 M100.240 213.493 C 99.842 213.892,99.971 215.935,100.411 216.207 C 100.777 216.433,102.353 214.963,102.387 214.364 C 102.408 213.995,100.508 213.225,100.240 213.493 M185.648 217.820 L 185.697 220.600 186.075 218.246 C 186.334 216.633,186.318 215.758,186.026 215.466 C 185.725 215.165,185.614 215.853,185.648 217.820 M208.923 224.947 C 209.290 227.577,209.195 227.840,208.091 227.249 C 207.305 226.828,206.540 223.545,207.039 222.736 C 207.711 221.649,208.610 222.704,208.923 224.947 M197.039 227.843 C 196.837 228.369,196.663 228.423,196.308 228.068 C 195.782 227.542,195.746 225.129,196.252 224.327 C 196.686 223.641,197.410 226.876,197.039 227.843 M198.178 232.635 C 198.781 233.238,198.843 233.934,198.661 238.103 C 198.433 243.348,198.186 244.299,197.822 241.337 C 197.691 240.271,197.390 238.860,197.153 238.200 C 196.305 235.833,195.981 233.364,196.241 231.246 L 196.506 229.091 196.996 230.517 C 197.266 231.302,197.797 232.255,198.178 232.635 M202.981 250.400 C 202.633 254.630,202.635 254.505,202.831 259.090 C 202.927 261.313,203.141 262.445,203.492 262.580 C 203.778 262.690,204.184 263.231,204.394 263.784 C 204.604 264.336,205.366 265.036,206.088 265.340 L 207.400 265.892 206.288 266.415 C 204.921 267.059,203.243 266.031,202.605 264.159 C 202.388 263.522,202.053 262.887,201.860 262.749 C 200.805 261.991,200.459 253.202,201.274 247.851 L 201.753 244.702 202.523 245.651 C 203.218 246.507,203.263 246.971,202.981 250.400 M218.590 245.980 C 219.400 247.548,219.360 249.129,218.461 250.976 C 217.515 252.921,217.302 252.271,217.515 248.100 C 217.705 244.398,217.738 244.333,218.590 245.980 M215.189 253.370 C 215.655 254.598,215.119 259.841,214.459 260.501 C 213.643 261.317,213.141 260.045,213.393 257.800 C 214.027 252.155,214.388 251.265,215.189 253.370 M168.400 256.200 C 168.400 257.933,168.231 259.200,168.000 259.200 C 167.558 259.200,167.435 253.899,167.867 253.467 C 168.359 252.975,168.400 253.188,168.400 256.200 M182.800 257.991 C 182.800 261.162,182.576 262.400,182.002 262.400 C 181.378 262.400,181.181 259.576,181.626 257.019 C 182.225 253.579,182.800 254.055,182.800 257.991 M177.512 261.689 C 177.372 264.121,177.465 265.007,177.906 265.449 C 178.600 266.143,179.600 265.524,179.600 264.400 C 179.600 263.640,180.674 262.541,181.049 262.916 C 181.465 263.332,180.742 266.400,180.228 266.400 C 179.607 266.400,179.041 268.282,178.183 273.200 C 177.818 275.290,177.440 277.424,177.342 277.942 C 177.244 278.460,176.812 278.976,176.382 279.089 C 175.952 279.201,175.600 279.542,175.600 279.847 C 175.600 280.151,175.424 280.400,175.210 280.400 C 174.960 280.400,174.965 280.017,175.224 279.336 C 175.758 277.933,176.458 268.889,176.442 263.600 C 176.429 259.069,176.620 257.842,177.277 258.248 C 177.539 258.409,177.627 259.703,177.512 261.689 M212.800 265.800 C 212.800 266.130,212.620 266.400,212.400 266.400 C 212.180 266.400,212.000 266.130,212.000 265.800 C 212.000 265.470,212.180 265.200,212.400 265.200 C 212.620 265.200,212.800 265.470,212.800 265.800 M211.200 267.600 C 211.200 268.106,210.383 268.106,209.600 267.600 C 209.132 267.298,209.243 267.211,210.100 267.206 C 210.705 267.203,211.200 267.380,211.200 267.600 M156.400 282.600 C 156.400 283.784,156.573 284.860,156.785 284.991 C 157.008 285.129,157.032 285.599,156.842 286.114 C 156.661 286.601,156.387 287.990,156.233 289.200 C 155.931 291.564,155.115 293.200,154.237 293.200 C 153.643 293.200,153.214 294.393,153.205 296.073 C 153.202 296.769,152.936 297.230,152.448 297.385 C 151.642 297.641,151.200 299.129,151.200 301.586 C 151.200 302.403,150.834 304.496,150.387 306.236 C 149.939 307.976,149.478 311.110,149.361 313.200 C 148.978 320.054,148.289 320.456,147.792 314.114 C 147.657 312.401,147.365 309.679,147.141 308.065 C 146.618 304.286,147.698 295.671,148.863 294.328 C 149.268 293.860,149.600 292.903,149.600 292.201 C 149.600 291.444,149.917 290.637,150.377 290.221 C 150.805 289.834,151.273 288.976,151.419 288.316 C 151.564 287.655,152.114 286.478,152.641 285.701 C 153.169 284.924,153.600 284.156,153.600 283.995 C 153.600 283.282,155.707 280.019,156.035 280.222 C 156.236 280.346,156.400 281.416,156.400 282.600 M220.000 282.224 C 220.000 283.067,220.310 283.910,220.800 284.400 C 221.348 284.948,221.600 285.733,221.600 286.891 L 221.600 288.582 220.620 287.591 C 219.538 286.497,218.529 279.938,219.539 280.562 C 219.793 280.719,220.000 281.467,220.000 282.224 M199.200 287.127 C 199.200 288.407,198.944 290.342,198.631 291.427 C 196.898 297.430,196.903 305.866,198.640 309.293 C 199.168 310.334,199.600 311.425,199.600 311.717 C 199.600 313.363,202.178 314.233,204.061 313.223 C 206.046 312.160,207.645 313.053,206.102 314.363 C 204.424 315.787,203.468 318.714,204.186 320.227 C 204.524 320.938,204.800 322.169,204.800 322.960 C 204.800 324.108,204.954 324.400,205.559 324.400 C 206.392 324.400,207.158 329.041,206.610 330.767 C 205.907 332.985,204.400 329.994,204.400 326.380 C 204.400 325.731,204.040 324.840,203.600 324.400 C 203.160 323.960,202.800 323.178,202.800 322.661 C 202.800 322.145,202.451 321.320,202.025 320.828 C 201.598 320.337,201.136 319.421,200.999 318.795 C 200.861 318.168,200.489 317.439,200.171 317.176 C 199.853 316.912,199.480 315.993,199.343 315.134 C 199.195 314.206,198.790 313.409,198.347 313.171 C 197.853 312.907,197.600 312.332,197.600 311.475 C 197.600 310.673,197.295 309.916,196.800 309.493 C 196.235 309.009,195.998 308.307,195.993 307.104 C 195.989 306.167,195.890 303.150,195.773 300.400 C 195.535 294.803,196.021 290.321,196.970 289.373 C 197.346 288.997,197.600 288.057,197.600 287.038 C 197.600 285.232,197.806 284.800,198.667 284.800 C 199.050 284.800,199.200 285.455,199.200 287.127 M173.512 299.019 C 173.599 303.326,173.489 304.826,173.012 305.832 C 172.625 306.646,172.399 308.277,172.397 310.260 C 172.395 312.708,172.221 313.663,171.608 314.594 C 171.175 315.250,170.699 316.597,170.551 317.587 C 170.403 318.577,170.059 319.930,169.788 320.593 C 169.517 321.257,169.171 323.004,169.018 324.475 C 168.501 329.477,166.510 328.921,166.942 323.895 C 167.078 322.303,167.371 318.030,167.592 314.400 C 168.004 307.627,168.798 301.977,169.784 298.800 C 170.092 297.810,170.470 296.280,170.624 295.400 C 171.088 292.757,171.492 292.231,172.530 292.919 C 173.344 293.459,173.407 293.855,173.512 299.019 M154.165 314.727 L 153.847 316.600 153.575 314.400 C 153.426 313.190,153.413 310.040,153.546 307.400 L 153.787 302.600 154.135 307.727 C 154.326 310.547,154.340 313.697,154.165 314.727 M221.710 315.800 C 221.493 317.978,221.435 318.095,221.091 317.068 C 220.869 316.405,220.843 314.666,221.028 312.868 C 221.343 309.809,221.345 309.805,221.647 311.600 C 221.813 312.590,221.841 314.480,221.710 315.800 M211.123 318.500 C 211.055 319.435,210.820 320.165,210.600 320.121 C 210.066 320.016,209.873 318.959,210.172 317.768 C 210.580 316.143,211.256 316.663,211.123 318.500 M219.882 323.300 C 219.787 323.795,219.709 323.390,219.709 322.400 C 219.709 321.410,219.787 321.005,219.882 321.500 C 219.978 321.995,219.978 322.805,219.882 323.300 M150.282 324.500 C 150.187 324.995,150.109 324.590,150.109 323.600 C 150.109 322.610,150.187 322.205,150.282 322.700 C 150.378 323.195,150.378 324.005,150.282 324.500 M209.027 333.300 C 208.840 335.062,208.953 336.546,209.411 338.328 C 210.160 341.243,210.216 342.343,209.809 346.200 C 209.526 348.889,209.570 349.111,210.938 351.800 C 212.067 354.020,212.403 355.210,212.561 357.546 L 212.760 360.492 211.631 360.266 C 210.768 360.094,210.285 360.271,209.581 361.020 C 206.604 364.190,203.360 357.904,205.546 353.200 C 206.006 352.210,206.386 351.108,206.391 350.751 C 206.396 350.394,206.744 349.314,207.164 348.351 C 207.994 346.448,207.873 342.765,206.779 336.568 C 206.067 332.538,206.444 331.627,209.147 330.843 C 209.227 330.819,209.174 331.925,209.027 333.300 M156.267 335.339 C 156.647 339.401,156.187 341.483,154.747 342.227 L 153.544 342.850 153.779 341.125 C 153.909 340.176,154.184 337.820,154.391 335.889 C 154.965 330.528,155.795 330.284,156.267 335.339 M220.132 345.541 C 220.300 347.037,220.647 347.944,221.286 348.550 C 221.789 349.027,223.273 350.627,224.584 352.106 C 226.978 354.809,231.571 358.800,232.285 358.800 C 234.120 358.800,240.400 362.964,240.400 364.181 C 240.400 364.521,240.580 364.800,240.800 364.800 C 241.020 364.800,241.200 365.160,241.200 365.600 C 241.200 366.040,241.046 366.400,240.858 366.400 C 240.671 366.400,240.031 366.850,239.438 367.400 C 238.114 368.627,237.706 368.645,236.730 367.519 C 236.048 366.733,235.830 366.689,234.713 367.110 C 233.332 367.632,232.422 367.220,232.372 366.051 C 232.351 365.556,232.267 365.592,232.022 366.200 C 231.845 366.640,231.858 367.303,232.050 367.674 C 232.789 369.096,231.475 369.741,229.432 368.957 C 228.730 368.688,227.200 365.524,227.200 364.342 C 227.200 363.719,227.005 363.631,226.100 363.848 C 224.560 364.216,224.400 364.345,224.400 365.224 C 224.400 366.255,222.799 366.281,222.530 365.253 C 222.396 364.742,221.558 364.279,219.867 363.783 C 216.633 362.834,216.285 362.540,216.575 360.993 C 216.752 360.048,216.617 359.558,216.033 359.029 C 215.604 358.642,215.351 358.072,215.470 357.762 C 215.759 357.009,216.224 357.054,217.084 357.920 C 219.137 359.986,220.400 360.215,220.400 358.521 C 220.400 358.001,220.670 357.471,221.000 357.345 C 221.777 357.047,221.766 356.109,220.977 355.320 C 220.634 354.977,220.458 354.425,220.586 354.093 C 220.713 353.761,220.412 352.659,219.917 351.644 C 218.867 349.492,218.265 344.205,218.947 343.113 C 219.524 342.190,219.826 342.810,220.132 345.541 M156.316 348.518 C 156.763 349.434,156.718 349.843,155.981 351.556 C 154.651 354.646,154.879 354.990,158.305 355.057 C 159.897 355.088,161.494 355.227,161.856 355.366 C 163.603 356.037,164.400 354.609,164.400 350.809 L 164.400 347.236 165.467 348.303 C 166.437 349.274,166.560 349.751,166.829 353.585 C 167.125 357.826,167.421 359.421,168.064 360.249 C 168.256 360.495,168.687 361.620,169.022 362.749 C 169.357 363.877,169.771 364.800,169.941 364.800 C 170.112 364.800,170.552 365.430,170.919 366.200 C 171.287 366.970,171.741 367.600,171.930 367.600 C 172.119 367.600,172.785 368.905,173.411 370.500 C 174.037 372.095,174.815 373.717,175.141 374.105 C 176.424 375.633,175.789 378.058,174.366 377.061 C 173.355 376.353,171.519 376.990,171.050 378.213 C 170.434 379.820,169.016 378.694,168.600 376.267 C 168.254 374.248,167.600 373.472,167.600 375.080 C 167.600 378.286,165.506 378.907,164.907 375.879 L 164.580 374.228 163.655 375.797 L 162.729 377.366 161.973 376.383 C 161.558 375.842,161.214 375.269,161.209 375.109 C 161.200 374.833,160.108 375.187,158.115 376.109 C 156.960 376.644,154.832 375.089,153.756 372.923 C 152.372 370.136,152.898 347.852,154.357 347.467 C 155.394 347.194,155.769 347.395,156.316 348.518 M225.600 367.000 C 225.600 367.330,225.330 367.600,225.000 367.600 C 224.670 367.600,224.400 367.330,224.400 367.000 C 224.400 366.670,224.670 366.400,225.000 366.400 C 225.330 366.400,225.600 366.670,225.600 367.000 " stroke="none" fill="#fbfbfb" fill-rule="evenodd"></path><path id="path1" d="M182.745 28.955 C 182.165 29.258,180.770 29.811,179.645 30.185 C 178.520 30.559,177.600 31.030,177.600 31.232 C 177.600 31.434,177.355 31.600,177.055 31.600 C 176.450 31.600,174.005 33.388,172.278 35.092 C 170.316 37.031,168.864 39.502,168.581 41.384 C 168.431 42.388,168.148 43.308,167.954 43.429 C 167.759 43.549,167.600 44.875,167.600 46.375 C 167.600 49.706,167.944 50.068,171.291 50.258 C 172.648 50.335,173.910 50.550,174.097 50.737 C 174.816 51.456,175.205 58.057,174.581 58.948 C 173.834 60.015,173.834 61.561,174.582 61.848 C 174.902 61.971,175.532 62.834,175.984 63.766 C 178.193 68.330,182.349 71.057,187.600 71.389 C 191.586 71.641,191.952 72.070,191.689 76.172 C 191.466 79.652,192.498 80.499,193.919 78.003 C 194.293 77.344,194.801 76.804,195.048 76.803 C 195.579 76.800,195.989 74.606,195.996 71.741 C 196.000 69.888,196.141 69.559,197.414 68.441 C 200.080 66.100,200.455 64.505,200.584 54.941 C 200.706 45.919,200.608 45.247,199.277 45.959 C 198.139 46.568,198.000 46.523,198.000 45.550 C 198.000 44.822,198.170 44.734,199.178 44.936 C 200.491 45.198,201.078 44.307,200.595 42.783 C 200.145 41.366,198.849 42.059,195.360 45.584 C 193.590 47.371,193.801 47.826,196.332 47.689 C 198.277 47.584,198.393 47.634,198.645 48.689 C 198.791 49.300,199.071 50.006,199.268 50.257 C 199.504 50.557,199.257 50.983,198.548 51.499 C 197.335 52.383,197.457 53.533,198.802 53.885 C 199.724 54.126,199.741 54.188,199.186 55.226 C 198.653 56.222,198.149 56.211,197.884 55.200 C 197.743 54.659,197.338 54.400,196.637 54.400 C 195.418 54.400,195.129 56.312,196.213 57.211 C 196.757 57.662,196.722 57.832,195.913 58.695 L 195.000 59.671 196.009 60.535 C 197.418 61.743,197.310 66.969,195.869 67.356 C 193.227 68.065,187.844 67.364,186.341 66.117 C 186.038 65.865,184.921 65.441,183.859 65.173 C 180.241 64.262,177.887 59.857,178.348 54.861 C 178.439 53.873,178.172 53.140,177.328 52.061 C 175.689 49.967,175.918 43.561,177.698 41.705 C 178.301 41.076,179.069 39.670,179.403 38.581 C 180.550 34.842,184.195 33.334,189.000 34.608 C 190.320 34.959,192.120 35.202,193.001 35.148 C 195.026 35.026,196.800 36.104,196.800 37.459 C 196.800 38.672,197.834 41.200,198.331 41.200 C 199.146 41.200,199.666 40.071,199.228 39.252 C 198.992 38.812,198.800 38.004,198.800 37.455 C 198.800 36.906,198.530 36.187,198.200 35.857 C 197.870 35.527,197.600 35.073,197.600 34.848 C 197.600 31.512,186.377 27.060,182.745 28.955 M189.181 44.549 C 189.603 45.659,189.062 46.397,187.820 46.406 C 186.322 46.417,185.893 46.979,186.774 47.777 C 187.820 48.723,189.496 48.337,189.672 47.109 C 189.743 46.620,190.204 46.019,190.698 45.774 C 191.677 45.288,191.494 44.800,190.333 44.800 C 189.930 44.800,189.600 44.530,189.600 44.200 C 189.600 43.870,189.424 43.600,189.210 43.600 C 188.965 43.600,188.954 43.952,189.181 44.549 M195.829 49.829 C 195.321 50.336,195.277 50.611,195.635 51.042 C 196.321 51.869,197.600 51.743,197.600 50.849 C 197.600 49.623,196.607 49.050,195.829 49.829 M173.092 65.223 C 172.964 65.760,172.734 67.244,172.581 68.520 C 172.428 69.796,172.047 71.096,171.735 71.408 C 171.422 71.721,170.965 72.567,170.718 73.288 C 170.197 74.811,169.755 75.185,168.467 75.194 C 167.922 75.197,167.600 75.399,167.693 75.678 C 167.879 76.236,170.000 76.893,170.000 76.394 C 170.000 76.208,170.785 75.527,171.744 74.880 L 173.488 73.703 174.167 74.851 C 175.231 76.653,175.730 76.290,175.474 73.900 C 175.211 71.437,174.223 66.620,173.695 65.223 L 173.325 64.246 173.092 65.223 M164.325 77.800 C 163.847 78.350,163.261 78.800,163.024 78.800 C 162.787 78.800,162.368 79.160,162.093 79.600 C 161.818 80.040,161.358 80.400,161.071 80.400 C 160.468 80.400,158.400 82.449,158.400 83.047 C 158.400 83.797,156.209 85.514,154.900 85.790 C 154.185 85.940,153.600 86.207,153.600 86.383 C 153.600 86.559,153.060 86.927,152.400 87.200 C 151.740 87.473,151.200 87.858,151.200 88.054 C 151.200 88.251,150.663 88.739,150.006 89.138 C 148.329 90.158,146.583 92.715,146.277 94.601 C 146.135 95.479,145.744 96.398,145.409 96.643 C 144.910 97.008,144.805 98.128,144.828 102.844 C 144.845 106.329,144.988 108.284,145.191 107.800 C 145.375 107.360,145.427 105.359,145.306 103.354 C 145.037 98.888,145.248 97.985,146.761 97.135 C 147.411 96.769,148.252 95.869,148.630 95.135 C 149.362 93.712,152.069 90.800,152.660 90.800 C 152.855 90.800,153.675 90.351,154.482 89.802 C 155.290 89.254,156.367 88.835,156.875 88.872 C 157.384 88.908,158.175 88.815,158.633 88.664 C 159.278 88.451,159.570 88.616,159.925 89.394 C 160.477 90.606,161.230 90.684,161.907 89.600 C 162.626 88.449,163.075 88.608,163.600 90.200 C 164.151 91.869,164.254 91.893,165.271 90.600 C 166.517 89.016,170.557 89.612,173.841 91.865 C 175.552 93.038,178.333 93.292,179.956 92.423 C 181.976 91.342,185.158 91.682,186.327 93.104 C 186.917 93.821,187.516 94.406,187.658 94.404 C 188.909 94.386,190.440 96.905,190.669 99.361 C 190.982 102.713,191.600 102.376,191.600 98.854 C 191.600 96.615,191.432 95.928,190.616 94.822 C 189.838 93.767,189.719 93.326,190.047 92.713 C 190.682 91.527,190.180 90.802,188.713 90.786 C 187.054 90.767,185.198 89.286,184.629 87.529 C 184.062 85.774,183.471 85.845,183.169 87.704 C 182.856 89.631,182.627 89.832,181.383 89.265 C 180.822 89.009,179.915 88.800,179.369 88.800 C 178.822 88.800,178.271 88.530,178.145 88.200 C 178.018 87.870,177.485 87.600,176.961 87.600 C 176.436 87.600,175.800 87.269,175.547 86.864 C 175.169 86.258,174.728 86.163,173.056 86.323 C 171.135 86.508,171.062 86.481,171.712 85.831 C 172.596 84.946,172.582 84.780,171.481 83.156 C 170.975 82.410,170.436 81.474,170.283 81.075 C 169.881 80.024,169.200 80.644,169.200 82.061 C 169.200 82.938,169.422 83.333,170.000 83.484 C 170.949 83.732,171.073 85.120,170.176 85.465 C 169.812 85.604,169.105 85.297,168.476 84.725 C 167.884 84.186,166.882 83.398,166.250 82.973 C 165.617 82.548,164.694 81.928,164.198 81.595 L 163.297 80.989 164.348 79.761 C 164.927 79.085,165.715 78.418,166.100 78.279 C 166.485 78.139,166.800 77.749,166.800 77.413 C 166.800 76.453,165.291 76.690,164.325 77.800 M195.556 77.900 C 195.242 82.871,195.602 85.825,196.621 86.643 C 197.341 87.222,197.628 87.787,197.535 88.443 C 197.342 89.813,195.956 89.702,195.265 88.261 C 194.604 86.882,193.876 87.363,194.069 89.051 C 194.192 90.132,194.330 90.212,196.400 90.400 C 197.610 90.510,199.410 90.985,200.400 91.456 C 204.794 93.545,209.200 94.135,209.200 92.634 C 209.200 90.233,214.124 89.335,217.800 91.066 C 220.462 92.320,221.837 93.155,222.562 93.957 C 223.440 94.928,224.000 95.042,224.000 94.249 C 224.000 93.163,225.124 92.656,225.269 93.677 C 225.474 95.121,227.600 95.246,227.600 93.814 C 227.600 93.189,227.321 92.673,226.900 92.518 C 226.515 92.377,225.601 91.573,224.869 90.731 C 224.137 89.889,223.214 89.200,222.818 89.200 C 222.422 89.200,221.851 88.848,221.549 88.418 C 220.699 87.208,219.138 87.013,218.025 87.978 C 216.898 88.956,214.488 89.094,214.145 88.200 C 214.016 87.865,213.422 87.600,212.800 87.600 C 212.178 87.600,211.584 87.865,211.455 88.200 C 211.099 89.130,205.600 88.927,205.600 87.984 C 205.600 87.807,206.275 87.446,207.100 87.183 C 209.657 86.366,209.572 84.481,206.948 83.823 C 206.344 83.671,205.658 83.310,205.425 83.021 C 204.865 82.329,202.915 81.891,202.607 82.388 C 202.475 82.603,202.748 83.098,203.214 83.489 C 204.395 84.478,205.200 86.137,205.200 87.580 C 205.200 89.971,199.823 88.793,199.320 86.292 C 199.197 85.682,198.934 85.083,198.736 84.960 C 198.538 84.838,198.487 84.142,198.624 83.415 C 198.772 82.626,198.696 81.983,198.436 81.822 C 198.196 81.674,198.000 80.973,198.000 80.265 C 198.000 78.117,195.684 75.876,195.556 77.900 M176.617 79.547 C 176.291 80.575,176.709 82.103,177.229 81.782 C 177.696 81.494,177.701 79.979,177.238 79.247 C 176.963 78.813,176.829 78.877,176.617 79.547 M178.316 85.591 C 178.088 87.144,178.573 87.977,179.110 86.954 C 179.343 86.510,179.366 85.830,179.166 85.300 C 178.713 84.101,178.525 84.165,178.316 85.591 M166.946 86.017 C 167.136 86.190,166.748 86.613,166.082 86.958 C 165.417 87.302,164.795 87.812,164.701 88.092 C 164.566 88.494,164.391 88.485,163.863 88.049 C 163.495 87.746,162.625 87.381,161.927 87.239 C 160.356 86.917,160.024 86.116,161.267 85.646 C 162.302 85.254,166.403 85.522,166.946 86.017 M227.867 95.067 C 227.437 95.497,227.561 97.529,228.035 97.822 C 228.770 98.276,229.223 97.416,228.955 96.075 C 228.705 94.823,228.396 94.537,227.867 95.067 M229.505 99.519 C 229.402 99.915,229.496 101.484,229.715 103.007 C 230.287 106.981,229.527 113.569,228.200 116.137 C 227.650 117.202,227.200 118.587,227.200 119.213 C 227.200 120.582,226.674 121.012,225.996 120.196 C 225.724 119.868,225.193 119.600,224.815 119.600 C 224.437 119.600,223.912 119.125,223.648 118.546 L 223.168 117.491 222.254 118.349 C 221.286 119.259,220.800 119.126,220.800 117.952 C 220.800 116.910,219.940 115.190,219.542 115.436 C 218.905 115.829,219.191 118.462,219.978 119.463 C 220.485 120.107,220.851 121.411,221.027 123.195 C 221.361 126.590,222.230 126.684,222.318 123.335 C 222.417 119.600,223.306 118.227,223.827 121.006 C 223.972 121.779,224.360 122.562,224.688 122.745 C 225.017 122.929,225.428 123.782,225.603 124.640 C 225.777 125.498,226.303 127.550,226.771 129.200 C 227.239 130.850,227.608 133.145,227.591 134.300 C 227.573 135.496,227.736 136.400,227.971 136.400 C 230.517 136.400,230.675 147.446,228.177 150.831 C 227.640 151.560,227.200 152.633,227.200 153.216 C 227.200 153.799,226.867 154.577,226.460 154.946 C 225.415 155.891,225.400 172.425,226.443 174.018 C 226.796 174.558,227.172 176.041,227.277 177.312 C 227.400 178.803,227.769 180.032,228.316 180.772 C 228.783 181.403,229.279 182.375,229.418 182.930 C 229.558 183.486,230.012 184.249,230.428 184.625 C 230.844 185.002,231.298 185.917,231.438 186.659 C 231.774 188.450,232.304 188.703,232.832 187.324 C 233.138 186.522,233.138 185.786,232.831 184.754 C 232.154 182.482,232.296 180.504,233.200 179.600 C 233.640 179.160,234.000 178.731,234.000 178.647 C 234.000 178.262,231.748 178.114,231.318 178.470 C 230.474 179.167,230.000 178.413,230.000 176.376 C 230.000 174.233,230.549 173.811,231.273 175.400 C 232.172 177.373,232.789 175.798,232.997 171.000 C 233.125 168.050,234.201 163.744,235.145 162.400 C 238.939 157.001,240.274 151.960,238.670 149.088 C 237.145 146.357,235.676 144.094,235.262 143.838 C 235.058 143.712,234.764 142.932,234.610 142.104 C 234.455 141.277,234.120 140.347,233.864 140.039 C 233.549 139.658,233.376 136.702,233.324 130.839 C 233.261 123.572,233.118 121.698,232.424 119.036 C 231.971 117.296,231.597 114.686,231.594 113.236 C 231.590 111.786,231.332 109.520,231.021 108.200 C 230.670 106.716,230.540 104.862,230.681 103.342 C 230.995 99.944,230.130 97.131,229.505 99.519 M172.800 101.507 C 171.626 101.893,170.812 102.930,170.564 104.355 C 170.425 105.150,169.979 106.382,169.573 107.094 C 169.131 107.867,168.730 109.635,168.575 111.494 C 168.432 113.202,168.057 115.394,167.740 116.365 C 166.701 119.556,167.818 121.866,169.166 119.313 C 169.605 118.481,169.973 118.058,169.982 118.374 C 169.992 118.690,170.388 119.361,170.861 119.865 C 171.631 120.684,171.759 121.449,172.063 127.016 C 172.338 132.064,172.567 133.608,173.266 135.125 C 174.545 137.903,174.781 142.888,173.703 144.346 C 173.262 144.943,172.778 145.991,172.628 146.674 C 172.090 149.120,169.805 150.218,169.428 148.211 C 169.291 147.477,168.939 146.785,168.647 146.673 C 167.071 146.069,165.493 141.918,165.757 139.075 C 166.167 134.664,164.472 130.086,163.856 133.939 C 163.063 138.899,156.000 133.315,156.000 127.729 C 156.000 127.218,155.820 126.800,155.600 126.800 C 155.133 126.800,155.072 132.311,155.517 134.400 C 156.162 137.432,155.639 141.600,154.613 141.600 C 153.829 141.600,153.651 141.334,153.425 139.828 C 153.279 138.854,152.829 137.636,152.424 137.121 C 152.020 136.607,151.401 135.499,151.050 134.658 C 150.684 133.782,150.195 133.200,149.906 133.296 C 148.965 133.605,149.098 135.966,150.173 138.020 C 150.738 139.101,151.200 140.350,151.200 140.797 C 151.200 141.243,151.560 141.916,152.000 142.293 C 152.440 142.670,152.800 143.204,152.800 143.480 C 152.800 145.560,156.472 150.274,158.391 150.658 C 159.056 150.791,159.600 151.107,159.600 151.361 C 159.600 151.772,161.462 154.423,163.280 156.600 C 167.236 161.338,168.655 164.067,168.998 167.600 C 169.158 169.250,169.458 170.809,169.664 171.064 C 169.898 171.354,169.895 171.618,169.657 171.765 C 169.447 171.895,169.159 172.946,169.016 174.100 C 168.573 177.696,168.362 178.400,167.725 178.400 C 167.191 178.400,167.128 179.487,167.233 186.900 C 167.299 191.575,167.210 196.069,167.034 196.886 C 166.700 198.446,166.620 198.281,169.500 201.964 C 169.995 202.597,170.400 203.307,170.400 203.542 C 170.400 203.777,170.742 204.291,171.161 204.684 C 172.021 205.494,175.600 212.119,175.600 212.902 C 175.600 213.183,174.710 213.996,173.622 214.708 C 172.534 215.420,171.325 216.543,170.935 217.202 C 170.546 217.861,169.906 218.503,169.513 218.627 C 168.707 218.884,168.564 219.807,169.265 220.240 C 169.526 220.402,170.035 220.150,170.429 219.664 C 170.814 219.189,171.328 218.800,171.573 218.800 C 171.817 218.800,172.221 218.353,172.469 217.808 C 172.718 217.262,173.254 216.710,173.661 216.581 C 174.067 216.452,174.400 216.110,174.400 215.822 C 174.400 215.184,176.581 214.218,177.182 214.589 C 177.865 215.011,179.108 217.745,178.893 218.353 C 178.786 218.658,178.891 219.828,179.127 220.953 C 180.463 227.331,180.872 232.604,180.586 239.782 L 180.298 247.000 181.249 246.200 C 182.650 245.022,182.666 244.979,182.946 241.867 C 183.087 240.290,183.674 236.840,184.251 234.200 C 184.827 231.560,185.395 228.590,185.513 227.600 C 185.779 225.374,186.753 230.932,186.783 234.840 C 186.800 237.144,187.429 239.600,188.002 239.600 C 188.304 239.600,188.607 240.330,190.407 245.400 C 190.797 246.500,191.404 247.940,191.756 248.600 C 192.107 249.260,192.396 250.146,192.398 250.569 C 192.399 250.991,192.658 251.623,192.974 251.972 C 193.290 252.321,194.112 254.133,194.800 256.000 C 195.488 257.867,196.309 259.678,196.624 260.026 C 196.938 260.374,197.310 261.545,197.450 262.629 C 197.589 263.713,198.032 265.148,198.434 265.818 C 198.836 266.489,199.287 267.806,199.438 268.745 C 199.588 269.685,199.976 270.719,200.301 271.044 C 201.776 272.518,201.562 278.602,199.960 280.769 C 198.998 282.069,199.052 284.127,200.052 284.317 C 200.518 284.405,200.778 284.040,200.967 283.034 C 201.298 281.269,201.833 280.925,202.835 281.831 C 204.029 282.912,204.542 282.090,204.205 279.638 C 204.051 278.517,203.762 277.500,203.563 277.377 C 202.986 277.020,203.142 274.860,203.819 273.827 C 204.399 272.942,204.374 272.813,203.419 271.783 C 202.709 271.016,202.400 270.235,202.400 269.204 C 202.400 268.232,202.125 267.475,201.600 267.000 C 201.160 266.602,200.800 266.047,200.800 265.767 C 200.800 265.486,200.552 265.009,200.249 264.706 C 199.946 264.403,199.563 263.535,199.398 262.777 C 199.233 262.020,198.761 260.342,198.349 259.048 C 197.847 257.471,197.598 255.493,197.594 253.048 C 197.587 248.861,197.302 248.156,195.688 248.325 C 194.651 248.434,194.494 248.283,194.029 246.723 C 193.472 244.860,192.953 243.409,191.629 240.020 C 191.161 238.821,190.584 236.121,190.347 234.020 C 190.109 231.919,189.780 229.840,189.613 229.400 C 189.156 228.188,189.779 221.962,190.494 220.600 C 191.718 218.268,192.797 217.648,198.200 216.169 C 202.498 214.993,204.386 214.346,204.619 213.969 C 204.744 213.766,205.614 213.600,206.550 213.600 C 208.847 213.600,212.716 212.886,214.260 212.178 C 217.146 210.855,220.764 212.558,220.809 215.262 C 220.814 215.558,221.170 216.250,221.600 216.800 C 222.030 217.350,222.386 218.238,222.391 218.774 C 222.396 219.309,222.755 220.481,223.189 221.377 C 225.181 225.492,225.067 237.933,222.980 244.145 C 222.435 245.768,222.013 247.883,222.041 248.847 C 222.070 249.811,221.803 251.140,221.449 251.800 C 221.095 252.460,220.804 253.365,220.802 253.811 C 220.801 254.257,220.517 255.026,220.170 255.521 C 219.447 256.554,219.698 258.441,220.691 259.434 C 221.529 260.272,221.986 259.551,221.994 257.376 C 221.997 256.484,222.264 255.404,222.587 254.976 C 222.910 254.549,223.180 253.927,223.187 253.593 C 223.194 253.259,223.650 252.323,224.200 251.514 C 224.750 250.705,225.200 249.525,225.200 248.893 C 225.200 248.261,225.560 246.059,226.000 244.000 C 226.971 239.456,227.076 232.998,226.197 231.837 C 225.756 231.254,225.621 229.721,225.625 225.324 C 225.629 221.164,225.475 219.273,225.068 218.487 C 224.760 217.889,224.239 216.261,223.911 214.868 L 223.316 212.336 224.284 211.968 C 226.691 211.053,228.611 211.793,228.000 213.400 C 227.601 214.448,228.165 215.200,229.349 215.200 C 229.782 215.200,230.441 215.475,230.813 215.812 C 232.207 217.074,233.845 217.216,234.835 216.163 C 235.645 215.300,235.807 215.263,236.401 215.801 C 237.285 216.601,238.134 216.557,238.938 215.669 C 240.187 214.288,239.603 213.542,237.962 214.420 C 237.279 214.786,237.098 214.654,236.583 213.420 C 236.256 212.639,235.898 212.000,235.787 212.000 C 235.288 212.000,232.400 214.051,232.400 214.405 C 232.400 214.622,232.245 214.800,232.056 214.800 C 231.867 214.800,231.621 212.286,231.511 209.214 C 231.362 205.066,231.148 203.380,230.679 202.665 C 230.003 201.633,230.172 200.173,231.072 199.271 C 231.761 198.581,231.741 198.029,231.017 197.751 C 229.528 197.180,226.629 201.487,226.861 203.926 C 227.039 205.788,225.347 206.743,222.738 206.251 C 221.472 206.013,219.200 203.355,219.200 202.112 C 219.200 201.890,218.866 201.279,218.458 200.754 C 218.050 200.229,217.484 199.080,217.199 198.200 C 216.915 197.320,216.349 195.973,215.941 195.206 C 215.534 194.439,215.200 193.633,215.200 193.414 C 215.200 193.195,214.857 192.112,214.438 191.008 C 214.018 189.903,213.490 188.100,213.264 187.000 C 213.039 185.900,212.587 183.830,212.261 182.400 C 210.750 175.774,210.759 169.587,212.281 168.062 C 212.910 167.433,212.779 160.859,212.105 159.200 C 211.882 158.650,211.574 156.850,211.421 155.200 C 210.985 150.504,210.041 149.392,209.479 152.914 C 209.367 153.621,209.091 154.899,208.867 155.753 C 208.605 156.753,208.596 157.663,208.840 158.306 C 209.049 158.856,209.110 159.655,208.974 160.081 C 208.833 160.527,208.985 161.143,209.333 161.529 C 209.665 161.898,210.061 162.695,210.212 163.300 C 210.363 163.905,210.669 164.400,210.892 164.400 C 211.163 164.400,211.165 164.567,210.899 164.900 C 210.503 165.397,210.155 166.830,209.736 169.694 C 209.616 170.515,209.706 171.730,209.938 172.394 C 210.169 173.057,210.227 173.600,210.065 173.600 C 209.491 173.600,208.496 175.832,208.220 177.739 C 207.748 181.003,204.465 183.613,202.573 182.230 C 201.919 181.751,201.680 181.771,200.808 182.380 C 200.254 182.767,199.305 183.203,198.700 183.349 C 197.681 183.596,197.100 184.800,198.000 184.800 C 198.220 184.800,198.400 185.070,198.400 185.400 C 198.400 186.435,196.107 186.173,195.778 185.100 C 195.263 183.421,194.770 183.103,193.901 183.890 C 192.204 185.427,180.512 184.446,177.607 182.522 C 176.841 182.015,175.839 181.600,175.380 181.600 C 172.783 181.600,170.700 178.528,171.824 176.354 C 172.277 175.478,172.499 173.488,172.638 169.074 C 172.743 165.733,172.999 162.550,173.208 162.000 C 174.067 159.734,174.600 153.795,174.262 150.246 C 173.929 146.739,173.939 146.679,174.962 145.730 C 175.533 145.201,176.014 144.640,176.032 144.484 C 176.394 141.263,176.211 135.046,175.704 133.357 C 174.130 128.120,178.055 124.083,182.511 126.355 C 185.311 127.782,190.043 125.823,191.552 122.613 C 191.994 121.672,192.636 120.795,192.978 120.664 C 193.320 120.533,193.601 120.194,193.602 119.913 C 193.604 119.631,193.899 118.860,194.259 118.200 C 194.989 116.859,195.049 111.212,194.346 109.899 C 194.129 109.494,193.787 108.150,193.586 106.911 C 193.384 105.672,193.041 104.481,192.824 104.264 C 192.138 103.578,191.645 105.672,192.033 107.622 C 193.168 113.319,190.131 123.125,188.200 120.000 C 187.679 119.156,187.115 119.641,187.284 120.789 C 187.459 121.982,185.239 123.600,183.428 123.600 C 183.109 123.600,182.749 123.759,182.629 123.953 C 181.595 125.626,174.996 124.603,174.579 122.706 C 174.301 121.440,173.633 119.987,173.151 119.600 C 172.870 119.374,172.150 116.345,171.399 112.221 L 170.893 109.442 172.320 107.734 C 174.043 105.673,174.405 100.979,172.800 101.507 M211.875 101.458 C 211.261 102.073,211.612 104.311,212.408 104.851 C 214.136 106.025,213.632 117.138,211.720 120.043 C 210.124 122.465,205.800 124.036,204.709 122.589 C 204.344 122.105,203.500 121.600,202.835 121.467 C 202.169 121.334,201.244 120.844,200.779 120.379 C 199.684 119.284,199.508 119.518,199.508 122.060 C 199.508 124.345,200.743 126.000,202.449 126.000 C 203.989 126.000,204.800 126.752,204.800 128.181 C 204.800 129.954,205.148 130.800,205.878 130.800 C 206.352 130.800,206.414 131.138,206.188 132.500 C 205.868 134.426,204.965 136.400,204.404 136.400 C 203.726 136.400,203.077 138.037,203.563 138.523 C 203.803 138.763,204.000 139.510,204.000 140.183 C 204.000 140.855,204.184 142.034,204.410 142.803 C 204.953 144.654,204.520 147.080,203.458 148.142 C 202.548 149.051,202.411 151.053,203.007 154.707 C 203.292 156.451,202.217 161.600,201.568 161.600 C 200.819 161.600,200.838 163.267,201.609 165.223 C 202.068 166.387,202.535 168.523,202.647 169.969 C 203.172 176.742,204.300 175.624,204.350 168.280 C 204.390 162.350,204.729 159.259,205.454 158.211 C 206.196 157.139,206.142 154.198,205.341 152.102 C 204.694 150.408,204.700 150.359,205.623 149.376 C 206.479 148.465,206.559 148.044,206.512 144.711 C 206.476 142.120,206.628 140.810,207.031 140.235 C 208.026 138.813,207.498 130.626,206.210 127.517 C 205.904 126.777,207.257 126.198,208.660 126.468 C 209.559 126.642,210.515 130.348,210.191 132.400 C 209.636 135.907,210.341 138.542,212.073 139.438 C 212.700 139.762,213.200 140.353,213.200 140.770 C 213.200 141.182,213.740 142.545,214.400 143.800 C 215.060 145.055,215.600 146.339,215.600 146.653 C 215.600 147.681,216.875 147.794,217.652 146.835 C 218.959 145.221,219.300 143.158,218.415 142.216 C 217.442 141.180,216.822 138.505,216.810 135.287 C 216.801 133.081,216.665 132.640,215.700 131.687 C 213.789 129.799,212.731 122.419,214.197 121.202 C 215.016 120.522,215.595 118.168,215.678 115.181 C 215.741 112.879,215.838 112.627,216.885 112.039 C 217.775 111.540,217.974 111.198,217.798 110.476 C 217.436 108.993,214.697 104.866,213.943 104.669 C 213.476 104.547,213.213 104.001,213.127 102.975 C 213.006 101.528,212.463 100.871,211.875 101.458 M146.080 109.280 C 145.816 109.544,145.598 110.489,145.596 111.380 C 145.593 112.271,145.323 113.884,144.996 114.964 C 144.396 116.940,144.251 122.183,144.747 123.953 C 145.186 125.521,145.997 124.069,146.320 121.134 L 146.600 118.600 147.860 118.726 C 149.225 118.862,149.515 118.585,150.291 116.400 C 150.964 114.505,150.964 114.505,149.600 113.800 C 148.940 113.459,148.400 112.907,148.400 112.574 C 148.400 112.016,146.927 108.800,146.672 108.800 C 146.610 108.800,146.344 109.016,146.080 109.280 M153.317 117.281 C 153.034 117.636,153.032 118.634,153.308 120.433 L 153.712 123.067 155.473 123.067 C 158.017 123.067,162.400 127.570,162.400 130.184 C 162.400 132.369,163.513 130.459,163.727 127.906 C 164.008 124.546,163.538 123.468,161.404 122.576 C 160.670 122.269,159.219 121.282,158.179 120.382 C 157.139 119.481,155.818 118.446,155.244 118.082 C 154.670 117.717,154.094 117.271,153.965 117.090 C 153.835 116.910,153.544 116.996,153.317 117.281 M164.001 119.398 C 163.307 120.235,164.232 121.837,165.028 121.177 C 165.764 120.566,165.765 119.349,165.029 119.067 C 164.715 118.946,164.253 119.095,164.001 119.398 M192.000 125.094 C 192.000 126.330,193.075 127.576,193.405 126.723 C 193.806 125.690,193.470 124.624,192.695 124.475 C 192.234 124.386,192.000 124.594,192.000 125.094 M222.664 127.377 C 221.965 129.199,222.692 133.161,223.620 132.588 C 224.195 132.232,224.075 128.255,223.464 127.420 C 222.964 126.737,222.911 126.734,222.664 127.377 M146.400 129.000 C 146.400 129.770,146.580 130.400,146.800 130.400 C 147.020 130.400,147.200 129.770,147.200 129.000 C 147.200 128.230,147.020 127.600,146.800 127.600 C 146.580 127.600,146.400 128.230,146.400 129.000 M194.400 132.200 C 194.400 134.143,194.485 135.648,194.590 135.543 C 194.880 135.253,194.935 129.201,194.650 128.917 C 194.512 128.779,194.400 130.257,194.400 132.200 M168.692 132.055 C 167.888 133.746,167.687 134.579,167.958 135.093 C 168.164 135.482,168.639 137.023,169.015 138.518 C 169.916 142.102,170.041 141.805,170.138 135.851 C 170.240 129.555,170.080 129.136,168.692 132.055 M210.044 142.012 C 209.528 143.734,210.088 147.040,210.819 146.588 C 211.291 146.296,211.328 140.926,210.859 140.637 C 210.672 140.521,210.305 141.140,210.044 142.012 M193.714 147.895 L 192.829 148.800 194.014 148.800 C 195.170 148.800,195.514 148.250,194.894 147.395 C 194.713 147.145,194.260 147.337,193.714 147.895 M172.000 152.200 C 172.000 152.750,171.820 153.200,171.600 153.200 C 171.380 153.200,171.200 152.750,171.200 152.200 C 171.200 151.650,171.380 151.200,171.600 151.200 C 171.820 151.200,172.000 151.650,172.000 152.200 M233.285 153.200 C 233.114 154.370,232.298 154.806,231.798 153.996 C 231.378 153.317,232.012 152.000,232.758 152.000 C 233.312 152.000,233.424 152.255,233.285 153.200 M217.394 153.220 C 217.024 154.385,217.551 155.600,218.427 155.600 C 219.450 155.600,219.446 154.246,218.420 153.220 C 217.648 152.448,217.639 152.448,217.394 153.220 M156.922 154.498 C 156.698 154.994,156.480 157.642,156.439 160.381 C 156.390 163.571,156.190 165.571,155.881 165.943 C 155.556 166.335,155.373 168.732,155.316 173.361 C 155.189 183.636,154.502 192.824,153.599 196.327 C 153.149 198.075,152.721 201.384,152.606 204.000 C 152.348 209.890,153.276 209.425,141.105 209.755 C 128.960 210.083,115.407 210.718,113.926 211.028 C 112.295 211.369,111.642 209.963,110.800 204.302 C 110.396 201.587,109.799 198.743,109.473 197.982 C 109.148 197.222,108.371 195.250,107.747 193.600 C 105.581 187.870,102.136 184.800,97.870 184.800 C 95.218 184.800,91.777 186.479,90.826 188.237 C 90.481 188.877,89.883 189.845,89.499 190.389 C 89.114 190.933,88.800 191.633,88.800 191.945 C 88.800 192.257,88.457 193.252,88.038 194.156 C 86.847 196.724,85.521 203.067,85.409 206.726 C 85.353 208.555,85.144 210.216,84.943 210.417 C 84.463 210.897,73.307 211.597,66.116 211.599 C 57.067 211.601,42.003 212.706,40.866 213.451 C 39.599 214.281,39.702 219.115,41.013 220.338 C 41.881 221.146,47.306 221.068,68.800 219.935 C 83.659 219.153,84.920 219.188,85.255 220.400 C 86.124 223.540,87.200 228.444,87.200 229.267 C 87.200 229.792,87.447 230.577,87.749 231.011 C 88.051 231.445,88.425 232.430,88.580 233.200 C 90.539 242.936,99.797 247.440,105.900 241.626 C 106.395 241.155,106.800 240.530,106.800 240.238 C 106.800 239.947,107.127 239.279,107.527 238.754 C 109.355 236.354,112.000 225.210,112.000 219.909 C 112.000 216.667,112.392 216.400,117.147 216.400 C 119.286 216.400,124.088 216.141,127.818 215.825 C 147.378 214.165,152.882 214.498,151.911 217.282 C 151.354 218.881,151.722 228.898,152.540 234.400 C 152.884 236.710,153.351 240.040,153.579 241.800 C 154.382 248.006,155.331 252.397,157.837 261.500 C 158.035 262.217,159.469 262.118,159.757 261.367 C 160.212 260.182,159.984 258.203,159.191 256.456 C 158.756 255.497,158.400 254.220,158.400 253.619 C 158.400 253.017,158.067 251.552,157.660 250.363 C 157.166 248.916,156.827 246.346,156.637 242.600 C 156.480 239.520,156.191 236.190,155.994 235.200 C 155.471 232.580,155.523 225.501,156.079 223.421 C 156.511 221.805,156.469 221.454,155.641 219.795 C 155.050 218.612,154.811 217.611,154.969 216.980 C 155.333 215.531,156.000 215.791,156.000 217.382 C 156.000 218.642,156.122 218.787,157.386 219.024 C 158.148 219.167,158.980 219.535,159.235 219.842 C 159.888 220.629,162.005 220.540,162.643 219.700 C 163.133 219.054,163.176 219.053,163.187 219.676 C 163.194 220.048,163.020 220.464,162.800 220.600 C 161.749 221.250,162.668 221.600,165.424 221.600 C 167.337 221.600,168.356 221.453,168.200 221.200 C 168.064 220.980,167.610 220.800,167.190 220.800 C 166.771 220.800,166.247 220.461,166.025 220.046 C 165.803 219.631,165.179 219.181,164.638 219.045 C 164.022 218.891,163.608 218.464,163.528 217.899 C 163.369 216.785,160.145 216.714,159.345 217.807 C 158.976 218.313,158.821 217.554,158.591 214.122 C 158.432 211.745,158.054 209.314,157.751 208.720 C 156.968 207.185,157.049 203.436,157.900 201.880 C 158.982 199.901,158.795 187.646,157.628 184.048 C 156.729 181.278,156.569 179.390,157.200 179.000 C 157.715 178.682,157.720 175.371,157.206 174.412 C 156.450 172.999,156.206 167.931,156.871 167.441 C 157.199 167.198,157.598 166.460,157.757 165.800 C 157.917 165.140,158.407 163.846,158.847 162.925 C 159.581 161.388,159.597 161.155,159.041 160.079 C 158.707 159.434,158.253 157.779,158.031 156.400 C 157.558 153.462,157.464 153.301,156.922 154.498 M234.395 156.124 C 234.392 156.826,234.278 157.814,234.142 158.321 L 233.896 159.242 232.963 158.365 L 232.030 157.488 232.815 156.490 C 233.247 155.941,233.600 155.236,233.600 154.922 C 233.600 154.609,233.780 154.464,234.000 154.600 C 234.220 154.736,234.398 155.422,234.395 156.124 M218.974 159.396 C 218.625 161.261,219.137 165.915,219.842 167.280 C 220.149 167.874,220.400 168.806,220.400 169.351 C 220.400 169.932,220.814 170.668,221.400 171.129 C 221.987 171.590,222.400 172.325,222.400 172.909 C 222.400 174.050,223.371 175.095,223.794 174.410 C 224.167 173.806,223.640 171.665,223.029 171.302 C 222.749 171.136,222.402 169.840,222.258 168.422 C 222.114 167.004,221.646 165.114,221.219 164.222 C 220.791 163.330,220.318 161.651,220.168 160.491 C 219.837 157.937,219.335 157.476,218.974 159.396 M239.082 161.600 C 237.906 164.702,237.588 166.860,238.154 167.913 C 238.475 168.511,238.840 169.326,238.966 169.725 C 239.389 171.068,239.881 170.044,240.137 167.286 C 240.392 164.547,239.594 160.249,239.082 161.600 M240.591 171.700 C 240.468 172.195,240.537 173.320,240.743 174.200 C 241.114 175.774,241.120 175.760,241.160 173.300 C 241.201 170.728,240.985 170.119,240.591 171.700 M237.309 174.400 C 237.309 175.390,237.387 175.795,237.482 175.300 C 237.578 174.805,237.578 173.995,237.482 173.500 C 237.387 173.005,237.309 173.410,237.309 174.400 M224.557 175.433 C 224.691 175.781,224.803 176.186,224.806 176.333 C 224.814 176.691,225.586 175.483,225.594 175.100 C 225.597 174.935,225.311 174.800,224.957 174.800 C 224.535 174.800,224.398 175.018,224.557 175.433 M166.006 176.676 C 166.003 177.158,166.180 177.664,166.400 177.800 C 166.909 178.115,166.909 177.188,166.400 176.400 C 166.085 175.912,166.011 175.964,166.006 176.676 M202.989 176.901 C 202.660 178.211,202.886 179.800,203.400 179.800 C 203.620 179.800,203.857 179.101,203.927 178.247 C 204.080 176.386,203.373 175.372,202.989 176.901 M289.000 180.020 C 287.165 181.005,284.400 183.537,284.400 184.232 C 284.400 184.491,284.111 184.942,283.758 185.235 C 282.162 186.559,280.648 191.239,279.369 198.800 C 278.435 204.321,278.667 203.915,276.300 204.159 C 275.145 204.278,267.450 204.457,259.200 204.556 C 247.071 204.703,244.204 204.839,244.222 205.269 C 244.320 207.601,244.981 209.289,245.939 209.653 C 247.086 210.089,263.010 209.798,272.399 209.170 C 277.519 208.827,278.251 208.856,278.661 209.415 C 279.237 210.203,280.222 213.275,280.581 215.400 C 280.906 217.328,282.680 221.964,283.412 222.800 C 283.701 223.130,284.054 223.866,284.196 224.436 C 284.546 225.840,288.892 230.591,290.281 231.088 C 294.592 232.631,296.761 232.775,300.338 231.755 C 303.948 230.727,309.600 223.974,309.600 220.691 C 309.600 220.253,309.940 219.333,310.355 218.647 C 310.835 217.854,311.206 216.235,311.372 214.200 C 311.905 207.696,310.879 208.154,325.717 207.800 C 340.095 207.456,341.200 207.159,341.200 203.638 C 341.200 201.152,339.251 199.330,337.072 199.780 C 334.952 200.217,324.994 200.738,318.143 200.770 C 311.078 200.803,311.200 200.845,311.200 198.351 C 311.200 197.701,310.840 196.462,310.400 195.600 C 309.960 194.738,309.600 193.708,309.600 193.313 C 309.600 192.917,309.176 191.785,308.657 190.797 C 308.139 189.809,307.595 188.505,307.450 187.900 C 307.304 187.295,307.008 186.800,306.792 186.800 C 306.577 186.800,306.400 186.547,306.400 186.238 C 306.400 185.541,302.924 181.894,300.899 180.465 C 298.753 178.951,291.497 178.680,289.000 180.020 M240.615 181.511 C 240.475 182.342,240.537 183.467,240.755 184.011 C 241.080 184.826,241.154 184.561,241.175 182.500 C 241.203 179.666,240.990 179.289,240.615 181.511 M244.312 196.600 C 243.719 198.558,243.617 200.389,244.043 201.451 L 244.504 202.600 244.854 201.337 C 245.248 199.915,244.716 195.267,244.312 196.600 M240.893 210.400 C 240.893 211.170,240.975 211.485,241.076 211.100 C 241.176 210.715,241.176 210.085,241.076 209.700 C 240.975 209.315,240.893 209.630,240.893 210.400 M102.387 214.364 C 102.353 214.963,100.777 216.433,100.411 216.207 C 99.971 215.935,99.842 213.892,100.240 213.493 C 100.508 213.225,102.408 213.995,102.387 214.364 M186.075 218.246 L 185.697 220.600 185.648 217.820 C 185.614 215.853,185.725 215.165,186.026 215.466 C 186.318 215.758,186.334 216.633,186.075 218.246 M207.039 222.736 C 206.540 223.545,207.305 226.828,208.091 227.249 C 209.195 227.840,209.290 227.577,208.923 224.947 C 208.610 222.704,207.711 221.649,207.039 222.736 M196.252 224.327 C 195.746 225.129,195.782 227.542,196.308 228.068 C 197.033 228.793,197.366 227.442,196.945 225.476 C 196.702 224.342,196.478 223.971,196.252 224.327 M196.241 231.246 C 195.981 233.364,196.305 235.833,197.153 238.200 C 197.390 238.860,197.691 240.271,197.822 241.337 C 198.186 244.299,198.433 243.348,198.661 238.103 C 198.843 233.934,198.781 233.238,198.178 232.635 C 197.797 232.255,197.266 231.302,196.996 230.517 L 196.506 229.091 196.241 231.246 M201.274 247.851 C 200.459 253.202,200.805 261.991,201.860 262.749 C 202.053 262.887,202.388 263.522,202.605 264.159 C 203.243 266.031,204.921 267.059,206.288 266.415 L 207.400 265.892 206.088 265.340 C 205.366 265.036,204.604 264.336,204.394 263.784 C 204.184 263.231,203.778 262.690,203.492 262.580 C 203.141 262.445,202.927 261.313,202.831 259.090 C 202.635 254.505,202.633 254.630,202.981 250.400 C 203.263 246.971,203.218 246.507,202.523 245.651 L 201.753 244.702 201.274 247.851 M217.515 248.100 C 217.302 252.271,217.515 252.921,218.461 250.976 C 219.360 249.129,219.400 247.548,218.590 245.980 C 217.738 244.333,217.705 244.398,217.515 248.100 M213.854 254.100 C 213.265 258.334,213.196 259.842,213.567 260.397 C 214.275 261.454,214.931 260.201,215.255 257.174 C 215.689 253.108,214.389 250.255,213.854 254.100 M167.867 253.467 C 167.435 253.899,167.558 259.200,168.000 259.200 C 168.231 259.200,168.400 257.933,168.400 256.200 C 168.400 253.188,168.359 252.975,167.867 253.467 M181.626 257.019 C 181.017 260.517,181.700 264.001,182.557 261.767 C 182.938 260.776,182.841 254.873,182.441 254.625 C 182.243 254.503,181.877 255.580,181.626 257.019 M176.644 258.694 C 176.526 259.082,176.435 261.290,176.442 263.600 C 176.458 268.889,175.758 277.933,175.224 279.336 C 174.965 280.017,174.960 280.400,175.210 280.400 C 175.424 280.400,175.600 280.151,175.600 279.847 C 175.600 279.542,175.952 279.201,176.382 279.089 C 176.812 278.976,177.244 278.460,177.342 277.942 C 177.440 277.424,177.818 275.290,178.183 273.200 C 179.041 268.282,179.607 266.400,180.228 266.400 C 180.742 266.400,181.465 263.332,181.049 262.916 C 180.674 262.541,179.600 263.640,179.600 264.400 C 179.600 265.524,178.600 266.143,177.906 265.449 C 177.465 265.007,177.372 264.121,177.512 261.689 C 177.686 258.693,177.176 256.937,176.644 258.694 M212.000 265.800 C 212.000 266.130,212.180 266.400,212.400 266.400 C 212.620 266.400,212.800 266.130,212.800 265.800 C 212.800 265.470,212.620 265.200,212.400 265.200 C 212.180 265.200,212.000 265.470,212.000 265.800 M209.600 267.600 C 210.383 268.106,211.200 268.106,211.200 267.600 C 211.200 267.380,210.705 267.203,210.100 267.206 C 209.243 267.211,209.132 267.298,209.600 267.600 M154.635 281.849 C 154.066 282.867,153.600 283.833,153.600 283.995 C 153.600 284.156,153.169 284.924,152.641 285.701 C 152.114 286.478,151.564 287.655,151.419 288.316 C 151.273 288.976,150.805 289.834,150.377 290.221 C 149.917 290.637,149.600 291.444,149.600 292.201 C 149.600 292.903,149.268 293.860,148.863 294.328 C 147.698 295.671,146.618 304.286,147.141 308.065 C 147.365 309.679,147.657 312.401,147.792 314.114 C 148.289 320.456,148.978 320.054,149.361 313.200 C 149.478 311.110,149.939 307.976,150.387 306.236 C 150.834 304.496,151.200 302.403,151.200 301.586 C 151.200 299.129,151.642 297.641,152.448 297.385 C 152.936 297.230,153.202 296.769,153.205 296.073 C 153.214 294.393,153.643 293.200,154.237 293.200 C 155.115 293.200,155.931 291.564,156.233 289.200 C 156.387 287.990,156.661 286.601,156.842 286.114 C 157.032 285.599,157.008 285.129,156.785 284.991 C 156.573 284.860,156.400 283.784,156.400 282.600 C 156.400 279.786,155.906 279.575,154.635 281.849 M219.359 283.439 C 219.590 286.035,219.815 286.777,220.620 287.591 L 221.600 288.582 221.600 286.891 C 221.600 285.733,221.348 284.948,220.800 284.400 C 220.310 283.910,220.000 283.067,220.000 282.224 C 220.000 281.467,219.793 280.719,219.539 280.562 C 219.198 280.351,219.151 281.096,219.359 283.439 M197.867 285.067 C 197.720 285.213,197.600 286.100,197.600 287.038 C 197.600 288.057,197.346 288.997,196.970 289.373 C 196.021 290.321,195.535 294.803,195.773 300.400 C 195.890 303.150,195.989 306.167,195.993 307.104 C 195.998 308.307,196.235 309.009,196.800 309.493 C 197.295 309.916,197.600 310.673,197.600 311.475 C 197.600 312.332,197.853 312.907,198.347 313.171 C 198.790 313.409,199.195 314.206,199.343 315.134 C 199.480 315.993,199.853 316.912,200.171 317.176 C 200.489 317.439,200.861 318.168,200.999 318.795 C 201.136 319.421,201.598 320.337,202.025 320.828 C 202.451 321.320,202.800 322.145,202.800 322.661 C 202.800 323.178,203.160 323.960,203.600 324.400 C 204.040 324.840,204.400 325.731,204.400 326.380 C 204.400 329.994,205.907 332.985,206.610 330.767 C 207.158 329.041,206.392 324.400,205.559 324.400 C 204.954 324.400,204.800 324.108,204.800 322.960 C 204.800 322.169,204.524 320.938,204.186 320.227 C 203.468 318.714,204.424 315.787,206.102 314.363 C 207.645 313.053,206.046 312.160,204.061 313.223 C 202.178 314.233,199.600 313.363,199.600 311.717 C 199.600 311.425,199.168 310.334,198.640 309.293 C 196.903 305.866,196.898 297.430,198.631 291.427 C 199.715 287.669,199.238 283.695,197.867 285.067 M171.282 293.071 C 171.075 293.472,170.779 294.520,170.624 295.400 C 170.470 296.280,170.092 297.810,169.784 298.800 C 168.798 301.977,168.004 307.627,167.592 314.400 C 167.371 318.030,167.078 322.303,166.942 323.895 C 166.510 328.921,168.501 329.477,169.018 324.475 C 169.171 323.004,169.517 321.257,169.788 320.593 C 170.059 319.930,170.403 318.577,170.551 317.587 C 170.699 316.597,171.175 315.250,171.608 314.594 C 172.221 313.663,172.395 312.708,172.397 310.260 C 172.399 308.277,172.625 306.646,173.012 305.832 C 174.057 303.628,173.686 293.686,172.530 292.919 C 171.750 292.402,171.620 292.418,171.282 293.071 M153.546 307.400 C 153.413 310.040,153.426 313.190,153.575 314.400 L 153.847 316.600 154.165 314.727 C 154.340 313.697,154.326 310.547,154.135 307.727 L 153.787 302.600 153.546 307.400 M221.028 312.868 C 220.843 314.666,220.869 316.405,221.091 317.068 C 221.621 318.650,222.077 314.163,221.647 311.600 C 221.345 309.805,221.343 309.809,221.028 312.868 M210.172 317.768 C 209.873 318.959,210.066 320.016,210.600 320.121 C 210.820 320.165,211.055 319.435,211.123 318.500 C 211.256 316.663,210.580 316.143,210.172 317.768 M219.709 322.400 C 219.709 323.390,219.787 323.795,219.882 323.300 C 219.978 322.805,219.978 321.995,219.882 321.500 C 219.787 321.005,219.709 321.410,219.709 322.400 M150.109 323.600 C 150.109 324.590,150.187 324.995,150.282 324.500 C 150.378 324.005,150.378 323.195,150.282 322.700 C 150.187 322.205,150.109 322.610,150.109 323.600 M207.887 331.324 C 206.421 331.903,206.167 333.105,206.779 336.568 C 207.873 342.765,207.994 346.448,207.164 348.351 C 206.744 349.314,206.396 350.394,206.391 350.751 C 206.386 351.108,206.006 352.210,205.546 353.200 C 203.360 357.904,206.604 364.190,209.581 361.020 C 210.285 360.271,210.768 360.094,211.631 360.266 L 212.760 360.492 212.561 357.546 C 212.403 355.210,212.067 354.020,210.938 351.800 C 209.570 349.111,209.526 348.889,209.809 346.200 C 210.216 342.343,210.160 341.243,209.411 338.328 C 208.953 336.546,208.840 335.062,209.027 333.300 C 209.174 331.925,209.227 330.819,209.147 330.843 C 209.066 330.866,208.499 331.083,207.887 331.324 M155.039 331.937 C 154.889 332.180,154.597 333.958,154.391 335.889 C 154.184 337.820,153.909 340.176,153.779 341.125 L 153.544 342.850 154.747 342.227 C 155.734 341.717,156.000 341.272,156.228 339.752 C 156.724 336.445,155.840 330.640,155.039 331.937 M218.947 343.113 C 218.265 344.205,218.867 349.492,219.917 351.644 C 220.412 352.659,220.713 353.761,220.586 354.093 C 220.458 354.425,220.634 354.977,220.977 355.320 C 221.766 356.109,221.777 357.047,221.000 357.345 C 220.670 357.471,220.400 358.001,220.400 358.521 C 220.400 360.215,219.137 359.986,217.084 357.920 C 216.224 357.054,215.759 357.009,215.470 357.762 C 215.351 358.072,215.604 358.642,216.033 359.029 C 216.617 359.558,216.752 360.048,216.575 360.993 C 216.285 362.540,216.633 362.834,219.867 363.783 C 221.558 364.279,222.396 364.742,222.530 365.253 C 222.799 366.281,224.400 366.255,224.400 365.224 C 224.400 364.345,224.560 364.216,226.100 363.848 C 227.005 363.631,227.200 363.719,227.200 364.342 C 227.200 365.524,228.730 368.688,229.432 368.957 C 231.475 369.741,232.789 369.096,232.050 367.674 C 231.858 367.303,231.845 366.640,232.022 366.200 C 232.267 365.592,232.351 365.556,232.372 366.051 C 232.422 367.220,233.332 367.632,234.713 367.110 C 235.830 366.689,236.048 366.733,236.730 367.519 C 237.706 368.645,238.114 368.627,239.438 367.400 C 240.031 366.850,240.671 366.400,240.858 366.400 C 241.046 366.400,241.200 366.040,241.200 365.600 C 241.200 365.160,241.020 364.800,240.800 364.800 C 240.580 364.800,240.400 364.521,240.400 364.181 C 240.400 362.964,234.120 358.800,232.285 358.800 C 231.571 358.800,226.978 354.809,224.584 352.106 C 223.273 350.627,221.789 349.027,221.286 348.550 C 220.647 347.944,220.300 347.037,220.132 345.541 C 219.826 342.810,219.524 342.190,218.947 343.113 M154.357 347.467 C 152.898 347.852,152.372 370.136,153.756 372.923 C 154.832 375.089,156.960 376.644,158.115 376.109 C 160.108 375.187,161.200 374.833,161.209 375.109 C 161.214 375.269,161.558 375.842,161.973 376.383 L 162.729 377.366 163.655 375.797 L 164.580 374.228 164.907 375.879 C 165.506 378.907,167.600 378.286,167.600 375.080 C 167.600 373.472,168.254 374.248,168.600 376.267 C 169.016 378.694,170.434 379.820,171.050 378.213 C 171.519 376.990,173.355 376.353,174.366 377.061 C 175.789 378.058,176.424 375.633,175.141 374.105 C 174.815 373.717,174.037 372.095,173.411 370.500 C 172.785 368.905,172.119 367.600,171.930 367.600 C 171.741 367.600,171.287 366.970,170.919 366.200 C 170.552 365.430,170.112 364.800,169.941 364.800 C 169.771 364.800,169.357 363.877,169.022 362.749 C 168.687 361.620,168.256 360.495,168.064 360.249 C 167.421 359.421,167.125 357.826,166.829 353.585 C 166.560 349.751,166.437 349.274,165.467 348.303 L 164.400 347.236 164.400 350.809 C 164.400 354.609,163.603 356.037,161.856 355.366 C 161.494 355.227,159.897 355.088,158.305 355.057 C 154.879 354.990,154.651 354.646,155.981 351.556 C 157.130 348.884,156.359 346.940,154.357 347.467 M224.400 367.000 C 224.400 367.330,224.670 367.600,225.000 367.600 C 225.330 367.600,225.600 367.330,225.600 367.000 C 225.600 366.670,225.330 366.400,225.000 366.400 C 224.670 366.400,224.400 366.670,224.400 367.000 " stroke="none" fill="#3c3a39" fill-rule="evenodd"></path></g></svg>