<?xml version="1.0" standalone="no"?>
<!DOCTYPE svg PUBLIC "-//W3C//DTD SVG 20010904//EN"
 "http://www.w3.org/TR/2001/REC-SVG-20010904/DTD/svg10.dtd">
<svg version="1.0" xmlns="http://www.w3.org/2000/svg"
 width="480.000000pt" height="270.000000pt" viewBox="0 0 480.000000 270.000000"
 preserveAspectRatio="xMidYMid meet">

<g transform="translate(0.000000,270.000000) scale(0.100000,-0.100000)"
fill="#000000" stroke="none">
<path d="M1948 2533 c7 -3 16 -2 19 1 4 3 -2 6 -13 5 -11 0 -14 -3 -6 -6z"/>
<path d="M1988 2490 c4 -29 -11 -60 -30 -60 -5 0 -7 4 -4 8 2 4 1 14 -3 21 -5
7 -8 1 -9 -18 -1 -39 7 -44 37 -20 25 21 36 88 15 96 -7 2 -9 -8 -6 -27z"/>
<path d="M1412 1478 c2 -546 4 -833 5 -638 7 932 7 1630 1 1630 -5 0 -7 -447
-6 -992z"/>
<path d="M1740 2459 c0 -5 5 -7 10 -4 6 3 10 8 10 11 0 2 -4 4 -10 4 -5 0 -10
-5 -10 -11z"/>
<path d="M1515 2450 c-3 -6 1 -7 9 -4 18 7 21 14 7 14 -6 0 -13 -4 -16 -10z"/>
<path d="M1790 2433 c-106 -26 -164 -31 -260 -19 -84 11 -73 -1 16 -17 59 -10
69 -15 75 -37 6 -23 7 -23 8 -3 1 24 42 44 49 24 2 -6 8 -9 13 -5 5 3 9 -4 9
-15 0 -11 5 -23 10 -26 6 -3 10 3 10 13 0 18 4 19 38 11 20 -5 52 -9 70 -9 27
0 32 4 32 24 0 17 -8 27 -27 34 -28 10 -27 10 15 17 41 7 60 19 45 28 -5 2
-51 -6 -103 -20z"/>
<path d="M1571 2434 c0 -11 3 -14 6 -6 3 7 2 16 -1 19 -3 4 -6 -2 -5 -13z"/>
<path d="M1891 2404 c0 -11 3 -14 6 -6 3 7 2 16 -1 19 -3 4 -6 -2 -5 -13z"/>
<path d="M1951 2374 c0 -11 3 -14 6 -6 3 7 2 16 -1 19 -3 4 -6 -2 -5 -13z"/>
<path d="M1662 2339 c-14 -22 -10 -35 6 -25 12 7 23 46 13 46 -3 0 -12 -9 -19
-21z"/>
<path d="M1883 2295 c0 -22 2 -30 4 -17 2 12 2 30 0 40 -3 9 -5 -1 -4 -23z"/>
<path d="M1937 2271 c-4 -35 -6 -91 -6 -125 1 -43 4 -27 10 54 9 126 6 173 -4
71z"/>
<path d="M1872 2190 c0 -14 2 -19 5 -12 2 6 2 18 0 25 -3 6 -5 1 -5 -13z"/>
<path d="M1872 2125 c0 -16 2 -22 5 -12 2 9 2 23 0 30 -3 6 -5 -1 -5 -18z"/>
<path d="M1923 2000 c0 -47 2 -66 4 -42 2 23 2 61 0 85 -2 23 -4 4 -4 -43z"/>
<path d="M3177 2010 c-16 -5 -35 -15 -44 -22 -26 -21 -54 -94 -47 -122 3 -13
1 -27 -4 -30 -11 -6 -5 -116 7 -127 3 -4 18 -9 32 -13 21 -4 28 -1 37 20 15
31 15 56 1 32 -13 -23 -36 -23 -48 0 -18 33 -19 152 -1 152 6 0 10 -9 10 -20
0 -11 5 -20 10 -20 6 0 10 9 10 19 0 24 17 30 53 20 23 -7 28 -5 23 7 -4 11 0
13 22 8 15 -4 31 -11 37 -15 5 -5 19 -9 31 -9 31 0 43 -39 18 -57 -10 -7 -23
-12 -30 -9 -15 6 -5 -44 12 -62 11 -10 17 -5 34 28 31 61 35 118 11 157 -11
18 -30 39 -43 47 -30 19 -95 28 -131 16z"/>
<path d="M1852 1955 c0 -16 2 -22 5 -12 2 9 2 23 0 30 -3 6 -5 -1 -5 -18z"/>
<path d="M1851 1864 c0 -11 3 -14 6 -6 3 7 2 16 -1 19 -3 4 -6 -2 -5 -13z"/>
<path d="M1913 1790 c0 -36 2 -50 4 -32 2 17 2 47 0 65 -2 17 -4 3 -4 -33z"/>
<path d="M3147 1827 c-4 -10 -7 -26 -7 -35 1 -15 2 -15 11 1 6 10 9 25 7 35
-3 16 -4 15 -11 -1z"/>
<path d="M1903 1630 c0 -36 2 -50 4 -32 2 17 2 47 0 65 -2 17 -4 3 -4 -33z"/>
<path d="M3166 1671 c-4 -7 -14 -10 -22 -7 -10 4 -20 -7 -31 -29 -15 -32 -21
-35 -59 -35 -73 0 -143 -20 -178 -50 -30 -27 -183 -86 -283 -109 -30 -7 -33
-9 -12 -10 14 -1 39 -6 55 -11 23 -8 40 -5 86 13 32 13 56 26 54 28 -2 2 13 4
35 4 21 1 39 -2 39 -6 0 -10 53 -27 68 -22 6 3 12 13 12 24 0 15 -7 19 -34 19
-46 0 -54 16 -25 47 33 36 72 50 159 58 65 6 80 11 114 40 21 18 37 38 34 46
-3 10 -6 10 -12 0z"/>
<path d="M3340 1588 c0 -3 6 -23 13 -44 11 -37 13 -80 4 -114 -2 -8 -7 -28
-12 -45 -4 -16 -16 -42 -26 -57 -11 -14 -19 -30 -19 -35 0 -4 -11 -25 -25 -45
-36 -53 -67 -250 -45 -285 9 -15 10 -12 4 15 -13 69 3 116 63 183 30 34 62 79
70 98 8 20 23 45 33 56 10 11 20 40 24 65 3 25 8 61 11 81 4 23 3 39 -4 43 -6
4 -11 0 -11 -9 0 -9 -4 -13 -10 -10 -5 3 -10 15 -10 26 0 14 4 18 13 13 7 -5
5 2 -4 16 -9 14 -19 23 -22 20 -3 -3 -14 4 -26 14 -12 11 -21 17 -21 14z m70
-224 c0 -8 -5 -12 -10 -9 -6 4 -8 11 -5 16 9 14 15 11 15 -7z m-135 -184 c-10
-11 -21 -17 -24 -14 -3 3 3 12 13 20 28 20 32 17 11 -6z"/>
<path d="M1833 1540 c0 -25 2 -35 4 -22 2 12 2 32 0 45 -2 12 -4 2 -4 -23z"/>
<path d="M3252 1554 c-22 -15 -22 -16 -3 -32 22 -19 41 -69 22 -57 -8 5 -10
-1 -5 -21 5 -18 3 -25 -4 -21 -5 4 -16 -7 -23 -26 l-13 -32 -3 55 c-5 83 -6
84 -60 57 -49 -25 -103 -41 -103 -32 0 3 15 11 33 19 29 13 30 14 8 15 -13 1
-34 -10 -46 -23 -29 -31 -58 -46 -89 -46 -17 0 -26 -5 -26 -16 0 -11 6 -15 20
-11 28 7 25 -4 -10 -33 -28 -22 -31 -33 -37 -96 -5 -65 -8 -72 -27 -71 -18 0
-120 -3 -501 -18 -72 -3 -91 -7 -93 -19 -3 -14 15 -16 140 -18 79 0 150 -1
158 0 41 4 145 12 228 17 l92 7 0 -24 c0 -14 -7 -46 -16 -72 -9 -26 -14 -58
-11 -72 2 -13 -1 -28 -7 -31 -6 -4 -49 -7 -96 -8 -114 -1 -173 -31 -294 -150
-82 -82 -119 -105 -139 -90 -16 12 -80 7 -119 -10 -10 -4 -18 -3 -18 2 0 5
-36 8 -80 8 -44 0 -80 3 -80 6 0 3 -41 11 -92 18 -51 6 -95 17 -99 23 -4 7 -9
6 -14 -2 -11 -17 -5 -19 83 -32 54 -7 82 -15 82 -24 0 -7 -4 -16 -10 -19 -16
-10 -12 -43 15 -116 18 -52 21 -69 11 -69 -33 0 -121 21 -126 31 -11 17 -59
38 -65 28 -4 -5 -1 -9 4 -9 6 0 11 -4 11 -10 0 -5 -7 -10 -15 -10 -8 0 -15 -4
-15 -10 0 -5 14 -10 30 -10 17 0 32 -1 35 -1 2 -1 39 -9 82 -18 69 -16 78 -20
77 -39 0 -12 5 -22 13 -22 7 0 13 -6 13 -13 0 -7 10 -23 21 -36 19 -20 27 -22
73 -16 57 7 87 32 79 65 -6 21 -6 21 -29 -1 -13 -12 -30 -19 -38 -16 -19 8
-121 164 -130 200 -4 16 -3 26 1 24 5 -3 9 7 8 21 0 19 5 27 17 26 10 -1 14 4
11 12 -3 8 -2 14 2 14 11 0 33 -30 51 -70 8 -19 24 -45 35 -57 14 -14 19 -28
14 -42 -6 -21 9 -30 20 -11 3 6 14 10 23 10 10 0 44 27 76 60 53 56 116 101
116 83 0 -13 24 17 26 33 2 14 1 14 -15 0 -15 -14 -18 -14 -18 -1 0 13 15 22
42 26 6 1 23 12 38 25 16 13 36 24 46 24 9 0 59 13 111 30 52 16 95 28 96 27
0 -1 8 -23 17 -49 11 -35 12 -48 4 -52 -7 -2 -4 -5 6 -5 34 -2 16 -21 -20 -22
l-38 0 55 -26 c52 -24 53 -26 30 -33 -50 -16 -102 -9 -181 21 -44 17 -81 29
-83 27 -1 -1 -8 -21 -15 -43 -32 -98 -94 -153 -150 -134 -17 6 -31 16 -32 22
0 7 -4 3 -9 -8 -11 -26 -12 -44 -1 -26 6 9 11 10 15 2 8 -13 8 -13 -26 -15
-33 -2 -34 0 -7 43 11 18 18 38 16 45 -2 6 -11 -3 -20 -20 -9 -18 -29 -42 -44
-54 -18 -14 -21 -20 -9 -16 14 5 17 3 11 -11 -22 -56 -19 -58 94 -77 58 -10
160 -28 226 -41 66 -13 236 -45 377 -71 141 -26 255 -52 252 -56 -3 -4 3 -5
12 -1 10 4 14 8 8 10 -5 2 -9 51 -8 110 l1 108 -4 -97 c-2 -61 -8 -98 -14 -98
-11 0 -696 126 -735 135 -15 3 -21 13 -22 36 -1 41 -8 46 -31 25 -26 -24 -76
-18 -76 9 0 17 8 21 55 25 56 5 84 16 76 29 -3 4 5 8 17 8 12 1 24 -2 27 -8 4
-6 21 -6 46 0 37 8 37 9 8 10 -40 1 -56 18 -43 45 8 16 4 14 -15 -6 -36 -40
-37 -35 -7 22 14 27 30 50 34 50 4 0 3 -9 -3 -20 -6 -12 -7 -20 -1 -20 5 0 11
5 13 10 2 8 19 8 53 0 56 -11 538 -79 588 -82 18 -1 49 1 70 6 l38 7 -3 -159
c-2 -88 0 -158 5 -155 4 2 7 76 7 163 l0 159 35 7 c38 7 52 34 41 78 -5 21
-13 25 -68 31 -35 3 -75 8 -89 11 l-27 5 25 45 c21 37 25 58 25 120 -1 42 -3
79 -7 82 -3 3 -46 0 -95 -7 -63 -9 -94 -9 -108 -2 -15 8 -21 8 -24 -1 -3 -8
-17 -8 -55 1 l-51 13 5 35 c4 26 3 34 -5 29 -15 -9 -15 11 -1 52 16 46 86 67
110 31 8 -10 9 -7 4 11 l-6 25 25 -28 c26 -28 34 -61 17 -71 -5 -3 -7 -16 -5
-29 2 -12 2 -16 -2 -9 -8 17 -17 15 -33 -9 -11 -19 -11 -21 3 -16 10 4 19 1
22 -8 4 -8 10 -15 15 -15 8 0 12 14 41 125 20 79 52 114 72 82 7 -11 20 7 54
72 64 124 74 156 74 245 0 92 -13 116 -50 90z m-88 -168 c-4 -25 -9 -46 -13
-47 -3 0 -17 -2 -31 -4 -39 -6 -80 5 -80 21 0 8 16 24 37 36 22 13 31 24 23
26 -8 3 1 12 21 21 43 21 51 10 43 -53z m23 -28 c-3 -7 -5 -2 -5 12 0 14 2 19
5 13 2 -7 2 -19 0 -25z m73 7 c0 -14 -4 -25 -10 -25 -11 0 -14 33 -3 43 11 11
13 8 13 -18z m-189 -55 c24 -11 58 -20 74 -20 22 0 26 -3 16 -9 -8 -5 -19 -8
-25 -7 -6 2 -8 1 -3 -1 12 -8 8 -44 -8 -59 -9 -10 -29 -14 -52 -12 -33 3 -38
6 -38 28 0 14 -2 27 -5 30 -21 21 -29 40 -24 54 8 20 13 20 65 -4z m-111 -185
c0 -8 -4 -15 -10 -15 -5 0 -10 7 -10 15 0 8 5 15 10 15 6 0 10 -7 10 -15z
m-210 -245 c0 -22 -40 -47 -85 -51 -33 -3 -75 8 -75 20 0 15 86 51 123 51 30
0 37 -4 37 -20z m-221 -69 c-12 -18 -49 -46 -49 -36 0 6 50 55 57 55 2 0 -2
-8 -8 -19z m-365 -133 c-4 -7 -3 -8 5 -4 7 4 39 5 71 1 55 -6 58 -8 47 -26 -6
-10 -20 -19 -30 -19 -16 0 -18 -5 -13 -27 l7 -28 -20 25 c-11 13 -17 29 -14
35 4 5 2 6 -3 2 -12 -12 -12 -30 1 -40 6 -5 2 -7 -9 -5 -10 2 -29 22 -42 46
-28 50 -29 52 -8 52 9 0 12 -5 8 -12z m136 -231 c0 -5 -4 -5 -10 -2 -5 3 -10
14 -10 23 0 15 2 15 10 2 5 -8 10 -19 10 -23z"/>
<path d="M3062 1248 c5 -15 28 -18 29 -3 0 6 -7 12 -17 13 -10 3 -15 -1 -12
-10z"/>
<path d="M1893 1480 c0 -36 2 -50 4 -32 2 17 2 47 0 65 -2 17 -4 3 -4 -33z"/>
<path d="M1887 1390 c-3 -11 -1 -20 4 -20 5 0 9 9 9 20 0 11 -2 20 -4 20 -2 0
-6 -9 -9 -20z"/>
<path d="M2455 1385 l-30 -25 33 16 c17 8 32 20 32 25 0 13 -1 12 -35 -16z"/>
<path d="M1866 1333 c6 -4 14 -15 17 -23 5 -11 6 -9 4 4 -1 11 -9 21 -17 23
-10 3 -11 2 -4 -4z"/>
<path d="M1918 1318 c-3 -7 -6 -49 -7 -93 -1 -44 -4 -89 -6 -100 -2 -11 -6
-58 -8 -105 -3 -47 -3 -73 0 -57 4 25 23 39 23 17 0 -5 4 -10 9 -10 5 0 3 12
-4 28 -11 22 -12 56 -5 177 9 144 8 171 -2 143z"/>
<path d="M2855 1318 c-22 -5 -72 -8 -112 -6 -43 2 -66 0 -57 -5 32 -18 224 -2
224 18 0 6 -5 5 -55 -7z"/>
<path d="M2558 1283 c6 -2 9 -9 6 -15 -4 -5 4 -4 17 2 36 19 35 20 -2 19 -19
0 -28 -3 -21 -6z"/>
<path d="M2460 1240 c-13 -8 -12 -10 3 -10 9 0 17 5 17 10 0 12 -1 12 -20 0z"/>
<path d="M2338 1233 c7 -3 16 -2 19 1 4 3 -2 6 -13 5 -11 0 -14 -3 -6 -6z"/>
<path d="M2290 1219 c0 -5 5 -7 10 -4 6 3 10 8 10 11 0 2 -4 4 -10 4 -5 0 -10
-5 -10 -11z"/>
<path d="M2135 1200 c-16 -18 -17 -22 -4 -34 16 -15 117 -28 124 -15 10 15 -8
39 -29 39 -11 0 -30 7 -40 15 -26 19 -29 19 -51 -5z"/>
<path d="M1812 1080 c0 -14 2 -19 5 -12 2 6 2 18 0 25 -3 6 -5 1 -5 -13z"/>
<path d="M1630 1052 c0 -40 -1 -42 -30 -42 -19 0 -30 5 -30 14 0 28 -18 26
-33 -2 -13 -26 -12 -30 3 -40 13 -7 21 -7 28 0 6 6 47 12 92 12 44 1 80 5 80
9 0 4 0 16 0 27 0 13 -7 20 -20 20 -13 0 -20 -7 -20 -20 0 -30 -49 -28 -52 3
-2 41 -3 46 -11 53 -4 4 -7 -11 -7 -34z"/>
<path d="M1629 936 c-2 -3 -39 -6 -81 -7 l-77 -3 -1 -211 c0 -137 -4 -211 -11
-214 -6 -2 -2 -9 9 -17 16 -11 32 -11 82 -2 67 11 191 -2 217 -24 8 -6 16 -8
20 -4 3 3 2 6 -3 6 -6 0 -7 32 -3 83 4 45 11 153 15 240 l7 157 -85 0 c-47 0
-87 -2 -89 -4z m-126 -443 c-7 -2 -19 -2 -25 0 -7 3 -2 5 12 5 14 0 19 -2 13
-5z"/>
<path d="M1920 890 c0 -5 7 -7 15 -4 8 4 15 8 15 10 0 2 -7 4 -15 4 -8 0 -15
-4 -15 -10z"/>
<path d="M1890 879 c0 -5 5 -7 10 -4 6 3 10 8 10 11 0 2 -4 4 -10 4 -5 0 -10
-5 -10 -11z"/>
<path d="M1885 850 c3 -5 8 -10 11 -10 2 0 4 5 4 10 0 6 -5 10 -11 10 -5 0 -7
-4 -4 -10z"/>
<path d="M2094 812 c5 -8 66 -4 66 4 0 2 -16 4 -36 4 -19 0 -33 -4 -30 -8z"/>
<path d="M2560 730 c30 -11 73 -19 95 -19 l40 1 -40 12 c-26 8 -34 15 -25 19
8 3 -16 6 -55 6 l-70 0 55 -19z"/>
<path d="M1851 674 c0 -11 3 -14 6 -6 3 7 2 16 -1 19 -3 4 -6 -2 -5 -13z"/>
<path d="M2646 563 c-6 -14 -5 -15 5 -6 7 7 10 15 7 18 -3 3 -9 -2 -12 -12z"/>
<path d="M2780 560 c-23 -7 -23 -8 -3 -9 12 -1 25 4 28 9 3 6 5 10 3 9 -2 -1
-14 -5 -28 -9z"/>
<path d="M1361 466 c-7 -8 -11 -27 -9 -43 2 -23 8 -29 34 -31 41 -4 62 17 56
57 -4 27 -8 31 -37 31 -18 0 -38 -6 -44 -14z"/>
<path d="M1998 433 c7 -3 16 -2 19 1 4 3 -2 6 -13 5 -11 0 -14 -3 -6 -6z"/>
<path d="M1777 397 c16 -7 33 -7 55 0 31 10 30 10 -22 10 -45 1 -51 -1 -33
-10z"/>
<path d="M2398 353 c6 -2 18 -2 25 0 6 3 1 5 -13 5 -14 0 -19 -2 -12 -5z"/>
<path d="M2948 243 c6 -2 18 -2 25 0 6 3 1 5 -13 5 -14 0 -19 -2 -12 -5z"/>
<path d="M2998 233 c7 -3 16 -2 19 1 4 3 -2 6 -13 5 -11 0 -14 -3 -6 -6z"/>
<path d="M3154 219 c-2 -5 -19 -6 -37 -3 -23 4 -28 3 -17 -4 8 -5 47 -15 87
-22 61 -10 78 -9 118 5 53 17 59 15 61 -21 1 -21 -6 -28 -40 -42 l-41 -16 37
-8 c57 -12 88 4 88 44 0 43 -11 58 -45 64 -16 3 -32 7 -37 10 -4 3 -17 -1 -28
-9 -17 -12 -30 -12 -81 -2 -32 7 -62 9 -65 4z"/>
<path d="M3143 170 c-24 -10 -37 -43 -31 -81 4 -28 46 -44 94 -35 34 7 34 7
34 60 0 47 -3 54 -22 60 -30 8 -48 7 -75 -4z"/>
</g>
</svg>
