<?xml version="1.0" standalone="no"?>
<!DOCTYPE svg PUBLIC "-//W3C//DTD SVG 20010904//EN"
 "http://www.w3.org/TR/2001/REC-SVG-20010904/DTD/svg10.dtd">
<svg version="1.0" xmlns="http://www.w3.org/2000/svg"
 width="580.000000pt" height="362.000000pt" viewBox="0 0 580.000000 362.000000"
 preserveAspectRatio="xMidYMid meet">

<g transform="translate(0.000000,362.000000) scale(0.100000,-0.100000)"
fill="#000000" stroke="none">
<path d="M5035 3395 c-115 -30 -556 -143 -980 -250 -423 -108 -841 -214 -928
-237 l-158 -41 -39 22 c-32 18 -44 20 -60 11 -11 -6 -28 -9 -38 -6 -22 7 -47
-8 -37 -24 5 -8 1 -8 -13 1 -16 10 -26 10 -44 2 -13 -7 -39 -15 -58 -18 -32
-6 -79 -19 -120 -33 -8 -3 -23 -4 -33 -3 -10 1 -24 -2 -30 -7 -7 -5 -31 -13
-55 -17 -23 -4 -40 -10 -38 -14 3 -4 -7 -7 -22 -6 -15 0 -49 -6 -77 -13 -27
-7 -59 -15 -70 -16 -11 -2 -31 -6 -45 -10 -14 -3 -42 -8 -63 -10 -21 -3 -44
-9 -50 -14 -7 -6 -23 -12 -36 -14 -17 -2 -27 -13 -35 -37 l-11 -34 -270 -69
c-799 -203 -1264 -321 -1385 -352 -168 -44 -180 -55 -179 -154 1 -256 39 -399
126 -484 54 -52 81 -68 115 -68 36 0 314 73 1308 345 69 19 179 48 245 64 66
17 141 37 167 45 l46 14 6 -33 c4 -19 12 -37 17 -41 8 -4 9 2 5 17 -6 20 -5
21 4 6 6 -9 8 -22 5 -28 -9 -14 21 -75 41 -83 9 -3 14 -13 10 -21 -3 -8 0 -14
7 -12 7 1 11 -4 9 -11 -4 -20 28 -74 62 -106 18 -17 26 -31 19 -33 -15 -5 22
-70 49 -84 11 -6 17 -17 14 -24 -3 -8 0 -17 6 -21 7 -5 8 -2 3 6 -5 9 -4 11 4
6 6 -4 9 -12 6 -17 -9 -13 51 -92 98 -131 37 -30 96 -66 167 -104 36 -19 78
-24 83 -11 4 13 77 18 77 5 0 -4 -7 -8 -15 -8 -8 0 -15 -5 -15 -12 0 -6 2 -9
5 -6 4 3 24 2 47 -3 39 -9 75 2 63 21 -2 4 12 7 32 6 21 -1 38 -7 41 -15 3 -9
0 -11 -8 -6 -9 5 -11 4 -6 -3 4 -7 14 -12 22 -12 8 0 25 -11 37 -25 31 -36
125 -59 180 -44 22 6 50 17 63 26 20 13 34 13 115 0 60 -10 97 -20 104 -31 7
-8 15 -13 19 -9 4 4 4 -1 0 -11 -6 -16 -4 -18 14 -14 14 4 22 2 22 -7 0 -7 7
-18 15 -25 9 -7 15 -8 15 -2 0 5 17 14 38 19 30 7 38 14 40 35 2 19 -3 30 -17
38 -29 15 -26 26 10 39 48 17 52 15 77 -38 26 -58 27 -67 7 -105 -9 -16 -13
-36 -11 -43 3 -7 1 -13 -4 -13 -6 0 -9 -3 -8 -7 1 -5 -1 -78 -5 -163 -4 -85
-10 -209 -13 -275 -4 -81 -3 -117 4 -110 14 14 30 142 38 305 4 74 8 137 10
139 2 2 -1 12 -6 22 -6 9 -6 19 -1 21 4 2 11 27 15 57 7 51 6 53 -10 40 -16
-13 -16 -12 0 20 12 23 20 30 26 22 5 -9 9 -8 14 5 14 36 17 4 3 -38 -15 -44
-20 -98 -37 -383 -15 -253 -32 -302 -124 -360 -95 -58 -219 -33 -289 60 -19
24 -37 42 -39 39 -11 -10 -27 24 -33 66 -3 27 -2 37 3 27 5 -13 8 -2 9 35 1
33 11 75 28 112 18 41 21 55 11 47 -20 -17 -20 -12 0 27 13 27 18 30 35 22 10
-6 19 -13 19 -15 0 -2 -14 -32 -31 -65 -18 -35 -33 -83 -36 -115 -5 -48 -2
-63 26 -120 39 -78 92 -116 175 -122 34 -3 46 -1 37 5 -11 8 -11 10 0 15 8 3
-5 6 -29 6 -72 2 -130 39 -164 105 -15 30 -19 53 -16 105 4 58 22 126 39 141
23 22 189 346 189 371 0 11 -4 18 -9 15 -13 -8 -42 4 -35 15 3 5 1 9 -4 9 -6
0 -20 -17 -32 -38 -46 -75 -201 -384 -191 -377 17 10 13 -29 -5 -51 -14 -18
-15 -18 -9 6 5 22 5 23 -6 7 -6 -11 -13 -54 -16 -97 -5 -72 -3 -84 21 -134 28
-58 76 -106 104 -106 9 0 37 -12 62 -26 37 -21 53 -24 95 -20 67 7 126 37 169
87 48 57 63 133 76 394 12 238 17 286 37 333 16 39 5 114 -23 158 -53 79 -193
85 -252 9 -18 -22 -23 -24 -48 -15 -15 6 -34 8 -41 6 -8 -3 -11 -1 -8 4 3 5
-6 12 -20 16 -30 8 -32 20 -4 34 25 14 22 53 -4 58 -23 5 -79 -17 -72 -28 3
-5 -4 -6 -14 -3 -16 4 -18 9 -11 29 8 19 5 26 -12 39 -20 13 -24 13 -45 0 -21
-14 -26 -14 -47 0 -23 15 -29 15 -97 -12 -48 -18 -75 -35 -82 -50 -13 -28 -47
-35 -152 -30 -218 10 -334 78 -457 269 -28 45 -54 75 -61 71 -6 -3 -7 -1 -3 6
4 6 -7 37 -24 68 -96 169 -122 225 -111 236 13 13 79 37 104 37 9 0 17 4 17 9
0 10 65 25 148 34 19 2 37 9 42 16 4 8 14 11 21 9 8 -3 33 3 57 14 24 10 55
18 68 18 13 0 24 4 24 9 0 5 15 11 33 15 17 3 41 8 52 10 110 23 141 31 145
38 3 4 29 9 58 12 63 5 82 19 82 56 0 26 5 29 78 49 42 11 126 32 185 46 60
14 215 54 345 89 130 36 509 137 842 226 333 89 669 181 747 206 140 44 141
44 172 90 89 136 42 400 -91 507 -60 49 -107 46 -353 -18z m335 1 c0 -2 -8
-10 -17 -17 -16 -13 -17 -12 -4 4 13 16 21 21 21 13z m-130 -21 c0 -1 -12 -12
-27 -26 -20 -17 -23 -18 -10 -3 9 11 15 23 12 26 -3 2 2 5 10 5 8 0 15 -1 15
-2z m-64 -17 c-3 -22 -17 -39 -27 -32 -6 4 -3 14 7 25 20 22 23 23 20 7z m-86
-21 c0 -2 -10 -12 -22 -23 l-23 -19 19 23 c18 21 26 27 26 19z m30 -1 c0 -2
-8 -10 -17 -17 -16 -13 -17 -12 -4 4 13 16 21 21 21 13z m-95 -23 c-2 -10 -4
-19 -4 -21 -1 -2 -6 0 -11 3 -8 5 -7 11 1 21 15 18 18 18 14 -3z m-44 -6 c-6
-8 -7 -18 -3 -22 4 -5 1 -5 -6 -1 -10 6 -10 11 -1 22 6 8 14 14 16 14 3 0 0
-6 -6 -13z m-41 -11 c0 -2 -8 -10 -17 -17 -16 -13 -17 -12 -4 4 13 16 21 21
21 13z m-55 -15 c3 -5 2 -12 -3 -15 -5 -3 -9 1 -9 9 0 17 3 19 12 6z m-1896
-580 c0 -14 -1 -14 -6 -1 -3 8 -10 24 -15 35 -9 20 -9 20 6 1 9 -11 16 -27 15
-35z m-72 17 c-3 -8 -6 -5 -6 6 -1 11 2 17 5 13 3 -3 4 -12 1 -19z m-303 -68
c5 -17 4 -20 -2 -10 -5 8 -13 26 -16 40 -5 17 -4 20 2 10 5 -8 13 -26 16 -40z
m776 6 c-5 -5 -6 -14 -4 -20 3 -8 -16 -17 -48 -26 -29 -8 -57 -15 -63 -17
-143 -39 -200 -52 -206 -46 -4 5 -10 21 -13 36 -6 35 0 38 174 81 124 30 136
32 151 17 9 -9 13 -20 9 -25z m-857 -21 c5 -28 4 -34 -3 -20 -8 19 -14 73 -6
64 2 -2 6 -22 9 -44z m485 32 c15 4 15 3 2 -6 -13 -9 -12 -11 5 -12 18 -1 18
-2 2 -6 -11 -3 -16 -11 -13 -19 3 -8 0 -14 -5 -14 -6 0 -9 9 -6 20 3 11 1 20
-4 20 -5 0 -9 8 -8 18 0 9 3 12 5 5 3 -7 13 -9 22 -6z m-335 -67 c-7 -8 -23
24 -22 45 0 15 3 13 13 -10 7 -16 11 -32 9 -35z m61 7 c4 -17 3 -26 -2 -23 -6
3 -12 19 -14 36 -6 37 7 27 16 -13z m151 13 c-2 -11 1 -20 6 -20 6 0 7 -4 4
-10 -3 -5 -1 -10 6 -10 7 0 10 -2 8 -5 -3 -2 -15 -2 -28 2 -17 4 -19 8 -9 14
10 7 10 9 -2 9 -13 0 -13 1 0 10 12 8 12 10 -5 10 -17 0 -17 2 -5 10 23 15 29
12 25 -10z m65 -11 c0 -5 -4 -9 -8 -9 -5 0 -9 7 -9 15 0 8 4 12 9 9 4 -3 8 -9
8 -15z m-548 -14 c3 -13 1 -22 -3 -19 -9 5 -13 44 -5 44 2 0 6 -11 8 -25z
m-280 -30 c3 -13 1 -22 -3 -19 -9 5 -13 44 -5 44 2 0 6 -11 8 -25z m345 3 c-3
-8 -6 -5 -6 6 -1 11 2 17 5 13 3 -3 4 -12 1 -19z m91 9 c15 4 15 3 2 -6 -13
-9 -13 -11 0 -12 10 0 11 -2 3 -6 -24 -9 -26 -8 -29 17 -1 14 0 20 2 13 3 -7
13 -9 22 -6z m122 3 c0 -5 8 -7 18 -4 14 5 15 4 2 -5 -13 -9 -13 -11 0 -11 12
0 12 -2 2 -9 -9 -6 -11 -19 -7 -45 4 -21 3 -36 -2 -36 -5 0 -9 20 -9 45 1 25
-2 45 -5 45 -4 0 -9 7 -13 15 -3 8 -1 15 4 15 6 0 10 -4 10 -10z m154 -44 c16
6 16 -12 2 -35 -7 -11 -5 -13 9 -7 15 5 16 4 5 -9 -10 -12 -10 -15 1 -15 11 0
11 -2 -1 -10 -8 -5 -16 -8 -18 -6 -3 4 -13 46 -14 64 -1 6 -4 12 -8 12 -3 0
-6 15 -7 33 l-2 32 10 -32 c6 -22 14 -30 23 -27z m123 48 c-3 -3 -12 -4 -19
-1 -8 3 -5 6 6 6 11 1 17 -2 13 -5z m-600 -26 c-3 -8 -6 -5 -6 6 -1 11 2 17 5
13 3 -3 4 -12 1 -19z m410 7 c0 -8 -6 -16 -13 -19 -7 -3 -10 2 -7 15 6 22 20
26 20 4z m196 -2 c-7 -2 -19 -2 -25 0 -7 3 -2 5 12 5 14 0 19 -2 13 -5z m-546
-18 c0 -8 -4 -15 -9 -15 -4 0 -8 7 -8 15 0 8 4 15 8 15 5 0 9 -7 9 -15z m-197
-5 c0 -5 -5 -10 -11 -10 -5 0 -7 5 -4 10 3 6 8 10 11 10 2 0 4 -4 4 -10z m57
-22 c-3 -7 -5 -2 -5 12 0 14 2 19 5 13 2 -7 2 -19 0 -25z m698 22 c8 -13 -5
-13 -25 0 -13 8 -13 10 2 10 9 0 20 -4 23 -10z m50 2 c14 -10 18 -42 5 -42 -6
0 -8 5 -5 10 3 6 1 10 -5 10 -6 0 -9 4 -6 9 4 5 0 12 -6 14 -7 3 -8 6 -3 6 6
0 15 -3 20 -7z m-945 -12 c0 -5 -5 -10 -11 -10 -5 0 -7 5 -4 10 3 6 8 10 11
10 2 0 4 -4 4 -10z m555 0 c-3 -5 -2 -10 4 -10 5 0 8 -11 6 -25 -1 -14 2 -25
8 -25 6 0 8 -3 4 -6 -3 -3 -14 -1 -24 5 -14 8 -15 11 -3 11 10 1 9 4 -5 10
-11 5 -14 9 -7 9 6 1 12 5 12 11 0 5 -6 8 -12 6 -7 -1 -10 -1 -5 1 4 3 5 9 1
14 -3 5 2 9 11 9 9 0 13 -4 10 -10z m129 -5 c-19 -14 -19 -14 2 -9 14 4 21 1
21 -10 0 -12 -4 -13 -14 -5 -10 9 -13 8 -13 -2 0 -9 -5 -7 -11 5 -9 14 -8 20
2 27 23 15 34 10 13 -6z m-266 -14 c11 -7 10 -9 -3 -14 -9 -4 -14 -3 -10 2 3
5 -1 12 -7 14 -7 3 -8 6 -3 6 6 0 16 -3 23 -8z m419 -23 c-3 -7 -5 -2 -5 12 0
14 2 19 5 13 2 -7 2 -19 0 -25z m-687 1 c0 -5 5 -7 10 -4 15 9 12 -1 -4 -14
-11 -9 -15 -7 -19 9 -3 11 -1 20 4 20 5 0 9 -5 9 -11z m71 -46 c-1 -7 4 -11
11 -9 7 1 9 1 4 -2 -4 -2 -3 -8 4 -12 8 -5 7 -9 -5 -13 -9 -4 -13 -3 -10 3 3
6 1 10 -6 10 -6 0 -9 8 -6 20 3 11 1 20 -4 20 -5 0 -9 10 -8 23 0 21 1 21 11
-3 6 -14 10 -31 9 -37z m-157 31 c3 -8 2 -12 -4 -9 -6 3 -10 10 -10 16 0 14 7
11 14 -7z m360 0 c-12 -10 -14 -14 -4 -11 8 2 20 -1 27 -8 9 -10 6 -15 -12
-23 -20 -10 -23 -8 -28 16 -5 25 6 41 27 42 6 0 1 -7 -10 -16z m533 1 c0 -8
-4 -12 -9 -9 -4 3 -8 9 -8 15 0 5 4 9 8 9 5 0 9 -7 9 -15z m-140 -27 c-3 -7
-5 -2 -5 12 0 14 2 19 5 13 2 -7 2 -19 0 -25z m27 6 c3 -8 2 -12 -4 -9 -6 3
-10 10 -10 16 0 14 7 11 14 -7z m-544 -8 c-7 -7 -13 -7 -20 0 -6 6 -3 10 10
10 13 0 16 -4 10 -10z m194 8 c16 -6 12 -24 -5 -24 -6 0 -8 4 -5 9 4 5 0 12
-6 14 -7 3 -10 6 -6 6 3 1 13 -2 22 -5z m146 -4 c8 -5 10 -10 4 -10 -8 0 -9
-11 -4 -35 4 -20 4 -38 -1 -41 -5 -3 -10 6 -10 20 -1 14 -2 34 -3 44 0 9 -7
20 -16 24 -13 6 -13 7 0 7 8 0 22 -4 30 -9z m-566 -11 c-4 -8 1 -9 17 -4 19 5
21 4 9 -4 -13 -10 -13 -11 0 -11 13 -1 13 -2 -1 -13 -9 -7 -14 -19 -12 -27 4
-13 3 -13 -6 0 -6 9 -6 18 0 26 6 8 5 14 -6 18 -17 6 -21 26 -4 26 5 0 7 -5 3
-11z m513 5 c-3 -3 -12 -4 -19 -1 -8 3 -5 6 6 6 11 1 17 -2 13 -5z m-558 -31
c8 -15 8 -23 1 -23 -5 0 -10 7 -10 15 0 8 -5 15 -11 15 -5 0 -7 5 -4 11 8 12
8 12 24 -18z m880 -42 c1 -48 -5 -36 -13 24 -4 34 -3 43 3 30 5 -11 10 -35 10
-54z m-604 49 c-3 -5 -12 -10 -18 -10 -7 0 -6 4 3 10 19 12 23 12 15 0z m201
-5 c-11 -8 -14 -15 -7 -15 7 0 9 -5 5 -12 -5 -8 -1 -9 12 -5 19 7 19 7 0 -8
-23 -17 -21 -18 -30 17 -5 20 -2 28 11 31 29 7 29 7 9 -8z m78 -1 c3 -8 2 -12
-4 -9 -6 3 -10 10 -10 16 0 14 7 11 14 -7z m263 -31 c-3 -10 -5 -2 -5 17 0 19
2 27 5 18 2 -10 2 -26 0 -35z m-527 17 c-13 -9 -13 -10 0 -10 13 0 13 -1 0
-10 -12 -8 -12 -10 -1 -10 8 0 12 -2 9 -5 -3 -3 -13 -2 -22 1 -14 5 -15 9 -4
15 10 7 10 9 -2 9 -13 0 -13 1 0 10 8 5 20 10 25 10 6 0 3 -5 -5 -10z m147 -5
c0 -8 -4 -12 -9 -9 -5 3 -6 10 -3 15 9 13 12 11 12 -6z m-207 1 c0 -2 -7 -7
-16 -10 -8 -3 -12 -2 -9 4 6 10 25 14 25 6z m125 -6 c-3 -5 0 -10 7 -11 10 0
10 -2 -1 -6 -11 -5 -11 -7 0 -14 10 -6 10 -9 2 -9 -7 0 -10 -6 -7 -14 3 -8 1
-17 -4 -20 -6 -4 -9 5 -7 19 1 14 -2 25 -6 25 -11 0 -7 23 6 32 14 11 17 10
10 -2z m322 -5 c0 -8 -4 -15 -9 -15 -4 0 -8 7 -8 15 0 8 4 15 8 15 5 0 9 -7 9
-15z m-660 -11 c-3 -3 -12 -4 -19 -1 -8 3 -5 6 6 6 11 1 17 -2 13 -5z m77 -12
c2 -4 -4 -8 -14 -8 -10 0 -16 4 -14 8 3 4 9 8 14 8 5 0 11 -4 14 -8z m-77 -8
c-3 -3 -12 -4 -19 -1 -8 3 -5 6 6 6 11 1 17 -2 13 -5z m660 -16 c2 -18 0 -20
-7 -8 -12 18 -13 30 -2 30 4 0 9 -10 9 -22z m-367 8 c0 -3 -4 -8 -10 -11 -5
-3 -10 -1 -10 4 0 6 5 11 10 11 6 0 10 -2 10 -4z m197 -18 c-3 -8 -6 -5 -6 6
-1 11 2 17 5 13 3 -3 4 -12 1 -19z m-343 0 c11 -36 15 -81 7 -73 -5 6 -11 24
-13 40 -1 17 -10 33 -18 37 -12 5 -12 7 3 7 10 1 19 -5 21 -11z m653 -10 c-3
-8 -6 -5 -6 6 -1 11 2 17 5 13 3 -3 4 -12 1 -19z m-330 -85 c-3 -10 -5 -4 -5
12 0 17 2 24 5 18 2 -7 2 -21 0 -30z m-169 -39 c-3 -27 -4 -26 -9 8 -3 22 -1
34 4 29 5 -5 7 -21 5 -37z m-271 21 c0 -8 -4 -12 -9 -9 -4 3 -8 9 -8 15 0 5 4
9 8 9 5 0 9 -7 9 -15z m-23 -20 c3 -8 1 -15 -4 -15 -6 0 -10 7 -10 15 0 8 2
15 4 15 2 0 6 -7 10 -15z m243 -27 c-3 -7 -5 -2 -5 12 0 14 2 19 5 13 2 -7 2
-19 0 -25z m-210 7 c0 -8 -4 -12 -9 -9 -4 3 -8 9 -8 15 0 5 4 9 8 9 5 0 9 -7
9 -15z m80 -47 c-3 -8 -6 -5 -6 6 -1 11 2 17 5 13 3 -3 4 -12 1 -19z m68 -389
c9 -17 15 -33 13 -35 -3 -2 -12 12 -21 31 -21 43 -13 47 8 4z m120 -209 c-3
-5 -1 -10 6 -10 7 0 10 -3 6 -6 -9 -9 -28 6 -22 17 4 5 8 9 11 9 3 0 2 -4 -1
-10z m30 -40 c3 -6 -1 -7 -9 -4 -18 7 -21 14 -7 14 6 0 13 -4 16 -10z m40 -81
c-4 -5 -12 -9 -18 -8 -9 0 -8 2 1 6 6 2 9 10 6 15 -4 7 -2 8 5 4 6 -4 9 -12 6
-17z m25 -3 c0 -2 -8 -10 -17 -17 -16 -13 -17 -12 -4 4 13 16 21 21 21 13z
m641 -79 c-10 -9 -11 -8 -5 6 3 10 9 15 12 12 3 -3 0 -11 -7 -18z m88 -18
c-22 -13 -31 -11 -17 5 7 8 17 12 22 9 4 -3 2 -9 -5 -14z m-607 -3 c7 4 8 2 4
-4 -7 -12 4 -16 34 -13 13 2 13 1 0 -8 -17 -12 -72 17 -63 33 4 6 8 6 11 -2 2
-7 9 -9 14 -6z m709 -59 c-10 -9 -11 -8 -5 6 3 10 9 15 12 12 3 -3 0 -11 -7
-18z m381 -3 c44 -23 80 -77 76 -116 l-4 -33 -11 35 c-6 19 -12 27 -12 17 -1
-25 -21 -11 -21 14 0 14 4 18 13 13 7 -5 7 -1 -2 10 -20 25 -65 46 -97 46 -15
0 -46 -10 -70 -22 -24 -12 -47 -18 -51 -15 -8 9 35 57 62 67 24 10 80 2 117
-16z m-472 -3 c0 -5 -7 -12 -16 -15 -14 -5 -15 -4 -4 9 14 17 20 19 20 6z m70
-5 c0 -3 -13 -11 -30 -20 -16 -8 -30 -11 -30 -7 0 4 10 13 23 19 24 12 37 14
37 8z m65 -26 c3 -5 1 -10 -4 -10 -6 0 -11 5 -11 10 0 6 2 10 4 10 3 0 8 -4
11 -10z m33 -10 c-7 -10 -14 -17 -17 -15 -4 4 18 35 25 35 2 0 -1 -9 -8 -20z
m-178 0 c-8 -5 -19 -10 -25 -10 -5 0 -3 5 5 10 8 5 20 10 25 10 6 0 3 -5 -5
-10z m282 -44 c7 4 8 2 4 -5 -9 -13 -26 -5 -25 12 0 9 2 8 6 -1 2 -6 10 -9 15
-6z m48 -21 c0 -12 -19 -12 -23 0 -4 9 -1 12 9 8 7 -3 14 -7 14 -8z m-50 -140
c-7 -9 -41 -70 -75 -137 -66 -131 -86 -154 -80 -91 4 41 127 278 138 266 4 -3
7 0 8 8 0 8 5 4 11 -8 8 -17 8 -26 -2 -38z m-160 -235 c0 -5 -5 -10 -11 -10
-5 0 -7 5 -4 10 3 6 8 10 11 10 2 0 4 -4 4 -10z"/>
<path d="M3703 1169 c21 -13 47 -61 48 -91 l0 -23 9 22 c11 28 -5 80 -30 93
-25 13 -50 13 -27 -1z"/>
<path d="M3645 354 c-18 -16 -22 -22 -9 -15 18 9 53 42 43 41 -2 -1 -17 -12
-34 -26z"/>
</g>
</svg>
